<svg width="100" height="40" viewBox="0 0 100 40" fill="none" xmlns="http://www.w3.org/2000/svg">
<g clip-path="url(#clip0_29_482)">
<path fill-rule="evenodd" clip-rule="evenodd" d="M41.373 6.54866V23.7817H53.4694V20.7822H44.6244V6.54866H41.373ZM59.0181 6.54866H55.1565V6.69408L61.7734 16.6618V23.7825H65.0169V16.6618L71.8779 6.69408V6.54866H67.9705L63.3913 13.6616L59.0181 6.54866ZM89.9662 9.39485C88.6608 6.73909 85.883 5.9834 83.2039 5.9834C80.0287 6.0059 76.5411 7.4567 76.5411 10.998C76.5411 14.8518 79.7846 15.791 83.3034 16.2108C85.5852 16.455 87.2801 17.1189 87.2801 18.7368C87.2801 20.6065 85.3645 21.3241 83.3268 21.3241C81.2354 21.3241 79.2436 20.4845 78.4801 18.5922L75.7785 19.9963C77.0527 23.1411 79.7621 24.224 83.2731 24.224C87.1122 24.224 90.5003 22.5758 90.5003 18.7368C90.5003 14.6311 87.1572 13.6996 83.57 13.2573C81.502 13.0132 79.7309 12.5934 79.7309 11.0976C79.7309 9.81555 80.8909 8.80796 83.3025 8.80796C85.1645 8.80796 86.7902 9.73938 87.3779 10.7236L89.9662 9.39485ZM99.7123 23.7817V6.54866H96.4913V23.7817H99.7123Z" fill="#393737"/>
<path fill-rule="evenodd" clip-rule="evenodd" d="M45.3421 32.5895C45.0141 32.9253 44.5103 33.1089 44.0679 33.1089C42.8162 33.1089 42.3358 32.2311 42.328 31.3914C42.3202 30.544 42.8474 29.6282 44.0679 29.6282C44.5103 29.6282 44.9613 29.7805 45.2971 30.1086L45.9308 29.4905C45.4114 28.9789 44.7552 28.7201 44.0688 28.7201C42.2371 28.7201 41.375 30.0636 41.3819 31.3914C41.3897 32.7037 42.1912 34.0013 44.0688 34.0013C44.8011 34.0013 45.4729 33.765 46 33.2534L45.3421 32.5895ZM50.3178 28.7201C48.5623 28.7201 47.7079 30.0558 47.7079 31.3914C47.7079 32.7193 48.5398 34.0013 50.3178 34.0013C52.0958 34.0013 52.9052 32.689 52.9208 31.3837C52.9355 30.0558 52.0655 28.7201 50.3178 28.7201ZM50.3178 29.5823C51.5158 29.5823 51.9893 30.544 51.9738 31.3984C51.9582 32.2302 51.5158 33.1236 50.3178 33.1236C49.1276 33.1236 48.6766 32.238 48.6541 31.4062C48.6315 30.5518 49.1276 29.5823 50.3178 29.5823ZM58.3543 31.9558L55.8743 28.811H55.0961V33.8862H56.05V30.467L58.7214 33.8862H59.3091V28.811H58.3552V31.9558H58.3543ZM65.559 29.6507C65.1772 28.8725 64.3609 28.6431 63.5672 28.6431C62.6357 28.6509 61.6056 29.0785 61.6056 30.1233C61.6056 31.2607 62.5596 31.5351 63.5975 31.6572C64.2692 31.7256 64.773 31.9247 64.773 32.4051C64.773 32.9548 64.2086 33.1608 63.6053 33.1608C62.9872 33.1608 62.3994 32.9167 62.1778 32.3592L61.384 32.7713C61.758 33.6949 62.5518 34.0152 63.5897 34.0152C64.7193 34.0152 65.7191 33.5348 65.7191 32.4051C65.7191 31.1915 64.7349 30.9171 63.6736 30.7872C63.0703 30.7111 62.544 30.589 62.544 30.1458C62.544 29.7718 62.8876 29.4741 63.5975 29.4741C64.1471 29.4741 64.6276 29.7485 64.7955 30.0385L65.559 29.6507ZM71.3596 28.8266V31.7264C71.3596 32.5964 70.9095 33.1227 70.1235 33.1227C69.3297 33.1227 68.8112 32.6423 68.8112 31.7264V28.8266H67.865V31.7264C67.865 33.2526 68.8951 33.9935 70.1165 33.9935C71.3908 33.9935 72.3066 33.2301 72.3066 31.7264V28.8266H71.3596ZM74.649 28.811V33.8862H78.2059V33.0007H75.6029V28.811H74.649ZM80.8461 33.8871H81.8V29.6818H83.4031V28.8119C81.9376 28.8119 80.7015 28.8119 79.236 28.8119V29.6818H80.8461V33.8871ZM86.3489 33.8871V28.8119H85.395V33.8871H86.3489ZM91.9815 31.9558L89.4937 28.811H88.7233V33.8862H89.6772V30.467L92.3408 33.8862H92.9363V28.811H91.9824V31.9558H91.9815ZM99.5757 29.4446C99.0564 28.9331 98.3699 28.6742 97.6904 28.6742C95.9046 28.6742 95.0113 29.9943 95.0113 31.414C95.0113 32.7496 95.7895 34.0013 97.6904 34.0013C98.5837 34.0013 99.2096 33.6655 99.7125 33.0933V30.956H97.5372V31.8104H98.8348V32.7037C98.4383 33.024 98.0869 33.1158 97.6895 33.1158C96.43 33.1158 95.9496 32.2536 95.9496 31.414C95.9496 30.3761 96.6058 29.552 97.6895 29.552C98.1319 29.552 98.6357 29.7277 98.9793 30.0558L99.5757 29.4446Z" fill="#393737"/>
<path fill-rule="evenodd" clip-rule="evenodd" d="M32.7109 0H33.7791V40H32.7109V0Z" fill="#393737"/>
<path d="M10.7685 5.34268L18.9807 0.603346L19.3244 0.405116L19.668 0.603346L24.7666 3.5413L25.1181 3.74732V4.14378V14.4855V14.8819L24.7666 15.0802L19.668 18.0259L19.3244 18.2242L18.9807 18.0259L14.3556 15.3546L10.7685 17.4304V22.6354L14.4318 24.7493L18.8206 22.2156V21.414L19.8585 22.0174L24.6281 24.7649L24.9795 24.9709V25.3674V36.4951V36.8993L24.6281 37.0975L19.9494 39.7992L19.6057 39.9974L19.2543 39.7992L0.351447 28.8801L0 28.681V28.2845V6.61689V6.21264L0.351447 6.01441L9.72365 0.603346L10.7685 0V1.19804V5.34268ZM18.6301 2.40386L10.7685 6.93718V10.4404L14.012 8.56283L15.0577 7.95949V9.16531V14.1643L18.6293 16.2254V2.40386H18.6301ZM23.7209 4.54111L20.0195 2.40386V16.2254L23.7209 14.0882V4.54111ZM13.6614 14.1652V10.372L10.7685 12.0435V15.829L13.6614 14.1652ZM18.8206 23.8196L15.8134 25.5517L18.8206 27.2839V23.8196ZM5.44136 26.4226L2.10608 28.2923L19.6066 38.3969L22.896 36.4968L5.44136 26.4226ZM1.39626 27.0943L4.80772 25.1864V5.0449L1.39626 7.01422V27.0943ZM6.19706 4.24333V25.2548L23.5833 35.2988V25.7655L20.2099 23.8196V28.4828V29.6886L19.172 29.0852L9.73144 23.6361L9.37999 23.4301V23.0336V11.6393V6.54072V2.40386L6.19706 4.24333Z" fill="#333333"/>
</g>
<defs>
<clipPath id="clip0_29_482">
<rect width="99.713" height="40" fill="white"/>
</clipPath>
</defs>
</svg>
