<svg width="50" height="50" viewBox="0 0 50 50" fill="none" xmlns="http://www.w3.org/2000/svg">
<path d="M46.2766 18.617H41.6681L41.3085 17.7494L44.5824 14.4755C46.0633 12.9952 46.0633 10.675 44.5824 9.19463L40.8053 5.41807C39.3249 3.93721 37.0048 3.93779 35.5244 5.41807L32.2505 8.69199L31.3829 8.33193V3.72344C31.383 1.63564 29.7474 0 27.6596 0H22.3404C20.2526 0 18.617 1.63564 18.617 3.72344V8.33193L17.7494 8.69199L14.4755 5.41807C12.9952 3.93721 10.675 3.93721 9.19463 5.41807L5.41807 9.19473C3.93721 10.675 3.93721 12.9952 5.41807 14.4756L8.69199 17.7495L8.33193 18.6171H3.72344C1.63564 18.617 0 20.2526 0 22.3404V27.6596C0 29.7474 1.63564 31.383 3.72344 31.383H8.33193L8.69199 32.25L5.41807 35.5239C3.93721 37.0043 3.93721 39.3244 5.41807 40.8048L9.19463 44.5819C10.6749 46.0622 12.9951 46.0622 14.4755 44.5819L17.7494 41.308L18.617 41.6682V46.2767C18.617 48.3645 20.2526 50.0001 22.3404 50.0001H27.6596C29.7474 50.0001 31.383 48.3645 31.383 46.2767V41.6682L32.2506 41.3086L35.5245 44.5825C37.0049 46.0628 39.325 46.0628 40.8054 44.5825L44.5825 40.8054C46.0634 39.3251 46.0634 37.0049 44.5825 35.5245L37.2953 28.2373C36.8814 27.8229 36.7198 27.2118 36.8703 26.6373L37.0203 26.1868C37.264 25.4549 37.3527 24.6347 37.282 23.724C36.6272 17.1767 30.9459 12.3197 24.3555 12.6612C18.1161 13.0112 13.0028 18.1288 12.7146 24.3012C12.5188 27.7432 13.7034 31.0064 16.0502 33.4905C18.3954 35.9735 21.5741 37.3405 25.0002 37.3405C25.5874 37.3405 26.0641 36.864 26.0641 36.2767C26.0641 35.6895 25.5875 35.2128 25.0002 35.2128C22.1651 35.2128 19.5363 34.0819 17.597 32.0298C15.6561 29.9755 14.6768 27.2739 14.8396 24.4117C15.0784 19.3037 19.3103 15.0756 24.4704 14.7862C29.9305 14.5043 34.6236 18.5208 35.163 23.9123C35.2098 24.5149 35.155 25.0543 35.0019 25.5155L34.8423 25.9942C34.8369 26.0118 34.8316 26.0288 34.8269 26.0458C34.4604 27.3645 34.8301 28.781 35.7912 29.7421L43.0784 37.0293C43.7263 37.6767 43.7263 38.6532 43.0784 39.3011L39.3013 43.0782C38.6534 43.7256 37.6778 43.7256 37.0295 43.0782L33.2523 39.3011C32.9471 38.9958 32.4896 38.9059 32.0923 39.0702L29.9114 39.9745C29.5146 40.1394 29.2556 40.5271 29.2556 40.9575V46.2767C29.2556 47.1719 28.5551 47.8724 27.6599 47.8724H22.3407C21.446 47.8724 20.745 47.1719 20.745 46.2767V40.9575C20.745 40.5272 20.4859 40.1395 20.0881 39.9745L17.9072 39.0702C17.5094 38.9053 17.052 38.9963 16.7477 39.3011L12.9711 43.0782C12.3237 43.725 11.3472 43.7256 10.6993 43.0782L6.92275 39.3011C6.27539 38.6537 6.27539 37.6771 6.92275 37.0293L10.6993 33.2522C11.0041 32.9474 11.095 32.4899 10.9302 32.0921L10.0259 29.9112C9.86104 29.5145 9.47324 29.2554 9.04287 29.2554H3.72344C2.82871 29.2554 2.12773 28.5549 2.12773 27.6597V22.3405C2.12773 21.4458 2.82881 20.7448 3.72344 20.7448H9.04258C9.47285 20.7448 9.86064 20.4857 10.0261 20.0879L10.9304 17.907C11.0947 17.5097 11.0038 17.0518 10.6995 16.7475L6.92285 12.9707C6.27549 12.3233 6.27549 11.3468 6.92285 10.6989L10.6994 6.92236C11.3468 6.275 12.3233 6.275 12.9712 6.92236L16.7478 10.6989C17.052 11.0037 17.5095 11.0941 17.9073 10.9298L20.0882 10.0255C20.4855 9.86065 20.7445 9.47285 20.7445 9.04248V3.72344C20.7445 2.82871 21.4456 2.12773 22.3402 2.12773H27.6594C28.5546 2.12773 29.2551 2.82881 29.2551 3.72344V9.04258C29.2551 9.47285 29.5142 9.86064 29.9109 10.0261L32.0918 10.9304C32.4886 11.0942 32.9471 11.0049 33.2519 10.6995L37.0293 6.92285C37.6771 6.27549 38.6538 6.27549 39.3011 6.92285L43.0782 10.6994C43.7261 11.3468 43.7261 12.3233 43.0782 12.9712L39.3011 16.7478C38.9963 17.052 38.9054 17.5095 39.0702 17.9073L39.9745 20.0882C40.1394 20.4855 40.5271 20.7445 40.9575 20.7445H46.2767C47.1719 20.7445 47.8724 21.4456 47.8724 22.3402V27.6594C47.8724 28.5546 47.1719 29.2551 46.2767 29.2551C45.6895 29.2551 45.2128 29.7316 45.2128 30.3189C45.2128 30.9062 45.6894 31.3828 46.2767 31.3828C48.3645 31.3828 50.0001 29.7472 50.0001 27.6594V22.3402C50 20.2526 48.3644 18.617 46.2766 18.617Z" fill="#91D089"/>
</svg>
