<svg width="75" height="75" viewBox="0 0 75 75" fill="none" xmlns="http://www.w3.org/2000/svg">
<g clip-path="url(#clip0_69_2406)">
<path d="M69.4148 27.9255H62.5021L61.9627 26.6241L66.8736 21.7132C69.0949 19.4928 69.0949 16.0125 66.8736 13.7919L61.2079 8.1271C58.9874 5.90581 55.5072 5.90669 53.2866 8.1271L48.3757 13.038L47.0744 12.4979V5.58516C47.0745 2.45347 44.621 0 41.4894 0H33.5106C30.379 0 27.9255 2.45347 27.9255 5.58516V12.4979L26.6241 13.038L21.7132 8.1271C19.4928 5.90581 16.0125 5.90581 13.7919 8.1271L8.1271 13.7921C5.90581 16.0125 5.90581 19.4928 8.1271 21.7134L13.038 26.6243L12.4979 27.9256H5.58516C2.45347 27.9255 0 30.379 0 33.5106V41.4894C0 44.621 2.45347 47.0745 5.58516 47.0745H12.4979L13.038 48.375L8.1271 53.2859C5.90581 55.5064 5.90581 58.9866 8.1271 61.2072L13.7919 66.8729C16.0124 69.0933 19.4927 69.0933 21.7132 66.8729L26.6241 61.962L27.9255 62.5022V69.415C27.9255 72.5467 30.379 75.0001 33.5106 75.0001H41.4894C44.621 75.0001 47.0745 72.5467 47.0745 69.415V62.5022L48.3759 61.9629L53.2868 66.8738C55.5073 69.0942 58.9875 69.0942 61.2081 66.8738L66.8738 61.2081C69.0951 58.9876 69.0951 55.5073 66.8738 53.2868L55.943 42.356C55.3222 41.7344 55.0797 40.8177 55.3055 39.956L55.5305 39.2802C55.896 38.1823 56.0291 36.952 55.923 35.586C54.9409 25.765 46.4188 18.4796 36.5332 18.9918C27.1742 19.5168 19.5042 27.1932 19.0718 36.4518C18.7783 41.6147 20.5551 46.5097 24.0753 50.2358C27.5931 53.9603 32.3612 56.0108 37.5003 56.0108C38.3811 56.0108 39.0961 55.2959 39.0961 54.415C39.0961 53.5342 38.3813 52.8192 37.5003 52.8192C33.2477 52.8192 29.3045 51.1229 26.3955 48.0447C23.4841 44.9632 22.0151 40.9109 22.2593 36.6176C22.6176 28.9556 28.9654 22.6134 36.7056 22.1793C44.8957 21.7564 51.9354 27.7812 52.7445 35.8685C52.8146 36.7724 52.7325 37.5814 52.5028 38.2733L52.2634 38.9914C52.2554 39.0177 52.2475 39.0432 52.2403 39.0687C51.6905 41.0467 52.2451 43.1714 53.6868 44.6131L64.6176 55.5439C65.5894 56.515 65.5894 57.9798 64.6176 58.9516L58.9519 64.6173C57.9801 65.5884 56.5168 65.5884 55.5442 64.6173L49.8785 58.9516C49.4206 58.4937 48.7343 58.3588 48.1384 58.6053L44.8671 59.9618C44.272 60.209 43.8834 60.7907 43.8834 61.4363V69.415C43.8834 70.7578 42.8326 71.8085 41.4898 71.8085H33.5111C32.169 71.8085 31.1175 70.7578 31.1175 69.415V61.4363C31.1175 60.7909 30.7289 60.2092 30.1321 59.9618L26.8608 58.6053C26.2641 58.3579 25.5779 58.4944 25.1215 58.9516L19.4566 64.6173C18.4856 65.5875 17.0208 65.5884 16.049 64.6173L10.3841 58.9516C9.41309 57.9806 9.41309 56.5157 10.3841 55.5439L16.049 49.8782C16.5062 49.421 16.6425 48.7349 16.3953 48.1381L15.0388 44.8668C14.7916 44.2717 14.2099 43.8831 13.5643 43.8831H5.58516C4.24307 43.8831 3.1916 42.8323 3.1916 41.4895V33.5108C3.1916 32.1687 4.24321 31.1172 5.58516 31.1172H13.5639C14.2093 31.1172 14.791 30.7286 15.0391 30.1318L16.3956 26.8605C16.6421 26.2645 16.5057 25.5776 16.0493 25.1212L10.3843 19.4561C9.41323 18.485 9.41323 17.0202 10.3843 16.0484L16.0491 10.3835C17.0202 9.4125 18.485 9.4125 19.4568 10.3835L25.1216 16.0484C25.5781 16.5056 26.2642 16.6412 26.861 16.3947L30.1323 15.0382C30.7283 14.791 31.1168 14.2093 31.1168 13.5637V5.58516C31.1168 4.24307 32.1684 3.1916 33.5104 3.1916H41.4891C42.8319 3.1916 43.8826 4.24321 43.8826 5.58516V13.5639C43.8826 14.2093 44.2712 14.791 44.8664 15.0391L48.1377 16.3956C48.7329 16.6414 49.4206 16.5073 49.8778 16.0493L55.5439 10.3843C56.5157 9.41323 57.9807 9.41323 58.9516 10.3843L64.6173 16.0491C65.5891 17.0202 65.5891 18.485 64.6173 19.4568L58.9516 25.1216C58.4944 25.5781 58.3581 26.2642 58.6053 26.861L59.9618 30.1323C60.209 30.7283 60.7907 31.1168 61.4363 31.1168H69.415C70.7578 31.1168 71.8085 32.1684 71.8085 33.5104V41.4891C71.8085 42.8319 70.7578 43.8826 69.415 43.8826C68.5342 43.8826 67.8192 44.5975 67.8192 45.4784C67.8192 46.3592 68.534 47.0742 69.415 47.0742C72.5467 47.0742 75.0001 44.6208 75.0001 41.4891V33.5104C75 30.379 72.5465 27.9255 69.4148 27.9255Z" fill="#91D089"/>
</g>
<defs>
<clipPath id="clip0_69_2406">
<rect width="75" height="75" fill="white"/>
</clipPath>
</defs>
</svg>
