<svg width="100" height="100" viewBox="0 0 100 100" fill="none" xmlns="http://www.w3.org/2000/svg">
<g clip-path="url(#clip0_29_774)">
<path d="M99.2335 58.7048C104.038 31.5131 85.8902 5.57467 58.6985 0.769792C31.5067 -4.03508 5.56835 14.1131 0.763476 41.3048C-4.0414 68.4965 14.1067 94.4349 41.2985 99.2398C68.4902 104.045 94.4286 85.8965 99.2335 58.7048Z" fill="#393737"/>
<path d="M95.7896 57.3352C99.8388 32.0459 82.6204 8.26224 57.331 4.21298C32.0417 0.163715 8.25806 17.3822 4.20879 42.6715C0.159531 67.9609 17.378 91.7445 42.6673 95.7938C67.9567 99.843 91.7403 82.6245 95.7896 57.3352Z" fill="#FFC943"/>
<path opacity="0.1" d="M96.3747 50C96.3747 24.3909 75.6163 3.62524 50 3.62524V96.3747C75.6163 96.3747 96.3747 75.6163 96.3747 50Z" fill="#393737"/>
<path d="M21.3164 65.1102C21.3164 59.5418 78.6902 58.8095 78.6902 65.1102C78.6902 78.8718 65.8495 90.0232 50.007 90.0232C34.1572 90.0232 21.3164 78.8646 21.3164 65.1102Z" fill="#393737"/>
<path d="M30.1915 52.4361C34.7284 52.4361 38.4064 46.4858 38.4064 39.1458C38.4064 31.8057 34.7284 25.8555 30.1915 25.8555C25.6545 25.8555 21.9766 31.8057 21.9766 39.1458C21.9766 46.4858 25.6545 52.4361 30.1915 52.4361Z" fill="#393737"/>
<path d="M69.8087 52.4361C74.3456 52.4361 78.0236 46.4858 78.0236 39.1458C78.0236 31.8057 74.3456 25.8555 69.8087 25.8555C65.2717 25.8555 61.5938 31.8057 61.5938 39.1458C61.5938 46.4858 65.2717 52.4361 69.8087 52.4361Z" fill="#393737"/>
</g>
<defs>
<clipPath id="clip0_29_774">
<rect width="100" height="100" fill="white"/>
</clipPath>
</defs>
</svg>
