<svg width="100" height="35" viewBox="0 0 100 35" fill="none" xmlns="http://www.w3.org/2000/svg">
<g clip-path="url(#clip0_29_473)">
<path fill-rule="evenodd" clip-rule="evenodd" d="M4.13517 20.3331C4.13517 19.684 4.41372 19.1396 4.96322 18.6821C5.51947 18.2305 6.29266 18.0026 7.29374 18.0026C8.1775 18.0026 9.05619 18.1756 9.92813 18.5158C10.7925 18.8619 11.6771 19.3565 12.5608 19.9997L14.3908 17.4219C13.3897 16.6301 12.3262 16.0249 11.1884 15.6105C10.0514 15.1901 8.77089 14.9858 7.34945 14.9858C6.38551 14.9858 5.50175 15.1158 4.69143 15.3876C3.88195 15.6535 3.18895 16.0367 2.60907 16.5373C2.0334 17.0319 1.57591 17.6312 1.2484 18.3242C0.914988 19.0163 0.754612 19.7895 0.754612 20.6421C0.754612 21.5452 0.896419 22.3117 1.18003 22.9422C1.47124 23.566 1.89075 24.1045 2.43519 24.5493C2.97962 24.9883 3.65911 25.3597 4.46268 25.6559C5.273 25.953 6.18799 26.2181 7.23212 26.4595C8.13529 26.6798 8.87134 26.8891 9.43941 27.0993C10.0016 27.2968 10.4472 27.5197 10.7747 27.7543C11.0963 27.9763 11.3192 28.2363 11.4365 28.5081C11.5597 28.7925 11.6214 29.1015 11.6214 29.4602C11.6214 30.214 11.3057 30.8082 10.6887 31.2531C10.0699 31.6979 9.23598 31.9207 8.17834 31.9207C6.96117 31.9207 5.87315 31.7105 4.90836 31.2649C3.94948 30.8327 2.99735 30.214 2.05113 29.3978L0 31.8346C1.16821 32.8855 2.43519 33.6773 3.80176 34.1837C5.16749 34.691 6.60159 34.9501 8.09815 34.9501C9.11275 34.9501 10.0463 34.8142 10.8988 34.5543C11.7454 34.2943 12.4756 33.9237 13.0749 33.4164C13.6801 32.9218 14.1502 32.3039 14.4904 31.5865C14.8297 30.869 14.9977 30.0409 14.9977 29.126C14.9977 28.3097 14.8669 27.6049 14.5959 26.9997C14.33 26.4029 13.9342 25.8712 13.415 25.4204C12.9018 24.9688 12.2401 24.5856 11.4551 24.2708C10.6701 23.9551 9.76691 23.6706 8.7481 23.4115C7.82045 23.1895 7.05993 22.9785 6.45472 22.7751C5.85542 22.5708 5.38526 22.3488 5.03244 22.1074C4.69227 21.866 4.45677 21.6128 4.32763 21.3342C4.19764 21.0557 4.13517 20.7222 4.13517 20.3331Z" fill="#393737"/>
<path fill-rule="evenodd" clip-rule="evenodd" d="M51.3848 29.9804H59.3783L61.3509 34.6668H64.9551L57.1161 16.73C56.548 18.0408 55.9783 19.3509 55.4161 20.6617L58.1366 26.9645H52.6897C52.2567 27.9648 51.8178 28.9785 51.3848 29.9804Z" fill="#393737"/>
<path fill-rule="evenodd" clip-rule="evenodd" d="M68.2803 34.6658H81.8633V31.5874H71.6625V15.2637H68.2803V34.6658Z" fill="#393737"/>
<path fill-rule="evenodd" clip-rule="evenodd" d="M99.8028 15.2637H85.4424V34.6658H99.9395V31.5874H88.8246V26.4039H98.5552V23.3247H88.8246V18.3361H99.8028V15.2637Z" fill="#393737"/>
<path fill-rule="evenodd" clip-rule="evenodd" d="M29.1729 31.8348C31.6452 32.8485 35.3051 32.6012 36.6472 29.9677C36.9933 29.2755 37.3394 28.5209 37.7049 27.6802C39.0765 24.5056 40.4431 21.3344 41.797 18.1572L44.1773 18.862L43.2809 15.1405L42.3853 11.4248L39.6159 14.0651L36.8464 16.6986L39.0343 17.3478L34.8991 26.815C33.6111 29.7575 32.3441 31.5621 29.1729 31.8348Z" fill="#393737"/>
<path fill-rule="evenodd" clip-rule="evenodd" d="M34.755 32.7867C31.176 33.7886 26.2424 32.639 23.6949 29.8442C23.1201 29.2137 22.682 28.4844 22.3663 27.6428C22.0506 26.8021 21.8962 25.8964 21.8962 24.9316C21.8962 23.9736 22.0506 23.0772 22.3663 22.2491C22.682 21.4143 23.1201 20.6909 23.6949 20.0731C24.2706 19.4484 24.9501 18.9597 25.7351 18.601C26.5201 18.2422 27.3726 18.0574 28.3011 18.0574C29.4077 18.0574 30.397 18.2794 31.2621 18.7242C32.1341 19.1699 32.9562 19.7506 33.7345 20.474L35.924 17.9451C35.4598 17.5062 34.9711 17.0977 34.4519 16.7279C33.9328 16.3633 33.3707 16.0417 32.7646 15.7758C32.1518 15.504 31.4841 15.2938 30.7489 15.152C30.0247 15.0035 29.2152 14.9292 28.3256 14.9292C26.8476 14.9292 25.4996 15.1892 24.2757 15.721C23.0576 16.246 22.0067 16.9634 21.1162 17.8784C20.2325 18.7934 19.5403 19.8629 19.0516 21.0809C18.5637 22.3048 18.3164 23.603 18.3164 24.9882C18.3164 26.3978 18.5696 27.7053 19.0702 28.9292C19.564 30.1531 20.2502 31.204 21.1348 32.1072C22.0067 32.9977 23.0509 33.7025 24.2512 34.2216C25.4506 34.7407 26.7606 35.0007 28.1888 35.0007C31.4175 34.9999 33.3268 34.2824 34.755 32.7867Z" fill="#393737"/>
<path fill-rule="evenodd" clip-rule="evenodd" d="M35.1514 34.1337C37.6304 35.1601 41.2904 34.9002 42.6257 32.2793C42.9786 31.5871 43.3179 30.8199 43.6834 29.9918C45.055 26.8138 49.6798 16.2771 51.0328 13.0991L53.414 13.8039L52.5176 10.0824L51.6212 6.3667L48.8517 9.00025L46.0823 11.6397L48.271 12.2829L40.8768 29.1258C39.5955 32.0564 38.3226 33.8746 35.1514 34.1337Z" fill="#393737"/>
<path fill-rule="evenodd" clip-rule="evenodd" d="M44.7158 34.6657C46.5087 34.5425 48.4745 33.5777 49.2038 31.8718C52.7768 23.4917 56.4739 15.115 60.0351 6.73833L62.4154 7.43639L61.5173 3.72157L60.6218 0L57.8523 2.63946L55.0829 5.27385L57.2775 5.92295L44.7158 34.6657Z" fill="#393737"/>
</g>
<defs>
<clipPath id="clip0_29_473">
<rect width="99.9397" height="35" fill="white"/>
</clipPath>
</defs>
</svg>
