<svg width="100" height="47" viewBox="0 0 100 47" fill="none" xmlns="http://www.w3.org/2000/svg">
<g clip-path="url(#clip0_29_497)">
<path d="M60.4665 7.57617C58.7018 8.14879 56.9127 8.71204 55.1376 9.31466C54.5613 9.51053 54.073 9.50772 53.4807 9.27061C49.3046 7.59585 45.3122 8.00915 41.7443 10.7598C38.1549 13.5273 36.6619 17.2873 37.2711 21.798C38.0883 27.8457 43.6093 32.2045 49.8229 31.7678C55.7506 31.3517 60.5612 26.2253 60.5996 20.2479C60.6249 16.3042 60.6071 12.3615 60.6043 8.41777C60.6033 8.16379 60.6614 7.89763 60.4665 7.57617ZM48.8707 25.5243C45.8454 25.514 43.3834 23.0548 43.3862 20.0464C43.39 17.0052 45.8857 14.5629 48.971 14.5826C52.0206 14.6023 54.2829 16.9462 54.2633 20.067C54.2436 23.2816 52.0168 25.5346 48.8707 25.5243Z" fill="#333333"/>
<path d="M22.8993 23.6829C24.4325 19.0139 23.3154 14.7984 19.726 11.4695C16.1047 8.11155 11.8274 7.45458 7.22108 9.25117C6.60629 9.49109 6.09458 9.51921 5.4826 9.3074C3.71131 8.69636 1.92128 8.13967 0.0975134 7.54736C0.0647118 7.79478 0.0300358 7.93536 0.0300358 8.07594C0.0290986 12.2483 -0.0505624 16.4225 0.0534655 20.5921C0.219348 27.2339 6.36262 32.5469 12.966 31.7306C17.8928 31.1214 21.3445 28.4185 22.8993 23.6829ZM11.7018 25.5217C8.59031 25.5161 6.34856 23.2415 6.35981 20.101C6.37105 16.9146 8.63249 14.5903 11.7261 14.5847C14.8001 14.5791 17.2668 17.0476 17.2471 20.1094C17.2293 23.1094 14.7523 25.5273 11.7018 25.5217Z" fill="#333333"/>
<path d="M92.5395 8.87061C90.7523 13.7468 88.9754 18.5958 87.101 23.7091C85.0589 18.5799 83.1189 13.7046 81.1996 8.88373C78.7048 8.88373 76.3196 8.88373 73.8623 8.88373C73.9766 9.16863 74.0554 9.38231 74.1481 9.59037C77.2765 16.594 80.4011 23.5995 83.5463 30.5956C83.7815 31.1195 83.7834 31.5506 83.5547 32.0735C82.7075 34.0088 81.9015 35.9619 81.0852 37.9113C80.6785 38.8831 80.283 39.8606 79.8472 40.9206C82.2548 40.9206 84.5069 40.9206 86.8592 40.9206C91.1937 30.2732 95.5395 19.5995 99.9077 8.87061C97.3661 8.87061 94.9697 8.87061 92.5395 8.87061Z" fill="#333333"/>
<path d="M30.8029 40.497C29.2444 40.573 27.818 40.2 26.5331 39.3115C24.6119 37.9816 23.7253 36.0707 23.5435 33.7905C21.4132 33.7905 19.3664 33.7905 17.1631 33.7905C17.4339 39.0706 19.7141 43.0406 24.3176 45.4032C29.3325 47.9767 34.2209 47.4107 38.6313 43.914C41.8393 41.3705 43.395 37.9376 43.4756 33.7905C41.2873 33.7905 39.2386 33.7905 37.2011 33.7905C36.174 38.155 34.0737 40.3387 30.8029 40.497Z" fill="#333333"/>
<path d="M64.9717 32.1034C67.0738 32.1034 69.115 32.1034 71.189 32.1034C71.189 21.3829 71.189 10.713 71.189 0C69.1075 0 67.0897 0 64.9717 0C64.9717 10.7346 64.9717 21.4054 64.9717 32.1034Z" fill="#333333"/>
<path d="M33.5513 8.87354C31.4126 8.87354 29.3208 8.87354 27.2178 8.87354C27.2178 16.6456 27.2178 24.3475 27.2178 32.0868C29.3939 32.0868 31.4642 32.0868 33.5513 32.0868C33.5513 24.3137 33.5513 16.6128 33.5513 8.87354Z" fill="#333333"/>
</g>
<defs>
<clipPath id="clip0_29_497">
<rect width="99.9071" height="47" fill="white"/>
</clipPath>
</defs>
</svg>
