<svg width="100" height="36" viewBox="0 0 100 36" fill="none" xmlns="http://www.w3.org/2000/svg">
<g clip-path="url(#clip0_29_447)">
<path fill-rule="evenodd" clip-rule="evenodd" d="M0 36.0001H18.0573V31.9086H4.4963V10.2031H0V36.0001Z" fill="#393737"/>
<path fill-rule="evenodd" clip-rule="evenodd" d="M20.8145 31.9087V36.0002H40.0881V31.9087H31.5645H25.3107H20.8145Z" fill="#393737"/>
<path fill-rule="evenodd" clip-rule="evenodd" d="M22.8115 20.9263V25.0168H27.3078H33.5616H41.9005V20.9263H33.5616H27.3078H22.8115Z" fill="#393737"/>
<path fill-rule="evenodd" clip-rule="evenodd" d="M45.2824 10.2031H26.1934V14.2936H30.6897H36.9434H45.2824V10.2031Z" fill="#393737"/>
<path fill-rule="evenodd" clip-rule="evenodd" d="M95.1898 23.1381C95.1898 24.4216 94.9746 25.6005 94.5451 26.6698C94.1147 27.744 93.5074 28.6711 92.7324 29.4462C91.9583 30.2262 91.0134 30.8274 89.9076 31.2638C88.7959 31.6933 87.5677 31.9086 86.2091 31.9086H81.1115V14.2936H86.2091C87.5667 14.2936 88.7959 14.5158 89.9076 14.9571C91.0134 15.4054 91.9583 16.0195 92.7324 16.8123C93.5065 17.5982 94.1147 18.5312 94.5451 19.6064C94.9746 20.6757 95.1898 21.8546 95.1898 23.1381ZM99.9438 23.0651C99.9438 21.2454 99.6121 19.5511 98.9486 17.9783C98.2851 16.4065 97.3452 15.043 96.1298 13.8878C94.9134 12.7336 93.464 11.8302 91.7816 11.1796C90.0982 10.5289 88.2499 10.2041 86.2348 10.2041H76.6162V36.001H86.2348C88.2489 36.001 90.0982 35.6683 91.7816 35.0058C93.464 34.3404 94.9134 33.432 96.1298 32.2778C97.3452 31.1236 98.2851 29.7532 98.9486 28.1686C99.6121 26.5829 99.9438 24.8817 99.9438 23.0651Z" fill="#393737"/>
<path fill-rule="evenodd" clip-rule="evenodd" d="M2.18262 6.86693C40.7921 -4.22077 55.9624 2.28573 67.4026 36.0001H72.1932C59.3431 -0.082875 43.6909 -7.47698 2.18262 6.86693Z" fill="#393737"/>
<path fill-rule="evenodd" clip-rule="evenodd" d="M54.568 14.7656L45.291 36.0001H49.9344C53.163 28.4214 54.3014 25.6559 57.3335 18.558C56.4459 17.1964 55.5257 15.9326 54.568 14.7656Z" fill="#393737"/>
<path fill-rule="evenodd" clip-rule="evenodd" d="M58.8483 26.9414C60.5633 26.9414 61.9545 28.3335 61.9545 30.0475C61.9545 31.7645 60.5633 33.1537 58.8483 33.1537C57.1333 33.1537 55.7432 31.7645 55.7432 30.0475C55.7432 28.3335 57.1333 26.9414 58.8483 26.9414Z" fill="#393737"/>
</g>
<defs>
<clipPath id="clip0_29_447">
<rect width="99.9434" height="36" fill="white"/>
</clipPath>
</defs>
</svg>
