<svg width="100" height="25" viewBox="0 0 100 25" fill="none" xmlns="http://www.w3.org/2000/svg">
<g clip-path="url(#clip0_29_462)">
<path d="M2.32177 5.52783H0V18.8523H2.32177V5.52783Z" fill="#393737"/>
<path fill-rule="evenodd" clip-rule="evenodd" d="M46.8604 12.2091C46.8604 12.8557 46.7483 13.469 46.527 14.0459C46.3047 14.6218 45.9976 15.124 45.6035 15.5483C45.2095 15.9726 44.7377 16.3091 44.186 16.5576C43.6324 16.8042 43.0272 16.9274 42.3684 16.9274C41.7076 16.9274 41.0994 16.8011 40.5407 16.5465C39.983 16.2929 39.5031 15.9514 39.104 15.52C38.7039 15.0886 38.3937 14.5824 38.1714 14.0065C37.9492 13.4286 37.838 12.8173 37.838 12.1687C37.838 11.5221 37.9492 10.9088 38.1714 10.3319C38.3937 9.75599 38.7009 9.25384 39.0939 8.8295C39.4879 8.40515 39.9608 8.06871 40.5124 7.82016C41.0651 7.57364 41.6713 7.45038 42.33 7.45038C42.9898 7.45038 43.599 7.57768 44.1577 7.83128C44.7154 8.08487 45.1943 8.42637 45.5944 8.8588C45.9945 9.29022 46.3057 9.79438 46.527 10.3723C46.7483 10.9492 46.8604 11.5605 46.8604 12.2091ZM49.3145 12.1697C49.3145 11.2311 49.1428 10.343 48.8003 9.50643C48.4578 8.66784 47.9829 7.93837 47.3727 7.31701C46.7634 6.69565 46.0339 6.20361 45.1842 5.8409C44.3335 5.4802 43.3939 5.29834 42.3674 5.29834C41.3389 5.29834 40.3992 5.48323 39.5495 5.851C38.6998 6.21877 37.9643 6.71788 37.3419 7.3453C36.7196 7.97374 36.2376 8.70725 35.8951 9.54381C35.5526 10.3804 35.3809 11.2705 35.3809 12.2091C35.3809 13.1477 35.5526 14.0358 35.8951 14.8724C36.2376 15.711 36.7135 16.4404 37.3227 17.0618C37.932 17.6842 38.6604 18.1752 39.5112 18.5359C40.3609 18.8986 41.3005 19.0784 42.328 19.0784C43.3565 19.0784 44.2951 18.8956 45.1448 18.5268C45.9956 18.159 46.7311 17.6599 47.3524 17.0325C47.9738 16.4041 48.4557 15.6706 48.7993 14.834C49.1428 13.9964 49.3145 13.1093 49.3145 12.1697Z" fill="#393737"/>
<path fill-rule="evenodd" clip-rule="evenodd" d="M56.795 15.7677L52.7799 5.52783H50.1914L55.7301 18.9472H57.7852L63.3239 5.52783H60.792L56.795 15.7677Z" fill="#393737"/>
<path fill-rule="evenodd" clip-rule="evenodd" d="M70.5938 5.43262H68.4235L62.5615 18.852H64.9601C67.0656 13.9104 67.1616 13.6205 69.4713 8.23128C71.8527 13.7427 71.7516 13.5406 73.9825 18.852H76.4568L70.5938 5.43262Z" fill="#393737"/>
<path fill-rule="evenodd" clip-rule="evenodd" d="M82.6616 7.69806H86.8869V5.52783H76.0752V7.69806H80.3015V18.8523H82.6616V7.69806Z" fill="#393737"/>
<path fill-rule="evenodd" clip-rule="evenodd" d="M89.3613 16.7376V18.8513H99.3153V16.7376H93.135H91.6831H89.3613ZM89.3613 11.0655V13.1792H91.6841H93.136H95.0243H98.3645H99.2213V11.0655H98.3645H95.0233H93.135H91.6831H89.3613ZM99.2203 5.52783H89.3613V7.64148H91.6841H93.136H99.2213V5.52783H99.2203Z" fill="#393737"/>
<path fill-rule="evenodd" clip-rule="evenodd" d="M30.5888 18.8522H32.5468V5.52776H30.224V14.7411C21.5027 3.45756 16.8279 -5.21222 0.539062 3.65357C16.1711 -4.48679 22.5373 8.44059 30.5888 18.8522Z" fill="#393737"/>
<path fill-rule="evenodd" clip-rule="evenodd" d="M15.5906 18.8523C22.2357 26.5178 30.7084 27.0149 41.0109 20.3446C21.0334 28.6163 18.3287 18.8028 8.06657 5.52783H5.90039V18.8523H8.22318V9.37321L14.1398 17.0235L15.143 18.3198C15.2916 18.5017 15.4401 18.6775 15.5906 18.8523Z" fill="#393737"/>
<path fill-rule="evenodd" clip-rule="evenodd" d="M17.5103 16.3719V5.52783H15.1885V13.5833C15.9634 14.5856 16.7293 15.5212 17.5103 16.3719Z" fill="#393737"/>
<path fill-rule="evenodd" clip-rule="evenodd" d="M20.9365 7.86963V18.8511H23.2593V10.4541C22.5026 9.54579 21.7317 8.6769 20.9365 7.86963Z" fill="#393737"/>
</g>
<defs>
<clipPath id="clip0_29_462">
<rect width="99.315" height="25" fill="white"/>
</clipPath>
</defs>
</svg>
