<svg width="32" height="32" viewBox="0 0 32 32" fill="none" xmlns="http://www.w3.org/2000/svg">
  <rect width="32" height="32" rx="6" fill="#52736C"/>
  <path d="M7 12.5C8.5 12.5 9.5 11 9.5 9.5C9.5 8 8.5 6.5 7 6.5C5.5 6.5 4.5 8 4.5 9.5C4.5 11 5.5 12.5 7 12.5Z" fill="white"/>
  <path d="M7 25.5C5.5 25.5 4.5 24 4.5 22.5C4.5 21 5.5 19.5 7 19.5C8.5 19.5 9.5 21 9.5 22.5C9.5 24 8.5 25.5 7 25.5Z" fill="white"/>
  <path d="M25 12.5C26.5 12.5 27.5 11 27.5 9.5C27.5 8 26.5 6.5 25 6.5C23.5 6.5 22.5 8 22.5 9.5C22.5 11 23.5 12.5 25 12.5Z" fill="white"/>
  <path d="M25 25.5C23.5 25.5 22.5 24 22.5 22.5C22.5 21 23.5 19.5 25 19.5C26.5 19.5 27.5 21 27.5 22.5C27.5 24 26.5 25.5 25 25.5Z" fill="white"/>
  <path d="M16 8.5C17.933 8.5 19.5 10.067 19.5 12C19.5 13.933 17.933 15.5 16 15.5C14.067 15.5 12.5 13.933 12.5 12C12.5 10.067 14.067 8.5 16 8.5Z" fill="white"/>
  <path d="M16 16.5C14.067 16.5 12.5 18.067 12.5 20C12.5 21.933 14.067 23.5 16 23.5C17.933 23.5 19.5 21.933 19.5 20C19.5 18.067 17.933 16.5 16 16.5Z" fill="white"/>
  <text x="16" y="28" font-family="Arial, sans-serif" font-size="8" font-weight="bold" text-anchor="middle" fill="white">GS</text>
</svg>
