<svg width="1920" height="1080" viewBox="0 0 1920 1080" xmlns="http://www.w3.org/2000/svg">
  <!-- Professional accounting background - Financial graphs theme -->
  <defs>
    <linearGradient id="grad1" x1="0%" y1="0%" x2="100%" y2="100%">
      <stop offset="0%" style="stop-color:#52736C;stop-opacity:0.95" />
      <stop offset="100%" style="stop-color:#87735E;stop-opacity:0.85" />
    </linearGradient>
    <pattern id="grid" width="60" height="60" patternUnits="userSpaceOnUse">
      <path d="M 60 0 L 0 0 0 60" fill="none" stroke="rgba(255,255,255,0.1)" stroke-width="1"/>
    </pattern>
  </defs>
  
  <!-- Background gradient -->
  <rect width="100%" height="100%" fill="url(#grad1)"/>
  
  <!-- Grid pattern -->
  <rect width="100%" height="100%" fill="url(#grid)"/>
  
  <!-- Financial chart elements -->
  <g opacity="0.15" fill="none" stroke="white" stroke-width="2">
    <!-- Chart lines -->
    <polyline points="200,800 350,650 500,700 650,550 800,600 950,450 1100,500 1250,350"/>
    <polyline points="200,900 350,850 500,750 650,800 800,650 950,700 1100,600 1250,650"/>
  </g>
  
  <!-- Abstract shapes -->
  <circle cx="1600" cy="200" r="150" fill="rgba(255,255,255,0.05)"/>
  <circle cx="300" cy="300" r="100" fill="rgba(255,255,255,0.03)"/>
  <rect x="1400" y="600" width="200" height="200" rx="20" fill="rgba(255,255,255,0.04)"/>
</svg>