<svg width="491" height="134" viewBox="0 0 491 134" fill="none" xmlns="http://www.w3.org/2000/svg">
<path d="M31.4403 24.9117C35.7354 24.9117 39.3433 21.3038 39.3433 17.0087C39.3433 12.7135 35.7354 9.10565 31.4403 9.10565C27.1451 9.10565 23.5372 12.7135 23.5372 17.0087C23.5372 21.3038 27.1451 24.9117 31.4403 24.9117ZM27.1451 80.7482C27.1451 81.9508 28.176 82.9816 29.3786 82.9816C30.5812 82.9816 31.6121 81.9508 31.6121 80.7482C31.6121 79.5456 30.5812 78.5147 29.3786 78.5147C28.176 78.5147 27.1451 79.5456 27.1451 80.7482ZM42.9512 34.8763C44.841 34.8763 46.2154 33.3301 46.2154 31.6121C46.2154 29.7222 44.6692 28.3478 42.9512 28.3478C41.0613 28.3478 39.6869 29.894 39.6869 31.6121C39.6869 33.3301 41.0613 34.8763 42.9512 34.8763ZM17.0087 64.5985C21.3038 64.5985 24.9117 60.9907 24.9117 56.6955C24.9117 52.4004 21.3038 48.7925 17.0087 48.7925C12.7135 48.7925 9.10565 52.4004 9.10565 56.6955C9.27745 60.9907 12.7135 64.5985 17.0087 64.5985ZM5.66955 46.0436C7.55941 46.0436 8.93384 44.4974 8.93384 42.7794C8.93384 40.8895 7.3876 39.5151 5.66955 39.5151C3.7797 39.5151 2.40527 41.0613 2.40527 42.7794C2.40527 44.6692 3.7797 46.0436 5.66955 46.0436ZM4.46692 53.2594C4.46692 52.0568 3.43609 51.026 2.23346 51.026C1.03083 51.026 0 52.0568 0 53.2594C0 54.4621 1.03083 55.4929 2.23346 55.4929C3.43609 55.4929 4.46692 54.4621 4.46692 53.2594ZM14.947 34.7045C18.0395 34.7045 20.4448 32.2993 20.4448 29.2068C20.4448 26.1143 18.0395 23.709 14.947 23.709C11.8545 23.709 9.44926 26.1143 9.44926 29.2068C9.44926 32.2993 11.8545 34.7045 14.947 34.7045ZM81.779 4.46692C82.9816 4.46692 84.0125 3.43609 84.0125 2.23346C84.0125 1.03083 82.9816 0 81.779 0C80.5764 0 79.5456 1.03083 79.5456 2.23346C79.5456 3.43609 80.5764 4.46692 81.779 4.46692ZM21.6474 79.8892C21.6474 74.5632 17.3523 70.2681 12.0263 70.2681C6.70038 70.2681 2.40527 74.5632 2.40527 79.8892C2.40527 85.2151 6.70038 89.5102 12.0263 89.5102C17.3523 89.5102 21.6474 85.2151 21.6474 79.8892ZM118.03 39.3433C122.325 39.3433 125.933 35.7354 125.933 31.4403C125.933 27.1451 122.325 23.5372 118.03 23.5372C113.735 23.5372 110.127 27.1451 110.127 31.4403C110.127 35.7354 113.563 39.3433 118.03 39.3433ZM100.334 93.6335C100.334 96.726 102.739 99.1313 105.832 99.1313C108.924 99.1313 111.329 96.726 111.329 93.6335C111.329 90.5411 108.924 88.1358 105.832 88.1358C102.739 88.1358 100.334 90.5411 100.334 93.6335ZM105.832 20.4448C108.924 20.4448 111.329 18.0395 111.329 14.947C111.329 11.8545 108.924 9.44926 105.832 9.44926C102.739 9.44926 100.334 11.8545 100.334 14.947C100.334 18.0395 102.739 20.4448 105.832 20.4448ZM93.6335 34.7045C96.726 34.7045 99.1313 32.2993 99.1313 29.2068C99.1313 26.1143 96.726 23.709 93.6335 23.709C90.541 23.709 88.1358 26.1143 88.1358 29.2068C88.1358 32.2993 90.541 34.7045 93.6335 34.7045ZM113.391 54.1185C113.391 59.4444 117.686 63.7395 123.012 63.7395C128.338 63.7395 132.633 59.4444 132.633 54.1185C132.633 48.7925 128.338 44.4974 123.012 44.4974C117.686 44.4974 113.391 48.7925 113.391 54.1185ZM107.893 53.2594C107.893 52.0568 106.862 51.026 105.66 51.026C104.457 51.026 103.426 52.0568 103.426 53.2594C103.426 54.4621 104.457 55.4929 105.66 55.4929C106.862 55.4929 107.893 54.4621 107.893 53.2594ZM92.0873 8.76204C93.9772 8.76204 95.3516 7.2158 95.3516 5.49775C95.3516 3.7797 93.8053 2.23346 92.0873 2.23346C90.1974 2.23346 88.823 3.7797 88.823 5.49775C88.823 7.2158 90.3693 8.76204 92.0873 8.76204ZM102.396 46.0436C104.285 46.0436 105.66 44.4974 105.66 42.7794C105.66 40.8895 104.114 39.5151 102.396 39.5151C100.678 39.5151 99.1313 41.0613 99.1313 42.7794C99.1313 44.6692 100.678 46.0436 102.396 46.0436ZM34.7045 40.3741C34.7045 37.2816 32.2993 34.8763 29.2068 34.8763C26.1143 34.8763 23.709 37.2816 23.709 40.3741C23.709 43.4666 26.1143 45.8718 29.2068 45.8718C32.2993 45.8718 34.7045 43.4666 34.7045 40.3741ZM92.0873 99.1313C90.1974 99.1313 88.823 100.678 88.823 102.396C88.823 104.285 90.3693 105.66 92.0873 105.66C93.9772 105.66 95.3516 104.114 95.3516 102.396C95.3516 100.678 93.9772 99.1313 92.0873 99.1313ZM80.92 112.36C75.594 112.36 71.2989 116.655 71.2989 121.981C71.2989 127.307 75.594 131.602 80.92 131.602C86.2459 131.602 90.5411 127.307 90.5411 121.981C90.5411 116.655 86.2459 112.36 80.92 112.36ZM103.598 109.096C99.3031 109.096 95.6952 112.704 95.6952 116.999C95.6952 121.294 99.3031 124.902 103.598 124.902C107.893 124.902 111.501 121.294 111.501 116.999C111.501 112.704 107.893 109.096 103.598 109.096ZM79.5456 105.66C79.5456 106.862 80.5764 107.893 81.779 107.893C82.9816 107.893 84.0125 106.862 84.0125 105.66C84.0125 104.457 82.9816 103.426 81.779 103.426C80.5764 103.598 79.5456 104.457 79.5456 105.66ZM132.805 78.5147C131.602 78.5147 130.572 79.5456 130.572 80.7482C130.572 81.9508 131.602 82.9816 132.805 82.9816C134.008 82.9816 135.038 81.9508 135.038 80.7482C135.038 79.5456 133.836 78.5147 132.805 78.5147ZM129.369 87.964C127.479 87.964 126.105 89.5102 126.105 91.2283C126.105 93.1181 127.651 94.4926 129.369 94.4926C131.259 94.4926 132.633 92.9463 132.633 91.2283C132.633 89.3384 131.259 87.964 129.369 87.964ZM77.3121 24.9117C81.6072 24.9117 85.2151 21.3038 85.2151 17.0087C85.2151 12.7135 81.6072 9.10565 77.3121 9.10565C73.017 9.10565 69.4091 12.7135 69.4091 17.0087C69.4091 21.3038 73.017 24.9117 77.3121 24.9117ZM118.03 69.4091C113.735 69.4091 110.127 73.017 110.127 77.3121C110.127 81.6072 113.735 85.2151 118.03 85.2151C122.325 85.2151 125.933 81.6072 125.933 77.3121C125.761 73.017 122.325 69.4091 118.03 69.4091ZM17.0087 94.6644C12.7135 94.6644 9.10565 98.2723 9.10565 102.567C9.10565 106.862 12.7135 110.47 17.0087 110.47C21.3038 110.47 24.9117 106.862 24.9117 102.567C24.9117 98.2723 21.4756 94.6644 17.0087 94.6644ZM120.091 99.3031C116.999 99.3031 114.594 101.708 114.594 104.801C114.594 107.893 116.999 110.299 120.091 110.299C123.184 110.299 125.589 107.893 125.589 104.801C125.589 101.708 123.184 99.3031 120.091 99.3031ZM32.6429 87.964C30.753 87.964 29.3786 89.5102 29.3786 91.2283C29.3786 93.1181 30.9248 94.4926 32.6429 94.4926C34.3609 94.4926 35.9072 92.9463 35.9072 91.2283C35.9072 89.3384 34.3609 87.964 32.6429 87.964ZM41.4049 99.3031C38.3124 99.3031 35.9072 101.708 35.9072 104.801C35.9072 107.893 38.3124 110.299 41.4049 110.299C44.4974 110.299 46.9027 107.893 46.9027 104.801C46.9027 101.708 44.4974 99.3031 41.4049 99.3031ZM42.9512 125.246C41.0613 125.246 39.6869 126.792 39.6869 128.51C39.6869 130.228 41.2331 131.774 42.9512 131.774C44.841 131.774 46.2154 130.228 46.2154 128.51C46.2154 126.792 44.6692 125.246 42.9512 125.246ZM29.2068 113.563C26.1143 113.563 23.709 115.968 23.709 119.061C23.709 122.153 26.1143 124.558 29.2068 124.558C32.2993 124.558 34.7045 122.153 34.7045 119.061C34.7045 115.968 32.2993 113.563 29.2068 113.563ZM51.1978 28.3478C51.1978 29.5504 52.2286 30.5812 53.4312 30.5812C54.6339 30.5812 55.6647 29.5504 55.6647 28.3478C55.6647 27.1451 54.6339 26.1143 53.4312 26.1143C52.0568 26.1143 51.1978 27.1451 51.1978 28.3478ZM63.7395 11.8545C63.7395 6.52858 59.4444 2.23346 54.1185 2.23346C48.7925 2.23346 44.4974 6.52858 44.4974 11.8545C44.4974 17.1805 48.7925 21.4756 54.1185 21.4756C59.4444 21.6474 63.7395 17.3523 63.7395 11.8545ZM53.2594 129.541C52.0568 129.541 51.026 130.572 51.026 131.774C51.026 132.977 52.0568 134.008 53.2594 134.008C54.4621 134.008 55.4929 132.977 55.4929 131.774C55.4929 130.572 54.4621 129.541 53.2594 129.541ZM57.7264 109.096C53.4312 109.096 49.8233 112.704 49.8233 116.999C49.8233 121.294 53.4312 124.902 57.7264 124.902C62.0215 124.902 65.6294 121.294 65.6294 116.999C65.6294 112.704 62.0215 109.096 57.7264 109.096Z" fill="white"/>
<path d="M180.27 42.4922C187.031 42.661 194.287 42.661 200.801 42.4922V45.108L198.904 45.4456C195.441 46.0362 195.771 49.749 195.771 55.74C195.771 58.0183 195.854 60.4654 196.101 62.9124L197.585 63.0812C198.245 63.1655 198.41 63.5031 198.41 64.0094V66.1189C196.925 65.8657 195.359 65.8657 194.287 65.8657C187.031 65.8657 184.805 68.5659 175.982 68.5659C161.883 68.5659 151.659 57.0901 151.659 40.889C151.659 25.3629 161.718 13.634 175.57 13.634C181.507 13.634 183.486 15.406 188.35 15.406C189.257 15.406 189.917 15.406 191.484 15.0685C192.226 19.8782 193.38 24.5191 195.524 29.582H190.659C187.278 21.6502 182.249 16.6717 174.663 16.6717C167.902 16.6717 161.965 22.7471 161.965 38.5263C161.965 53.968 168.314 65.5282 176.972 65.5282C186.371 65.5282 186.784 61.8154 186.784 51.8585C186.784 46.9644 186.949 45.7831 182.661 45.3612L180.27 45.108V42.4922ZM230.979 56.6682C230.979 51.0147 226.609 47.977 219.6 44.6018C211.849 40.889 205.088 36.67 205.088 27.6412C205.088 19.5406 211.437 13.634 220.589 13.634C226.773 13.634 229 15.5747 230.979 15.5747C231.886 15.5747 232.545 15.406 232.875 14.309H235.596L236.173 25.9536L234.524 25.8692C233.37 25.7848 232.875 25.4473 232.298 24.266C230.236 19.5406 226.279 16.6717 221.744 16.6717C216.549 16.6717 213.581 20.3001 213.581 24.5191C213.581 29.8351 217.209 32.4509 223.393 35.4042C229.907 38.6107 240.296 42.4922 240.296 53.3774C240.296 63.4187 231.226 68.4815 223.558 68.4815C216.467 68.4815 213.169 65.2751 210.778 65.2751C209.129 65.2751 208.469 66.2876 208.222 67.3002H205.253L204.511 55.065H206.902C207.892 55.065 208.386 55.4025 208.799 56.4995C210.695 61.5623 215.56 65.2751 221.909 65.2751C227.433 65.2751 230.979 61.8154 230.979 56.6682ZM287.047 13.634C300.981 13.634 310.958 25.1098 310.958 41.3109C310.958 56.9214 301.146 68.5659 287.294 68.5659C273.359 68.5659 263.383 57.0901 263.383 40.889C263.383 25.1942 273.195 13.634 287.047 13.634ZM288.366 65.5282C294.962 65.5282 300.651 59.3684 300.651 43.5892C300.651 28.1475 294.55 16.6717 285.727 16.6717C279.379 16.6717 273.689 22.7471 273.689 38.5263C273.689 53.968 279.791 65.5282 288.366 65.5282ZM354.988 61.5623C354.988 63.6718 357.214 64.3469 360.018 64.6844V67.3846C353.586 67.1314 347.155 67.1314 340.641 67.3846V64.6844C343.445 64.4313 345.671 63.6718 345.671 61.5623V39.117C345.671 32.7884 344.764 28.5694 340.476 28.5694C334.787 28.5694 330.335 35.2355 329.428 37.0075V61.5623C329.428 63.6718 331.654 64.4313 334.457 64.6844V67.3846C328.026 67.1314 321.595 67.1314 315.163 67.3846V64.6844C317.884 64.3469 320.11 63.6718 320.11 61.5623V34.6448C320.11 31.6915 318.296 31.0164 315.081 31.4383V28.7382C322.337 27.3881 325.552 24.0972 327.449 24.0972C328.85 24.0972 329.592 25.1098 329.428 26.713L328.686 33.7166C330.417 31.0164 335.364 24.3504 343.032 24.3504C349.711 24.3504 354.988 27.2193 354.988 38.9482V61.5623ZM375.107 59.3684C375.107 62.4061 376.921 63.0812 380.136 62.7436V65.2751C372.963 66.9627 369.912 68.3972 367.851 68.3972C366.449 68.3972 365.872 67.7221 365.872 66.0345V19.625C365.872 16.6717 364.058 15.9123 360.842 16.4186V13.7184C368.098 12.3683 371.149 9.07742 373.128 9.07742C374.529 9.07742 375.107 9.83685 375.107 11.5245V59.3684ZM393.329 18.4437C390.608 18.4437 388.299 16.1654 388.299 13.3808C388.299 10.5963 390.608 8.31799 393.329 8.31799C395.967 8.31799 398.276 10.5963 398.276 13.3808C398.276 16.1654 395.967 18.4437 393.329 18.4437ZM398.606 61.5623C398.606 63.6718 400.832 64.3469 403.635 64.6844V67.3846C397.204 67.1314 390.773 67.1314 384.341 67.3846V64.6844C387.062 64.3469 389.289 63.6718 389.289 61.5623V34.3073C389.289 31.354 387.475 30.5945 384.259 30.7633V28.1475C391.845 26.9662 394.895 24.1816 396.874 24.1816C398.193 24.1816 399.1 24.8566 399.1 26.3755C399.1 29.1601 398.606 32.2822 398.606 37.5138V61.5623ZM446.429 61.5623C446.429 63.6718 448.655 64.3469 451.458 64.6844V67.3846C445.027 67.1314 438.596 67.1314 432.082 67.3846V64.6844C434.885 64.4313 437.111 63.6718 437.111 61.5623V39.117C437.111 32.7884 436.204 28.5694 431.917 28.5694C426.228 28.5694 421.775 35.2355 420.868 37.0075V61.5623C420.868 63.6718 423.094 64.4313 425.898 64.6844V67.3846C419.466 67.1314 413.035 67.1314 406.604 67.3846V64.6844C409.325 64.3469 411.551 63.6718 411.551 61.5623V34.6448C411.551 31.6915 409.737 31.0164 406.521 31.4383V28.7382C413.777 27.3881 416.993 24.0972 418.889 24.0972C420.291 24.0972 421.033 25.1098 420.868 26.713L420.126 33.7166C421.858 31.0164 426.805 24.3504 434.473 24.3504C441.152 24.3504 446.429 27.2193 446.429 38.9482V61.5623ZM487.573 58.1027C488.397 58.1027 488.727 58.9465 488.15 60.0435C485.924 64.7688 481.471 68.2284 474.298 68.2284C463.249 68.2284 454.344 60.5497 454.344 46.205C454.344 32.1978 463.579 24.4347 473.308 24.4347C482.79 24.4347 490.294 31.1852 490.294 41.8172C490.294 45.0237 489.057 47.1332 485.841 47.1332H464.238C464.321 57.7652 468.031 65.3594 475.535 65.3594C479.74 65.3594 482.708 63.5031 484.852 59.3684C485.264 58.609 485.511 58.1027 486.418 58.1027H487.573ZM481.224 43.9267C481.224 33.5479 478.998 27.3037 473.308 27.3037C467.454 27.3037 464.321 33.5479 464.238 43.9267H481.224Z" fill="white"/>
<path d="M175.199 116.043C175.199 111.949 171.998 109.75 166.865 107.305C161.189 104.617 156.236 101.562 156.236 95.0237C156.236 89.1578 160.887 84.8805 167.59 84.8805C172.119 84.8805 173.75 86.2859 175.199 86.2859C175.863 86.2859 176.347 86.1637 176.588 85.3693H178.581L179.004 93.8016L177.796 93.7405C176.95 93.6794 176.588 93.435 176.165 92.5795C174.656 89.1578 171.757 87.0802 168.435 87.0802C164.631 87.0802 162.457 89.7077 162.457 92.7629C162.457 96.6124 165.114 98.5066 169.643 100.645C174.414 102.967 182.023 105.778 182.023 113.66C182.023 120.932 175.38 124.598 169.764 124.598C164.57 124.598 162.155 122.276 160.403 122.276C159.196 122.276 158.712 123.009 158.531 123.742H156.357L155.814 114.882H157.565C158.29 114.882 158.652 115.127 158.954 115.921C160.343 119.587 163.906 122.276 168.556 122.276C172.602 122.276 175.199 119.771 175.199 116.043ZM199.355 92.7017C206.3 92.7017 213.487 97.9566 213.487 108.222C213.487 118.793 206.3 124.414 199.476 124.414C192.531 124.414 185.345 118.793 185.345 108.711C185.345 97.9566 192.531 92.7017 199.355 92.7017ZM206.059 109.994C206.059 100.89 203.16 94.7793 198.51 94.7793C194.826 94.7793 192.773 98.751 192.773 106.939C192.773 116.104 195.672 122.337 200.261 122.337C204.005 122.337 206.059 118.243 206.059 109.994ZM225.444 117.999C225.444 120.198 226.773 120.687 229.128 120.443V122.276C223.874 123.498 221.64 124.537 220.13 124.537C219.103 124.537 218.68 124.048 218.68 122.826V89.2189C218.68 87.0802 217.352 86.5303 214.997 86.8969V84.9416C220.311 83.964 222.545 81.5809 223.995 81.5809C225.021 81.5809 225.444 82.1309 225.444 83.3529V117.999ZM259.021 117.326C259.021 119.465 260.35 119.954 262.705 119.587V121.481C257.391 122.765 255.156 124.537 253.707 124.537C252.62 124.537 252.076 123.742 252.197 122.52L252.801 117.143C251.473 119.16 248.091 124.659 242.474 124.659C237.643 124.659 233.476 122.337 233.476 113.844V97.7122C233.476 96.1846 232.993 95.5736 231.785 95.6347L229.973 95.6958V93.6183L238.791 92.9462C239.636 92.8851 240.3 93.3128 240.3 94.2904V113.599C240.3 118.182 240.965 121.481 244.346 121.481C248.634 121.481 251.533 115.799 252.197 114.393V97.7122C252.197 96.1846 251.714 95.5736 250.506 95.6347L248.695 95.6958V93.6183L257.451 92.9462C258.417 92.8851 259.021 93.3128 259.021 94.2904V117.326ZM281.366 122.031C280.218 123.131 277.984 124.231 275.508 124.231C270.918 124.231 267.778 121.848 267.778 115.799V95.4514H265.181C264.758 95.4514 264.517 95.1459 264.517 94.7182V93.8627C264.517 93.435 264.758 93.1906 265.181 93.1906C269.288 93.1906 270.979 90.2576 271.643 84.8805H274.602V93.1906H280.762C281.185 93.1906 281.426 93.435 281.426 93.8627V94.7182C281.426 95.1459 281.185 95.4514 280.762 95.4514H274.602V116.96C274.602 119.404 275.146 121.543 277.622 121.543C279.252 121.543 280.641 120.504 281.366 119.587V122.031ZM291.089 88.3634C289.096 88.3634 287.405 86.7136 287.405 84.6972C287.405 82.6808 289.096 81.031 291.089 81.031C293.021 81.031 294.712 82.6808 294.712 84.6972C294.712 86.7136 293.021 88.3634 291.089 88.3634ZM294.954 119.587C294.954 121.115 296.584 121.604 298.638 121.848V123.803C293.927 123.62 289.217 123.62 284.506 123.803V121.848C286.499 121.604 288.13 121.115 288.13 119.587V99.8508C288.13 97.7122 286.801 97.1623 284.446 97.2845V95.3903C290.002 94.5349 292.236 92.5184 293.686 92.5184C294.652 92.5184 295.316 93.0073 295.316 94.1071C295.316 96.1235 294.954 98.3844 294.954 102.173V119.587ZM315.668 92.7017C322.613 92.7017 329.799 97.9566 329.799 108.222C329.799 118.793 322.613 124.414 315.789 124.414C308.844 124.414 301.657 118.793 301.657 108.711C301.657 97.9566 308.844 92.7017 315.668 92.7017ZM322.371 109.994C322.371 100.89 319.472 94.7793 314.822 94.7793C311.139 94.7793 309.085 98.751 309.085 106.939C309.085 116.104 311.984 122.337 316.574 122.337C320.318 122.337 322.371 118.243 322.371 109.994ZM361.746 119.587C361.746 121.115 363.376 121.604 365.43 121.848V123.803C360.719 123.62 356.009 123.62 351.238 123.803V121.848C353.291 121.665 354.922 121.115 354.922 119.587V103.334C354.922 98.751 354.257 95.6958 351.117 95.6958C346.95 95.6958 343.689 100.523 343.025 101.806V119.587C343.025 121.115 344.655 121.665 346.709 121.848V123.803C341.998 123.62 337.288 123.62 332.577 123.803V121.848C334.57 121.604 336.201 121.115 336.201 119.587V100.095C336.201 97.9566 334.872 97.4678 332.517 97.7733V95.818C337.831 94.8404 340.186 92.4573 341.575 92.4573C342.602 92.4573 343.146 93.1906 343.025 94.3515L342.481 99.4231C343.749 97.4678 347.373 92.6406 352.989 92.6406C357.881 92.6406 361.746 94.7182 361.746 103.212V119.587ZM389.948 115.432C389.948 120.748 384.876 124.537 380.346 124.537C376.3 124.537 374.066 122.398 372.254 122.398C371.408 122.398 370.925 122.887 370.865 123.742H368.932L368.208 115.432H369.174C369.959 115.432 370.623 115.554 370.865 116.41C371.771 119.771 376.36 122.581 379.561 122.581C382.339 122.581 384.09 120.687 384.09 118.121C384.09 114.821 381.252 113.416 377.085 111.277C372.858 109.139 368.147 106.328 368.147 100.951C368.147 96.3069 372.073 92.7017 377.266 92.7017C381.252 92.7017 382.581 94.4126 384.151 94.4126C384.936 94.4126 385.419 93.9849 385.6 93.1906H387.593L388.137 101.195H387.11C386.325 101.195 385.902 100.951 385.54 100.217C384.03 96.7957 380.95 94.5349 378.172 94.5349C375.394 94.5349 373.764 96.5513 373.764 98.8732C373.764 101.745 375.877 103.15 379.32 104.861C383.124 106.694 389.948 109.505 389.948 115.432ZM432.765 113.782H435C433.792 117.326 433.309 120.504 433.128 123.803C423.707 123.62 415.131 123.62 406.073 123.803V121.726C409.334 121.481 410.36 121.054 410.36 119.526V90.0743C410.36 88.5467 409.213 88.0579 405.952 87.8135V85.8582C411.145 86.0415 416.641 86.0415 421.835 85.8582V87.8135C418.634 88.0579 417.486 88.5467 417.486 90.0743V120.809C417.486 121.237 417.728 121.543 418.211 121.543H423.586C427.632 121.543 429.504 120.565 430.833 117.815L432.765 113.782ZM453.962 122.031C452.815 123.131 450.581 124.231 448.105 124.231C443.515 124.231 440.375 121.848 440.375 115.799V95.4514H437.778C437.355 95.4514 437.113 95.1459 437.113 94.7182V93.8627C437.113 93.435 437.355 93.1906 437.778 93.1906C441.884 93.1906 443.575 90.2576 444.24 84.8805H447.199V93.1906H453.359C453.781 93.1906 454.023 93.435 454.023 93.8627V94.7182C454.023 95.1459 453.781 95.4514 453.359 95.4514H447.199V116.96C447.199 119.404 447.742 121.543 450.218 121.543C451.849 121.543 453.238 120.504 453.962 119.587V122.031ZM483.494 117.021C483.494 119.221 484.822 119.648 487.177 119.282V121.481C481.923 122.765 479.689 124.537 478.179 124.537C477.153 124.537 476.549 123.803 476.669 122.581L477.092 119.221C476.247 121.604 473.891 124.414 469 124.414C462.478 124.414 455.835 118.915 455.835 108.283C455.835 98.14 462.659 92.7017 468.819 92.7017C472.865 92.7017 475.22 94.9015 476.669 96.9179V89.28C476.669 87.1413 475.341 86.5303 472.986 86.8358V84.8194C478.3 83.8418 480.655 81.5809 482.104 81.5809C483.071 81.5809 483.494 82.1309 483.494 83.3529V117.021ZM470.691 122.276C474.193 122.276 476.307 118.793 476.669 115.86V99.3009C475.22 97.1623 472.865 94.7793 469.845 94.7793C465.376 94.7793 463.202 98.9954 463.202 106.878C463.202 115.31 465.98 122.276 470.691 122.276Z" fill="white"/>
</svg>
