<svg width="655" height="89" viewBox="0 0 655 89" fill="none" xmlns="http://www.w3.org/2000/svg">
<path d="M20.8808 16.5449C23.7333 16.5449 26.1295 14.1487 26.1295 11.2962C26.1295 8.44359 23.7333 6.04744 20.8808 6.04744C18.0282 6.04744 15.6321 8.44359 15.6321 11.2962C15.6321 14.1487 18.0282 16.5449 20.8808 16.5449ZM18.0282 53.6282C18.0282 54.4269 18.7128 55.1115 19.5115 55.1115C20.3103 55.1115 20.9949 54.4269 20.9949 53.6282C20.9949 52.8295 20.3103 52.1449 19.5115 52.1449C18.7128 52.1449 18.0282 52.8295 18.0282 53.6282ZM28.5256 23.1628C29.7808 23.1628 30.6936 22.1359 30.6936 20.9949C30.6936 19.7397 29.6667 18.8269 28.5256 18.8269C27.2705 18.8269 26.3577 19.8538 26.3577 20.9949C26.3577 22.1359 27.2705 23.1628 28.5256 23.1628ZM11.2962 42.9026C14.1487 42.9026 16.5449 40.5064 16.5449 37.6538C16.5449 34.8013 14.1487 32.4051 11.2962 32.4051C8.44359 32.4051 6.04744 34.8013 6.04744 37.6538C6.16154 40.5064 8.44359 42.9026 11.2962 42.9026ZM3.76538 30.5795C5.02051 30.5795 5.93333 29.5526 5.93333 28.4115C5.93333 27.1564 4.90641 26.2436 3.76538 26.2436C2.51026 26.2436 1.59744 27.2705 1.59744 28.4115C1.59744 29.6667 2.51026 30.5795 3.76538 30.5795ZM2.96667 35.3718C2.96667 34.5731 2.28205 33.8885 1.48333 33.8885C0.684616 33.8885 0 34.5731 0 35.3718C0 36.1705 0.684616 36.8551 1.48333 36.8551C2.28205 36.8551 2.96667 36.1705 2.96667 35.3718ZM9.92692 23.0487C11.9808 23.0487 13.5782 21.4513 13.5782 19.3974C13.5782 17.3436 11.9808 15.7462 9.92692 15.7462C7.87308 15.7462 6.27564 17.3436 6.27564 19.3974C6.27564 21.4513 7.87308 23.0487 9.92692 23.0487ZM54.3128 2.96667C55.1115 2.96667 55.7962 2.28205 55.7962 1.48333C55.7962 0.684616 55.1115 0 54.3128 0C53.5141 0 52.8295 0.684616 52.8295 1.48333C52.8295 2.28205 53.5141 2.96667 54.3128 2.96667ZM14.3769 53.0577C14.3769 49.5205 11.5244 46.6679 7.98718 46.6679C4.45 46.6679 1.59744 49.5205 1.59744 53.0577C1.59744 56.5949 4.45 59.4474 7.98718 59.4474C11.5244 59.4474 14.3769 56.5949 14.3769 53.0577ZM78.3885 26.1295C81.241 26.1295 83.6372 23.7333 83.6372 20.8808C83.6372 18.0282 81.241 15.6321 78.3885 15.6321C75.5359 15.6321 73.1398 18.0282 73.1398 20.8808C73.1398 23.7333 75.4218 26.1295 78.3885 26.1295ZM66.6359 62.1859C66.6359 64.2397 68.2333 65.8372 70.2872 65.8372C72.341 65.8372 73.9385 64.2397 73.9385 62.1859C73.9385 60.1321 72.341 58.5346 70.2872 58.5346C68.2333 58.5346 66.6359 60.1321 66.6359 62.1859ZM70.2872 13.5782C72.341 13.5782 73.9385 11.9808 73.9385 9.92692C73.9385 7.87308 72.341 6.27564 70.2872 6.27564C68.2333 6.27564 66.6359 7.87308 66.6359 9.92692C66.6359 11.9808 68.2333 13.5782 70.2872 13.5782ZM62.1859 23.0487C64.2397 23.0487 65.8372 21.4513 65.8372 19.3974C65.8372 17.3436 64.2397 15.7462 62.1859 15.7462C60.132 15.7462 58.5346 17.3436 58.5346 19.3974C58.5346 21.4513 60.132 23.0487 62.1859 23.0487ZM75.3077 35.9423C75.3077 39.4795 78.1603 42.3321 81.6974 42.3321C85.2346 42.3321 88.0872 39.4795 88.0872 35.9423C88.0872 32.4051 85.2346 29.5526 81.6974 29.5526C78.1603 29.5526 75.3077 32.4051 75.3077 35.9423ZM71.6564 35.3718C71.6564 34.5731 70.9718 33.8885 70.1731 33.8885C69.3744 33.8885 68.6897 34.5731 68.6897 35.3718C68.6897 36.1705 69.3744 36.8551 70.1731 36.8551C70.9718 36.8551 71.6564 36.1705 71.6564 35.3718ZM61.159 5.81923C62.4141 5.81923 63.3269 4.79231 63.3269 3.65128C63.3269 2.51026 62.3 1.48333 61.159 1.48333C59.9039 1.48333 58.991 2.51026 58.991 3.65128C58.991 4.79231 60.018 5.81923 61.159 5.81923ZM68.0051 30.5795C69.2603 30.5795 70.1731 29.5526 70.1731 28.4115C70.1731 27.1564 69.1462 26.2436 68.0051 26.2436C66.8641 26.2436 65.8372 27.2705 65.8372 28.4115C65.8372 29.6667 66.8641 30.5795 68.0051 30.5795ZM23.0487 26.8141C23.0487 24.7603 21.4513 23.1628 19.3974 23.1628C17.3436 23.1628 15.7462 24.7603 15.7462 26.8141C15.7462 28.8679 17.3436 30.4654 19.3974 30.4654C21.4513 30.4654 23.0487 28.8679 23.0487 26.8141ZM61.159 65.8372C59.9039 65.8372 58.991 66.8641 58.991 68.0051C58.991 69.2603 60.018 70.1731 61.159 70.1731C62.4141 70.1731 63.3269 69.1462 63.3269 68.0051C63.3269 66.8641 62.4141 65.8372 61.159 65.8372ZM53.7423 74.6231C50.2051 74.6231 47.3526 77.4756 47.3526 81.0128C47.3526 84.55 50.2051 87.4026 53.7423 87.4026C57.2795 87.4026 60.1321 84.55 60.1321 81.0128C60.1321 77.4756 57.2795 74.6231 53.7423 74.6231ZM68.8038 72.4551C65.9513 72.4551 63.5551 74.8513 63.5551 77.7038C63.5551 80.5564 65.9513 82.9526 68.8038 82.9526C71.6564 82.9526 74.0526 80.5564 74.0526 77.7038C74.0526 74.8513 71.6564 72.4551 68.8038 72.4551ZM52.8295 70.1731C52.8295 70.9718 53.5141 71.6564 54.3128 71.6564C55.1115 71.6564 55.7962 70.9718 55.7962 70.1731C55.7962 69.3744 55.1115 68.6897 54.3128 68.6897C53.5141 68.8038 52.8295 69.3744 52.8295 70.1731ZM88.2013 52.1449C87.4026 52.1449 86.7179 52.8295 86.7179 53.6282C86.7179 54.4269 87.4026 55.1115 88.2013 55.1115C89 55.1115 89.6846 54.4269 89.6846 53.6282C89.6846 52.8295 88.8859 52.1449 88.2013 52.1449ZM85.9192 58.4205C84.6641 58.4205 83.7513 59.4474 83.7513 60.5885C83.7513 61.8436 84.7782 62.7564 85.9192 62.7564C87.1744 62.7564 88.0872 61.7295 88.0872 60.5885C88.0872 59.3333 87.1744 58.4205 85.9192 58.4205ZM51.3462 16.5449C54.1987 16.5449 56.5949 14.1487 56.5949 11.2962C56.5949 8.44359 54.1987 6.04744 51.3462 6.04744C48.4936 6.04744 46.0974 8.44359 46.0974 11.2962C46.0974 14.1487 48.4936 16.5449 51.3462 16.5449ZM78.3885 46.0974C75.5359 46.0974 73.1398 48.4936 73.1398 51.3462C73.1398 54.1987 75.5359 56.5949 78.3885 56.5949C81.241 56.5949 83.6372 54.1987 83.6372 51.3462C83.5231 48.4936 81.241 46.0974 78.3885 46.0974ZM11.2962 62.8705C8.44359 62.8705 6.04744 65.2667 6.04744 68.1192C6.04744 70.9718 8.44359 73.368 11.2962 73.368C14.1487 73.368 16.5449 70.9718 16.5449 68.1192C16.5449 65.2667 14.2628 62.8705 11.2962 62.8705ZM79.7577 65.9513C77.7038 65.9513 76.1064 67.5487 76.1064 69.6026C76.1064 71.6564 77.7038 73.2538 79.7577 73.2538C81.8115 73.2538 83.409 71.6564 83.409 69.6026C83.409 67.5487 81.8115 65.9513 79.7577 65.9513ZM21.6795 58.4205C20.4244 58.4205 19.5115 59.4474 19.5115 60.5885C19.5115 61.8436 20.5385 62.7564 21.6795 62.7564C22.8205 62.7564 23.8474 61.7295 23.8474 60.5885C23.8474 59.3333 22.8205 58.4205 21.6795 58.4205ZM27.4987 65.9513C25.4449 65.9513 23.8474 67.5487 23.8474 69.6026C23.8474 71.6564 25.4449 73.2538 27.4987 73.2538C29.5526 73.2538 31.15 71.6564 31.15 69.6026C31.15 67.5487 29.5526 65.9513 27.4987 65.9513ZM28.5256 83.1808C27.2705 83.1808 26.3577 84.2077 26.3577 85.3487C26.3577 86.4897 27.3846 87.5167 28.5256 87.5167C29.7808 87.5167 30.6936 86.4897 30.6936 85.3487C30.6936 84.2077 29.6667 83.1808 28.5256 83.1808ZM19.3974 75.4218C17.3436 75.4218 15.7462 77.0192 15.7462 79.0731C15.7462 81.1269 17.3436 82.7244 19.3974 82.7244C21.4513 82.7244 23.0487 81.1269 23.0487 79.0731C23.0487 77.0192 21.4513 75.4218 19.3974 75.4218ZM34.0026 18.8269C34.0026 19.6256 34.6872 20.3103 35.4859 20.3103C36.2846 20.3103 36.9692 19.6256 36.9692 18.8269C36.9692 18.0282 36.2846 17.3436 35.4859 17.3436C34.5731 17.3436 34.0026 18.0282 34.0026 18.8269ZM42.3321 7.87308C42.3321 4.3359 39.4795 1.48333 35.9423 1.48333C32.4051 1.48333 29.5526 4.3359 29.5526 7.87308C29.5526 11.4103 32.4051 14.2628 35.9423 14.2628C39.4795 14.3769 42.3321 11.5244 42.3321 7.87308ZM35.3718 86.0333C34.5731 86.0333 33.8885 86.7179 33.8885 87.5167C33.8885 88.3154 34.5731 89 35.3718 89C36.1705 89 36.8551 88.3154 36.8551 87.5167C36.8551 86.7179 36.1705 86.0333 35.3718 86.0333ZM38.3385 72.4551C35.4859 72.4551 33.0897 74.8513 33.0897 77.7038C33.0897 80.5564 35.4859 82.9526 38.3385 82.9526C41.191 82.9526 43.5872 80.5564 43.5872 77.7038C43.5872 74.8513 41.191 72.4551 38.3385 72.4551Z" fill="#52736C"/>
<path d="M124.141 33.5405C128.711 33.652 133.616 33.652 138.019 33.5405V35.2684L136.737 35.4913C134.396 35.8815 134.619 38.3339 134.619 42.2912C134.619 43.7961 134.675 45.4125 134.842 47.0288L135.846 47.1403C136.292 47.196 136.403 47.419 136.403 47.7534V49.1468C135.4 48.9796 134.341 48.9796 133.616 48.9796C128.711 48.9796 127.206 50.7632 121.243 50.7632C111.712 50.7632 104.8 43.183 104.8 32.4815C104.8 22.226 111.6 14.4786 120.964 14.4786C124.977 14.4786 126.315 15.649 129.603 15.649C130.216 15.649 130.662 15.649 131.721 15.4261C132.223 18.6031 133.003 21.6686 134.452 25.0128H131.164C128.879 19.7736 125.479 16.4851 120.351 16.4851C115.78 16.4851 111.767 20.4981 111.767 30.9209C111.767 41.1207 116.059 48.7567 121.911 48.7567C128.265 48.7567 128.544 46.3042 128.544 39.7273C128.544 36.4946 128.656 35.7143 125.757 35.4356L124.141 35.2684V33.5405ZM158.419 42.9043C158.419 39.1699 155.465 37.1634 150.727 34.934C145.488 32.4815 140.918 29.6947 140.918 23.7309C140.918 18.3801 145.209 14.4786 151.396 14.4786C155.576 14.4786 157.081 15.7605 158.419 15.7605C159.032 15.7605 159.478 15.649 159.701 14.9245H161.54L161.93 22.6161L160.816 22.5604C160.035 22.5047 159.701 22.2817 159.311 21.5014C157.917 18.3801 155.242 16.4851 152.177 16.4851C148.665 16.4851 146.659 18.8818 146.659 21.6686C146.659 25.18 149.111 26.9079 153.291 28.8587C157.694 30.9766 164.717 33.5405 164.717 40.7306C164.717 47.3632 158.586 50.7074 153.403 50.7074C148.609 50.7074 146.38 48.5895 144.764 48.5895C143.649 48.5895 143.203 49.2583 143.036 49.9271H141.029L140.528 41.8453H142.144C142.813 41.8453 143.147 42.0683 143.426 42.7928C144.708 46.137 147.996 48.5895 152.288 48.5895C156.022 48.5895 158.419 46.3042 158.419 42.9043ZM196.32 14.4786C205.739 14.4786 212.484 22.0588 212.484 32.7602C212.484 43.0715 205.851 50.7632 196.487 50.7632C187.068 50.7632 180.324 43.183 180.324 32.4815C180.324 22.1145 186.956 14.4786 196.32 14.4786ZM197.212 48.7567C201.671 48.7567 205.517 44.6879 205.517 34.2651C205.517 24.0653 201.392 16.4851 195.428 16.4851C191.136 16.4851 187.291 20.4981 187.291 30.9209C187.291 41.1207 191.415 48.7567 197.212 48.7567ZM242.247 46.137C242.247 47.5305 243.752 47.9763 245.647 48.1993V49.9829C241.3 49.8157 236.952 49.8157 232.549 49.9829V48.1993C234.444 48.0321 235.949 47.5305 235.949 46.137V31.3111C235.949 27.1308 235.336 24.344 232.437 24.344C228.592 24.344 225.582 28.7472 224.969 29.9177V46.137C224.969 47.5305 226.474 48.0321 228.369 48.1993V49.9829C224.021 49.8157 219.674 49.8157 215.326 49.9829V48.1993C217.166 47.9763 218.67 47.5305 218.67 46.137V28.357C218.67 26.4062 217.444 25.9603 215.27 26.239V24.4555C220.175 23.5637 222.349 21.3899 223.631 21.3899C224.578 21.3899 225.08 22.0588 224.969 23.1178L224.467 27.7439C225.637 25.9603 228.982 21.5571 234.165 21.5571C238.68 21.5571 242.247 23.4522 242.247 31.1996V46.137ZM255.847 44.6879C255.847 46.6944 257.073 47.1403 259.247 46.9173V48.5895C254.398 49.7042 252.335 50.6517 250.942 50.6517C249.994 50.6517 249.604 50.2058 249.604 49.0911V18.4359C249.604 16.4851 248.378 15.9835 246.204 16.3179V14.5343C251.109 13.6425 253.171 11.4688 254.509 11.4688C255.457 11.4688 255.847 11.9704 255.847 13.0852V44.6879ZM268.165 17.6556C266.325 17.6556 264.765 16.1507 264.765 14.3114C264.765 12.4721 266.325 10.9672 268.165 10.9672C269.948 10.9672 271.509 12.4721 271.509 14.3114C271.509 16.1507 269.948 17.6556 268.165 17.6556ZM271.732 46.137C271.732 47.5305 273.237 47.9763 275.132 48.1993V49.9829C270.784 49.8157 266.437 49.8157 262.089 49.9829V48.1993C263.929 47.9763 265.434 47.5305 265.434 46.137V28.1341C265.434 26.1833 264.207 25.6817 262.034 25.7931V24.0653C267.161 23.285 269.224 21.4457 270.561 21.4457C271.453 21.4457 272.066 21.8916 272.066 22.8948C272.066 24.7341 271.732 26.7964 271.732 30.2521V46.137ZM304.059 46.137C304.059 47.5305 305.564 47.9763 307.459 48.1993V49.9829C303.112 49.8157 298.764 49.8157 294.361 49.9829V48.1993C296.256 48.0321 297.761 47.5305 297.761 46.137V31.3111C297.761 27.1308 297.148 24.344 294.249 24.344C290.404 24.344 287.394 28.7472 286.781 29.9177V46.137C286.781 47.5305 288.286 48.0321 290.181 48.1993V49.9829C285.833 49.8157 281.486 49.8157 277.138 49.9829V48.1993C278.978 47.9763 280.482 47.5305 280.482 46.137V28.357C280.482 26.4062 279.256 25.9603 277.082 26.239V24.4555C281.987 23.5637 284.161 21.3899 285.443 21.3899C286.391 21.3899 286.892 22.0588 286.781 23.1178L286.279 27.7439C287.45 25.9603 290.794 21.5571 295.977 21.5571C300.492 21.5571 304.059 23.4522 304.059 31.1996V46.137ZM331.872 43.8518C332.429 43.8518 332.652 44.4092 332.262 45.1338C330.757 48.255 327.747 50.5402 322.898 50.5402C315.429 50.5402 309.41 45.4682 309.41 35.993C309.41 26.7407 315.652 21.6129 322.229 21.6129C328.639 21.6129 333.711 26.0718 333.711 33.0946C333.711 35.2126 332.875 36.6061 330.701 36.6061H316.098C316.154 43.6289 318.662 48.6452 323.734 48.6452C326.577 48.6452 328.583 47.419 330.032 44.6879C330.311 44.1863 330.478 43.8518 331.091 43.8518H331.872ZM327.58 34.4881C327.58 27.6324 326.075 23.5079 322.229 23.5079C318.272 23.5079 316.154 27.6324 316.098 34.4881H327.58ZM366.93 42.9043C366.93 39.1699 363.976 37.1634 359.238 34.934C353.999 32.4815 349.429 29.6947 349.429 23.7309C349.429 18.3801 353.72 14.4786 359.907 14.4786C364.087 14.4786 365.592 15.7605 366.93 15.7605C367.543 15.7605 367.989 15.649 368.212 14.9245H370.051L370.441 22.6161L369.327 22.5604C368.546 22.5047 368.212 22.2817 367.822 21.5014C366.428 18.3801 363.753 16.4851 360.688 16.4851C357.176 16.4851 355.17 18.8818 355.17 21.6686C355.17 25.18 357.622 26.9079 361.802 28.8587C366.206 30.9766 373.228 33.5405 373.228 40.7306C373.228 47.3632 367.097 50.7074 361.914 50.7074C357.12 50.7074 354.891 48.5895 353.275 48.5895C352.16 48.5895 351.714 49.2583 351.547 49.9271H349.54L349.039 41.8453H350.655C351.324 41.8453 351.658 42.0683 351.937 42.7928C353.219 46.137 356.507 48.5895 360.799 48.5895C364.533 48.5895 366.93 46.3042 366.93 42.9043ZM389.225 21.6129C395.634 21.6129 402.267 26.4062 402.267 35.77C402.267 45.4125 395.634 50.5402 389.336 50.5402C382.927 50.5402 376.294 45.4125 376.294 36.2159C376.294 26.4062 382.927 21.6129 389.225 21.6129ZM395.412 37.3864C395.412 29.0816 392.736 23.5079 388.444 23.5079C385.045 23.5079 383.149 27.1308 383.149 34.5995C383.149 42.96 385.825 48.6452 390.061 48.6452C393.517 48.6452 395.412 44.9108 395.412 37.3864ZM413.303 44.6879C413.303 46.6944 414.529 47.1403 416.703 46.9173V48.5895C411.854 49.7042 409.792 50.6517 408.398 50.6517C407.451 50.6517 407.061 50.2058 407.061 49.0911V18.4359C407.061 16.4851 405.834 15.9835 403.661 16.3179V14.5343C408.565 13.6425 410.628 11.4688 411.965 11.4688C412.913 11.4688 413.303 11.9704 413.303 13.0852V44.6879ZM444.293 44.0748C444.293 46.0256 445.519 46.4715 447.693 46.137V47.8649C442.788 49.0353 440.725 50.6517 439.388 50.6517C438.385 50.6517 437.883 49.9271 437.994 48.8124L438.552 43.9076C437.326 45.7469 434.204 50.7632 429.021 50.7632C424.562 50.7632 420.716 48.6452 420.716 40.8978V26.1833C420.716 24.7899 420.27 24.2325 419.155 24.2882L417.483 24.344V22.4489L425.621 21.8358C426.401 21.7801 427.014 22.1702 427.014 23.062V40.6748C427.014 44.8551 427.627 47.8649 430.749 47.8649C434.706 47.8649 437.381 42.6814 437.994 41.3994V26.1833C437.994 24.7899 437.548 24.2325 436.434 24.2882L434.762 24.344V22.4489L442.844 21.8358C443.735 21.7801 444.293 22.1702 444.293 23.062V44.0748ZM464.915 48.3665C463.856 49.3698 461.794 50.373 459.509 50.373C455.273 50.373 452.374 48.1993 452.374 42.6814V24.121H449.978C449.588 24.121 449.365 23.8423 449.365 23.4522V22.6719C449.365 22.2817 449.588 22.0588 449.978 22.0588C453.768 22.0588 455.329 19.3834 455.942 14.4786H458.673V22.0588H464.358C464.748 22.0588 464.971 22.2817 464.971 22.6719V23.4522C464.971 23.8423 464.748 24.121 464.358 24.121H458.673V43.7404C458.673 45.9698 459.174 47.9206 461.46 47.9206C462.964 47.9206 464.246 46.9731 464.915 46.137V48.3665ZM473.889 17.6556C472.05 17.6556 470.489 16.1507 470.489 14.3114C470.489 12.4721 472.05 10.9672 473.889 10.9672C475.672 10.9672 477.233 12.4721 477.233 14.3114C477.233 16.1507 475.672 17.6556 473.889 17.6556ZM477.456 46.137C477.456 47.5305 478.961 47.9763 480.856 48.1993V49.9829C476.508 49.8157 472.161 49.8157 467.814 49.9829V48.1993C469.653 47.9763 471.158 47.5305 471.158 46.137V28.1341C471.158 26.1833 469.932 25.6817 467.758 25.7931V24.0653C472.886 23.285 474.948 21.4457 476.286 21.4457C477.177 21.4457 477.79 21.8916 477.79 22.8948C477.79 24.7341 477.456 26.7964 477.456 30.2521V46.137ZM496.574 21.6129C502.983 21.6129 509.616 26.4062 509.616 35.77C509.616 45.4125 502.983 50.5402 496.685 50.5402C490.275 50.5402 483.643 45.4125 483.643 36.2159C483.643 26.4062 490.275 21.6129 496.574 21.6129ZM502.76 37.3864C502.76 29.0816 500.085 23.5079 495.793 23.5079C492.393 23.5079 490.498 27.1308 490.498 34.5995C490.498 42.96 493.174 48.6452 497.41 48.6452C500.865 48.6452 502.76 44.9108 502.76 37.3864ZM539.101 46.137C539.101 47.5305 540.606 47.9763 542.501 48.1993V49.9829C538.153 49.8157 533.806 49.8157 529.403 49.9829V48.1993C531.298 48.0321 532.803 47.5305 532.803 46.137V31.3111C532.803 27.1308 532.189 24.344 529.291 24.344C525.445 24.344 522.436 28.7472 521.822 29.9177V46.137C521.822 47.5305 523.327 48.0321 525.222 48.1993V49.9829C520.875 49.8157 516.527 49.8157 512.18 49.9829V48.1993C514.019 47.9763 515.524 47.5305 515.524 46.137V28.357C515.524 26.4062 514.298 25.9603 512.124 26.239V24.4555C517.029 23.5637 519.203 21.3899 520.485 21.3899C521.432 21.3899 521.934 22.0588 521.822 23.1178L521.321 27.7439C522.491 25.9603 525.835 21.5571 531.019 21.5571C535.534 21.5571 539.101 23.4522 539.101 31.1996V46.137ZM565.13 42.3469C565.13 47.196 560.448 50.6517 556.268 50.6517C552.533 50.6517 550.471 48.7009 548.799 48.7009C548.019 48.7009 547.573 49.1468 547.517 49.9271H545.733L545.065 42.3469H545.956C546.681 42.3469 547.294 42.4584 547.517 43.2387C548.353 46.3042 552.589 48.8681 555.543 48.8681C558.107 48.8681 559.723 47.1403 559.723 44.7994C559.723 41.7896 557.104 40.5076 553.258 38.5568C549.356 36.6061 545.009 34.0422 545.009 29.1373C545.009 24.9013 548.632 21.6129 553.425 21.6129C557.104 21.6129 558.33 23.1735 559.779 23.1735C560.504 23.1735 560.95 22.7833 561.117 22.0588H562.956L563.458 29.3603H562.51C561.786 29.3603 561.395 29.1373 561.061 28.4685C559.668 25.3472 556.825 23.285 554.261 23.285C551.697 23.285 550.192 25.1243 550.192 27.2423C550.192 29.8619 552.143 31.1439 555.32 32.7045C558.832 34.3766 565.13 36.9405 565.13 42.3469ZM604.647 40.842H606.709C605.595 44.0748 605.149 46.9731 604.982 49.9829C596.287 49.8157 588.372 49.8157 580.012 49.9829V48.0878C583.021 47.8649 583.969 47.4747 583.969 46.0813V19.2162C583.969 17.8228 582.91 17.3769 579.9 17.1539V15.3704C584.693 15.5376 589.766 15.5376 594.559 15.3704V17.1539C591.605 17.3769 590.546 17.8228 590.546 19.2162V47.2518C590.546 47.6419 590.769 47.9206 591.215 47.9206H596.175C599.91 47.9206 601.637 47.0288 602.864 44.5207L604.647 40.842ZM624.211 48.3665C623.152 49.3698 621.09 50.373 618.804 50.373C614.568 50.373 611.67 48.1993 611.67 42.6814V24.121H609.273C608.883 24.121 608.66 23.8423 608.66 23.4522V22.6719C608.66 22.2817 608.883 22.0588 609.273 22.0588C613.063 22.0588 614.624 19.3834 615.237 14.4786H617.968V22.0588H623.653C624.044 22.0588 624.267 22.2817 624.267 22.6719V23.4522C624.267 23.8423 624.044 24.121 623.653 24.121H617.968V43.7404C617.968 45.9698 618.47 47.9206 620.755 47.9206C622.26 47.9206 623.542 46.9731 624.211 46.137V48.3665ZM651.466 43.7961C651.466 45.8026 652.692 46.1928 654.866 45.8584V47.8649C650.017 49.0353 647.955 50.6517 646.561 50.6517C645.614 50.6517 645.056 49.9829 645.168 48.8681L645.558 45.8026C644.778 47.9763 642.604 50.5402 638.089 50.5402C632.07 50.5402 625.939 45.5239 625.939 35.8257C625.939 26.5734 632.237 21.6129 637.922 21.6129C641.656 21.6129 643.83 23.6194 645.168 25.4587V18.4916C645.168 16.5408 643.942 15.9835 641.768 16.2622V14.4228C646.673 13.5311 648.846 11.4688 650.184 11.4688C651.076 11.4688 651.466 11.9704 651.466 13.0852V43.7961ZM639.65 48.5895C642.883 48.5895 644.833 45.4125 645.168 42.7371V27.6324C643.83 25.6817 641.656 23.5079 638.87 23.5079C634.745 23.5079 632.738 27.3538 632.738 34.5438C632.738 42.2355 635.302 48.5895 639.65 48.5895Z" fill="#52736C"/>
</svg>
