<svg width="50" height="50" viewBox="0 0 50 50" fill="none" xmlns="http://www.w3.org/2000/svg">
<path d="M19.1469 25.7769C19.4037 25.7769 19.6419 25.6423 19.7743 25.4222L21.0957 23.2273L22.8467 26.0098C22.9836 26.2274 23.2229 26.3566 23.4819 26.352C23.7391 26.3466 23.9745 26.2067 24.1022 25.9835L26.9211 21.0581L30.707 27.9575C30.8334 28.1878 31.0734 28.3328 31.3361 28.3375C31.3404 28.3375 31.3448 28.3376 31.3491 28.3376C31.6068 28.3376 31.8461 28.202 31.9783 27.98L34.337 24.0204H40.0247C40.4292 24.0204 40.7571 23.6925 40.7571 23.288C40.7571 22.8835 40.4292 22.5556 40.0247 22.5556H33.9208C33.6627 22.5556 33.4236 22.6914 33.2916 22.9132L31.3752 26.1302L27.5767 19.2077C27.4491 18.9754 27.2062 18.8301 26.9411 18.8276C26.9389 18.8276 26.9367 18.8276 26.9345 18.8276C26.672 18.8276 26.4294 18.9682 26.2988 19.1962L23.4367 24.1972L21.7018 21.4402C21.5676 21.2271 21.3335 21.0979 21.0818 21.0979C21.0795 21.0979 21.0771 21.0979 21.0746 21.0979C20.8203 21.1004 20.5855 21.2347 20.4544 21.4525L18.7329 24.312H14.5703C14.1658 24.312 13.8379 24.6399 13.8379 25.0444C13.8379 25.4489 14.1658 25.7769 14.5703 25.7769H19.1469Z" fill="#B9F8B1"/>
<path d="M41.3176 5.44873C40.9131 5.44873 40.5852 5.77666 40.5852 6.18115V8.3417H38.4248C38.0203 8.3417 37.6924 8.66963 37.6924 9.07412C37.6924 9.47861 38.0203 9.80654 38.4248 9.80654H40.5852V11.9672C40.5852 12.3717 40.9131 12.6996 41.3176 12.6996C41.7221 12.6996 42.05 12.3717 42.05 11.9672V9.80654H44.2104C44.6148 9.80654 44.9428 9.47861 44.9428 9.07412C44.9428 8.66963 44.6148 8.3417 44.2104 8.3417H42.05V6.18115C42.05 5.77666 41.7221 5.44873 41.3176 5.44873Z" fill="#B9F8B1"/>
<path d="M43.9023 30.543C47.4706 26.7282 48.4933 20.9598 46.5318 16.0145C48.6366 14.4281 50 11.9075 50 9.07412C50 4.28652 46.1053 0.391602 41.318 0.391602C39.3515 0.391602 37.4258 1.0665 35.8955 2.29199C35.5798 2.54482 35.5288 3.00576 35.7816 3.32148C36.0345 3.63711 36.4954 3.68818 36.8111 3.43535C38.101 2.40234 39.6594 1.85645 41.3179 1.85645C45.2974 1.85645 48.5351 5.09434 48.5351 9.07412C48.5351 13.0556 45.2975 16.2946 41.3179 16.2946C37.6125 16.2946 34.5517 13.4882 34.1452 9.88945C34.1444 9.88115 34.1431 9.87276 34.142 9.86436C34.1136 9.60469 34.0979 9.34121 34.0979 9.07412C34.0979 7.94365 34.3519 6.8626 34.8526 5.86084C35.0335 5.49902 34.8868 5.05908 34.5251 4.87813C34.163 4.69736 33.7233 4.84395 33.5424 5.20566C32.939 6.4126 32.633 7.71416 32.633 9.07402C32.633 9.19707 32.6362 9.31934 32.6413 9.44121C30.7919 10.1022 29.0656 11.1895 27.6189 12.6122L26.8094 13.4081C26.8055 13.4042 26.8025 13.4013 26.7986 13.3974L26.0027 12.6132C23.4275 10.0741 20.0564 8.65518 16.7527 8.72354C14.0037 8.78018 11.5711 9.85732 9.71855 11.8378C9.44219 12.1337 9.45781 12.5976 9.75371 12.8739C10.0496 13.1493 10.5125 13.1347 10.7889 12.8388C12.365 11.1532 14.4373 10.2362 16.783 10.1884C19.6932 10.1288 22.6785 11.3935 24.9744 13.6562L25.7713 14.4413C26.1561 14.8202 26.4842 15.0087 26.8113 15.0087C27.1355 15.0087 27.4588 14.8231 27.8367 14.4521L28.6463 13.6562C29.8628 12.4605 31.2977 11.5294 32.8338 10.9322C33.687 14.8314 37.1666 17.7594 41.3178 17.7594C42.739 17.7594 44.0814 17.416 45.2667 16.8078C46.8896 21.1731 45.9578 26.1951 42.8377 29.5359L32.3232 40.2988L31.4531 40.4688C31.2422 40.5098 31.0557 40.5469 30.8857 40.5811C29.7822 40.8047 29.5186 40.8574 28.2266 40.6582L21.9619 39.5127C21.1084 39.2178 21.1943 38.5381 21.2422 38.334C21.3174 38.0166 21.6123 37.5039 22.2461 37.5996C22.252 37.6006 22.2578 37.6016 22.2637 37.6025C22.5459 37.6387 22.8486 37.6777 23.165 37.7178C24.3516 37.8711 25.6953 38.0439 26.8887 38.166C29.3301 38.4131 30.7109 37.1318 30.998 35.751C31.29 34.3438 30.4883 32.4727 28.0371 31.6904C28.0078 31.6816 27.9775 31.6738 27.9463 31.668L23.9121 30.9277C21.7227 30.5264 20.0195 30.8359 17.4414 31.3047C16.7598 31.4287 15.9863 31.5684 15.125 31.71L13.2129 32.0244L12.624 31.4219L10.7832 29.5371C7.34277 25.8486 6.58008 20.0713 8.93164 15.4844C9.11621 15.125 8.97363 14.6836 8.61426 14.499C8.25391 14.3145 7.8125 14.4561 7.62793 14.8164C4.99902 19.9453 5.8584 26.4121 9.71875 30.543C9.72266 30.5469 9.72656 30.5508 9.72949 30.5547L11.4482 32.3145L8.24727 32.8406V32.757C8.24727 32.1915 7.74834 31.7314 7.13506 31.7314H1.10938C0.497656 31.7314 0 32.1915 0 32.757V45.6442C0 46.2098 0.497656 46.6698 1.10938 46.6698H7.13516C7.74844 46.6698 8.24736 46.2098 8.24736 45.6442V45.5555L14.834 47.3477L20.9141 49C22.3018 49.4307 23.4199 49.6084 24.4404 49.6084C26.0557 49.6084 27.4277 49.165 29.2402 48.5791C29.4014 48.5273 29.5664 48.4736 29.7363 48.4189L41.7178 44.5772C43.1064 44.1318 44.0947 43.1318 44.3604 41.9023C44.5664 40.9492 44.2793 40.0078 43.5918 39.3838C43.0352 38.8789 41.7266 38.1543 39.2041 38.9521L34.8545 39.8027L43.8916 30.5547C43.8955 30.5508 43.8984 30.5469 43.9023 30.543ZM1.46484 45.205V33.1962H6.78242V33.6994C6.78242 33.701 6.78223 33.7024 6.78223 33.704V44.5966C6.78223 44.5975 6.78242 44.5982 6.78242 44.5991V45.205H1.46484ZM39.6094 40.3604C40.9609 39.9268 42.0537 39.9658 42.6084 40.4688C42.9072 40.7402 43.0244 41.1504 42.9287 41.5918C42.7744 42.3037 42.1543 42.8984 41.2705 43.1816L29.2881 47.0244C29.1172 47.0791 28.9512 47.1328 28.7891 47.1855C25.9228 48.1113 24.4844 48.5772 21.3359 47.5977C21.3281 47.5947 21.3193 47.5928 21.3105 47.5898L8.24727 44.0372V34.3252L15.3623 33.1562C16.2354 33.0127 17.0156 32.8701 17.7041 32.7451C20.209 32.29 21.7217 32.0156 23.6475 32.3691L27.6348 33.1006C29.1895 33.6113 29.7256 34.6748 29.5635 35.4531C29.377 36.3525 28.3848 36.8457 27.0371 36.709C25.8633 36.5889 24.5293 36.417 23.3525 36.2656C23.0381 36.2246 22.7363 36.1855 22.4561 36.1504C21.0557 35.9434 20.0684 36.9229 19.8164 38C19.7627 38.2295 19.7412 38.4736 19.7568 38.7197C19.8105 39.6104 20.3428 40.5342 21.5576 40.9219C21.5879 40.9316 21.9922 41.0068 21.9922 41.0068L27.9736 42.1006C27.9795 42.1016 27.9863 42.1025 27.9932 42.1035C29.2275 42.2959 29.7617 42.2793 30.5186 42.1455C30.7168 42.1104 31.5254 41.9463 31.7334 41.9062L33.0518 41.6484C33.0518 41.6484 39.582 40.3691 39.6094 40.3604Z" fill="#B9F8B1"/>
</svg>
