<svg width="30" height="30" viewBox="0 0 30 30" fill="none" xmlns="http://www.w3.org/2000/svg">
<path d="M28.125 11.25C28.125 10.877 27.9768 10.5194 27.7131 10.2556C27.4494 9.99191 27.0917 9.84375 26.7188 9.84375H26.25V8.18437C26.5446 7.92153 26.7804 7.59943 26.942 7.23917C27.1035 6.8789 27.1872 6.48858 27.1875 6.09375V5.98312L24.6647 0.9375H5.33531L2.8125 5.98312V6.09375C2.8128 6.48858 2.89646 6.8789 3.05802 7.23917C3.21957 7.59943 3.45538 7.92153 3.75 8.18437V9.84375H3.28125C2.90829 9.84375 2.5506 9.99191 2.28688 10.2556C2.02316 10.5194 1.875 10.877 1.875 11.25V26.25H0.9375V27.6562C0.9375 28.0292 1.08566 28.3869 1.34938 28.6506C1.6131 28.9143 1.97079 29.0625 2.34375 29.0625H27.6562C28.0292 29.0625 28.3869 28.9143 28.6506 28.6506C28.9143 28.3869 29.0625 28.0292 29.0625 27.6562V26.25H28.125V11.25ZM21.255 1.875H24.0853L26.2472 6.19875C26.2204 6.68661 26.0043 7.14477 25.6448 7.47567C25.2853 7.80656 24.8109 7.98407 24.3225 7.97038C23.8341 7.9567 23.3703 7.7529 23.0299 7.40239C22.6895 7.05188 22.4994 6.58235 22.5 6.09375L21.255 1.875ZM20.2763 1.875L21.5625 6.15891C21.5476 6.65619 21.3359 7.1272 20.9737 7.46832C20.6116 7.80945 20.1288 7.99275 19.6315 7.97789C19.1342 7.96303 18.6632 7.75124 18.3221 7.38911C17.9809 7.02697 17.7976 6.54416 17.8125 6.04688L17.3906 1.875H20.2763ZM13.5492 1.875H16.4531L16.875 6.11578C16.8783 6.61306 16.6839 7.09128 16.3346 7.44524C15.9853 7.7992 15.5097 7.99991 15.0124 8.0032C14.5151 8.0065 14.0369 7.81211 13.683 7.46281C13.329 7.11351 13.1283 6.63791 13.125 6.14062L13.5492 1.875ZM12.6094 1.875L12.1875 6.09375C12.1961 6.59103 12.0069 7.07138 11.6614 7.42912C11.3158 7.78686 10.8424 7.99269 10.3451 8.00133C9.8478 8.00997 9.36745 7.82071 9.00971 7.47519C8.65197 7.12967 8.44614 6.65619 8.4375 6.15891L9.72375 1.875H12.6094ZM5.91469 1.875H8.745L7.51969 5.95922L7.5 6.09375C7.50062 6.58235 7.31049 7.05188 6.97009 7.40239C6.6297 7.7529 6.16593 7.9567 5.67752 7.97038C5.18912 7.98407 4.71466 7.80656 4.35517 7.47567C3.99568 7.14477 3.77956 6.68661 3.75281 6.19875L5.91469 1.875ZM5.625 8.90625C6.08958 8.90601 6.54684 8.79057 6.95586 8.57027C7.36489 8.34997 7.7129 8.03168 7.96875 7.64391C8.22496 8.03142 8.5731 8.3495 8.98211 8.56977C9.39112 8.79004 9.84829 8.90566 10.3128 8.90631C10.7774 8.90696 11.2349 8.79262 11.6445 8.57349C12.0541 8.35437 12.4032 8.03726 12.6605 7.65047C12.917 8.03686 13.2653 8.35371 13.6741 8.57272C14.083 8.79173 14.5397 8.90609 15.0035 8.90558C15.4673 8.90507 15.9238 8.78971 16.3321 8.5698C16.7405 8.34989 17.088 8.03227 17.3438 7.64531C17.5997 8.03288 17.9478 8.35092 18.3568 8.57097C18.7658 8.79101 19.223 8.90619 19.6875 8.90619C20.152 8.90619 20.6092 8.79101 21.0182 8.57097C21.4272 8.35092 21.7753 8.03288 22.0312 7.64531C22.3753 8.17034 22.8862 8.56421 23.4814 8.76346C24.0767 8.9627 24.7217 8.9557 25.3125 8.74359V24.375H4.6875V8.74219C4.98835 8.84995 5.30543 8.90544 5.625 8.90625ZM2.8125 11.25C2.8125 11.1257 2.86189 11.0065 2.94979 10.9185C3.0377 10.8306 3.15693 10.7812 3.28125 10.7812H3.75V25.3125H26.25V10.7812H26.7188C26.8431 10.7812 26.9623 10.8306 27.0502 10.9185C27.1381 11.0065 27.1875 11.1257 27.1875 11.25V26.25H2.8125V11.25ZM28.125 27.6562C28.125 27.7806 28.0756 27.8998 27.9877 27.9877C27.8998 28.0756 27.7806 28.125 27.6562 28.125H2.34375C2.21943 28.125 2.1002 28.0756 2.01229 27.9877C1.92439 27.8998 1.875 27.7806 1.875 27.6562V27.1875H28.125V27.6562Z" fill="#393737"/>
<path d="M10.3969 20.625H21.975L23.0377 12.6562H9.75938L9.29063 10.3125H7.03125V11.25H8.52188L10.3969 20.625ZM21.9647 13.5938L21.1523 19.6875H11.1656L9.94687 13.5938H21.9647Z" fill="#393737"/>
<path d="M11.25 22.0312C11.25 22.3094 11.3325 22.5813 11.487 22.8125C11.6415 23.0438 11.8611 23.224 12.1181 23.3305C12.3751 23.4369 12.6578 23.4647 12.9306 23.4105C13.2034 23.3562 13.454 23.2223 13.6506 23.0256C13.8473 22.829 13.9812 22.5784 14.0355 22.3056C14.0897 22.0328 14.0619 21.7501 13.9555 21.4931C13.849 21.2361 13.6688 21.0165 13.4375 20.862C13.2063 20.7075 12.9344 20.625 12.6562 20.625C12.2833 20.625 11.9256 20.7732 11.6619 21.0369C11.3982 21.3006 11.25 21.6583 11.25 22.0312ZM12.6562 21.5625C12.749 21.5625 12.8396 21.59 12.9167 21.6415C12.9938 21.693 13.0538 21.7662 13.0893 21.8519C13.1248 21.9375 13.1341 22.0318 13.116 22.1227C13.0979 22.2136 13.0533 22.2972 12.9877 22.3627C12.9222 22.4283 12.8386 22.4729 12.7477 22.491C12.6568 22.5091 12.5625 22.4998 12.4769 22.4643C12.3912 22.4288 12.318 22.3688 12.2665 22.2917C12.215 22.2146 12.1875 22.124 12.1875 22.0312C12.1875 21.9069 12.2369 21.7877 12.3248 21.6998C12.4127 21.6119 12.5319 21.5625 12.6562 21.5625Z" fill="#393737"/>
<path d="M18.2812 22.0312C18.2812 22.3094 18.3637 22.5813 18.5182 22.8125C18.6728 23.0438 18.8924 23.224 19.1494 23.3305C19.4063 23.4369 19.6891 23.4647 19.9618 23.4105C20.2346 23.3562 20.4852 23.2223 20.6819 23.0256C20.8785 22.829 21.0125 22.5784 21.0667 22.3056C21.121 22.0328 21.0931 21.7501 20.9867 21.4931C20.8803 21.2361 20.7 21.0165 20.4688 20.862C20.2375 20.7075 19.9656 20.625 19.6875 20.625C19.3145 20.625 18.9569 20.7732 18.6931 21.0369C18.4294 21.3006 18.2812 21.6583 18.2812 22.0312ZM19.6875 21.5625C19.7802 21.5625 19.8708 21.59 19.9479 21.6415C20.025 21.693 20.0851 21.7662 20.1206 21.8519C20.156 21.9375 20.1653 22.0318 20.1472 22.1227C20.1292 22.2136 20.0845 22.2972 20.019 22.3627C19.9534 22.4283 19.8699 22.4729 19.7789 22.491C19.688 22.5091 19.5938 22.4998 19.5081 22.4643C19.4225 22.4288 19.3493 22.3688 19.2977 22.2917C19.2462 22.2146 19.2188 22.124 19.2188 22.0312C19.2188 21.9069 19.2681 21.7877 19.356 21.6998C19.444 21.6119 19.5632 21.5625 19.6875 21.5625Z" fill="#393737"/>
</svg>
