<svg width="50" height="50" viewBox="0 0 50 50" fill="none" xmlns="http://www.w3.org/2000/svg">
<g clip-path="url(#clip0_43_1316)">
<path d="M8.88086 25.1294C8.67366 25.1294 8.47494 25.2117 8.32843 25.3582C8.18192 25.5047 8.09961 25.7034 8.09961 25.9106V37.0919C8.09961 37.2991 8.18192 37.4978 8.32843 37.6443C8.47494 37.7908 8.67366 37.8731 8.88086 37.8731H27.1007C27.3079 37.8731 27.5066 37.7908 27.6531 37.6443C27.7996 37.4978 27.8819 37.2991 27.8819 37.0919V25.9106C27.8819 25.7034 27.7996 25.5047 27.6531 25.3582C27.5066 25.2117 27.3079 25.1294 27.1007 25.1294H8.88086ZM26.3194 36.3106H9.66211V26.6919H26.3194V36.3106Z" fill="#B9F8B1"/>
<path d="M4.99303 20.774C6.0219 20.8784 7.05936 20.6907 7.98646 20.2325C8.91356 19.7743 9.69276 19.0641 10.2347 18.1833C10.6982 19.0807 11.395 19.8365 12.2518 20.3711C13.1087 20.9057 14.0938 21.1994 15.1035 21.2213C16.1133 21.2432 17.1102 20.9924 17.9894 20.4953C18.8685 19.9982 19.5974 19.2733 20.0993 18.3969C20.3205 18.7777 20.5843 19.1321 20.8857 19.4531C21.4154 20.0122 22.0534 20.4575 22.7608 20.7618C23.4682 21.0661 24.2302 21.223 25.0003 21.223C25.7704 21.223 26.5324 21.0661 27.2399 20.7618C27.9473 20.4575 28.5853 20.0122 29.1149 19.4531C29.4163 19.1321 29.6802 18.7777 29.9014 18.3969C30.4051 19.271 31.1347 19.9935 32.0137 20.4887C32.8926 20.984 33.8886 21.2337 34.8972 21.2117C35.9058 21.1898 36.89 20.897 37.7466 20.364C38.6032 19.831 39.3007 19.0775 39.7659 18.1823C40.467 19.312 41.5513 20.1515 42.8206 20.5472C44.0899 20.9429 45.4592 20.8684 46.6781 20.3373C47.8969 19.8061 48.8838 18.8539 49.4581 17.6548C50.0324 16.4557 50.1557 15.0899 49.8055 13.8073L47.1878 4.15104V0.78125C47.1878 0.57405 47.1055 0.375336 46.959 0.228823C46.8125 0.08231 46.6138 0 46.4066 0L3.59095 0C3.38429 0.00082664 3.18638 0.0835015 3.04054 0.229925C2.89471 0.376348 2.81282 0.57459 2.81283 0.78125V4.15833L0.195117 13.8104C-0.0155448 14.5872 -0.0544492 15.4005 0.0811109 16.1939C0.216671 16.9872 0.52344 17.7415 0.980079 18.4042C1.43672 19.067 2.03226 19.6223 2.72529 20.0315C3.41831 20.4408 4.19217 20.6941 4.99303 20.774ZM15.2378 19.6604C14.6469 19.6606 14.063 19.5322 13.5266 19.2843C12.9902 19.0365 12.5141 18.6749 12.1313 18.2248C11.7484 17.7747 11.468 17.2467 11.3094 16.6775C11.1508 16.1083 11.1179 15.5114 11.2128 14.9281L12.8201 5.0375H19.8962L19.343 15.2458L19.3128 15.799C19.2568 16.8418 18.8031 17.8235 18.045 18.5419C17.2869 19.2603 16.2822 19.6606 15.2378 19.6604ZM27.9805 18.3792C27.4029 18.9907 26.6513 19.4101 25.8274 19.5805C25.0036 19.7508 24.1473 19.6639 23.3745 19.3316C22.6016 18.9993 21.9495 18.4376 21.5064 17.7224C21.0634 17.0073 20.8507 16.1733 20.8972 15.3333L20.9295 14.7323L21.4503 5.0375H28.5337L29.0545 14.7323L29.0868 15.3333C29.1209 15.8897 29.0404 16.4472 28.8501 16.9712C28.6598 17.4951 28.3638 17.9744 27.9805 18.3792ZM37.8691 18.225C37.3403 18.8461 36.6374 19.2945 35.8512 19.5121C35.065 19.7297 34.2316 19.7066 33.4587 19.4457C32.6857 19.1848 32.0088 18.6982 31.5152 18.0487C31.0217 17.3992 30.7342 16.6166 30.6899 15.8021L30.6597 15.249L30.1066 5.04063H37.1805L38.7878 14.9313C38.8834 15.5147 38.8506 16.112 38.692 16.6815C38.5333 17.251 38.2525 17.7792 37.8691 18.2292V18.225ZM47.7326 17.5177C47.282 18.1716 46.6461 18.6757 45.9066 18.9651C45.1671 19.2546 44.358 19.3162 43.5832 19.142C42.8085 18.9678 42.1035 18.5658 41.5592 17.9877C41.0148 17.4095 40.6558 16.6817 40.5285 15.8979L38.7628 5.0375H45.8107L48.2972 14.2188C48.4488 14.7766 48.4769 15.3608 48.3794 15.9306C48.2818 16.5004 48.0611 17.042 47.7326 17.5177ZM4.37533 1.5625H45.6253V3.475H4.37533V1.5625ZM1.70345 14.2188L4.18991 5.0375H11.2378L10.1493 11.7333L9.67012 14.6771L9.4722 15.8969C9.38537 16.4295 9.19109 16.9389 8.90119 17.3941C8.61128 17.8493 8.23181 18.2408 7.78586 18.5448C7.3399 18.8487 6.83678 19.0587 6.3071 19.1621C5.77741 19.2655 5.23223 19.26 4.70472 19.1461C4.17721 19.0321 3.67839 18.8121 3.2386 18.4993C2.79881 18.1865 2.42724 17.7875 2.1465 17.3266C1.86576 16.8657 1.68171 16.3525 1.60554 15.8182C1.52938 15.2839 1.56269 14.7397 1.70345 14.2188Z" fill="#B9F8B1"/>
<path d="M49.2188 44.927H47.1875V22.5093C47.1875 22.3021 47.1052 22.1034 46.9587 21.9569C46.8122 21.8103 46.6134 21.728 46.4062 21.728C46.199 21.728 46.0003 21.8103 45.8538 21.9569C45.7073 22.1034 45.625 22.3021 45.625 22.5093V44.927H43.0052V25.9103C43.0052 25.7031 42.9229 25.5044 42.7764 25.3579C42.6299 25.2114 42.4312 25.1291 42.224 25.1291H32.0979C31.8907 25.1291 31.692 25.2114 31.5455 25.3579C31.399 25.5044 31.3167 25.7031 31.3167 25.9103V44.927H4.375V22.5176C4.375 22.3104 4.29269 22.1117 4.14618 21.9652C3.99966 21.8187 3.80095 21.7364 3.59375 21.7364C3.38655 21.7364 3.18784 21.8187 3.04132 21.9652C2.89481 22.1117 2.8125 22.3104 2.8125 22.5176V44.927H0.78125C0.57405 44.927 0.375336 45.0093 0.228823 45.1558C0.08231 45.3023 0 45.501 0 45.7082L0 49.2187C0 49.4259 0.08231 49.6246 0.228823 49.7711C0.375336 49.9176 0.57405 49.9999 0.78125 49.9999H49.2188C49.4259 49.9999 49.6247 49.9176 49.7712 49.7711C49.9177 49.6246 50 49.4259 50 49.2187V45.7082C50 45.501 49.9177 45.3023 49.7712 45.1558C49.6247 45.0093 49.4259 44.927 49.2188 44.927ZM32.8792 26.6916H41.4427V44.927H32.8792V26.6916ZM48.4375 48.4374H1.5625V46.4895H48.4375V48.4374Z" fill="#B9F8B1"/>
</g>
<defs>
<clipPath id="clip0_43_1316">
<rect width="50" height="50" fill="white"/>
</clipPath>
</defs>
</svg>
