<svg width="30" height="30" viewBox="0 0 30 30" fill="none" xmlns="http://www.w3.org/2000/svg">
<g clip-path="url(#clip0_58_1266)">
<path d="M9.84342 12.1876V15.0001C9.84342 15.2345 9.98404 15.3751 10.2184 15.4689C10.4528 15.5626 10.6872 15.3751 10.734 15.1876L11.0622 14.5314C11.2965 14.1564 11.6715 14.2501 11.7184 14.297V14.4845C11.7184 15.0001 12.1403 15.422 12.6559 15.4689V15.9376C12.6559 16.0314 12.7028 16.172 12.7965 16.2189L13.5934 17.0157V17.8126C13.2184 17.5314 12.7028 17.3439 12.1872 17.3439C11.859 17.3439 11.5778 17.3907 11.3434 17.4845C10.9215 16.8282 10.2184 16.4064 9.37467 16.4064C8.99967 16.4064 8.57779 16.5001 8.24967 16.6876C8.01529 16.8282 7.92154 17.1095 8.06217 17.3439C8.20279 17.5782 8.48404 17.672 8.71842 17.5314C8.90592 17.3907 9.14029 17.3439 9.37467 17.3439C10.1715 17.3439 10.7809 17.9532 10.7809 18.7501C10.7809 18.9845 10.734 19.2189 10.5934 19.5001C10.4997 19.7345 10.5465 20.0626 10.7809 20.1095C11.1559 20.2032 11.3434 20.0626 11.3903 19.922C11.5778 19.547 11.6715 19.172 11.6715 18.797C11.6715 18.6564 11.6715 18.5626 11.6247 18.422C11.859 18.2814 12.0465 18.2814 12.1872 18.2814C12.984 18.2814 13.5934 18.8907 13.5934 19.6876C13.5934 19.9689 13.7809 20.1564 14.0622 20.1564C14.3434 20.1564 14.5309 19.9689 14.5309 19.6876V17.3439H15.4684V19.6876C15.4684 19.9689 15.6559 20.1564 15.9372 20.1564C16.2184 20.1564 16.4059 19.9689 16.4059 19.6876C16.4059 18.8907 17.0153 18.2814 17.8122 18.2814C17.9528 18.2814 18.1403 18.2814 18.3278 18.3751C18.3278 18.5157 18.2809 18.6095 18.2809 18.7501C18.2809 19.1251 18.3747 19.547 18.5622 19.8751C18.6559 20.0626 18.8903 20.2032 19.1715 20.0626C19.4059 19.9689 19.4997 19.6876 19.359 19.4532C19.2653 19.2189 19.2184 18.9845 19.2184 18.7501C19.2184 17.9532 19.8278 17.3439 20.6247 17.3439C20.859 17.3439 21.0934 17.3907 21.2809 17.5314C21.5153 17.672 21.7965 17.5782 21.9372 17.3439C22.0778 17.1095 21.984 16.8282 21.7497 16.6876C21.4215 16.5001 20.9997 16.4064 20.6247 16.4064C19.7809 16.4064 19.0778 16.8282 18.6559 17.4845C18.4215 17.3907 18.1403 17.3439 17.8122 17.3439C17.2965 17.3439 16.7809 17.5314 16.4059 17.8126V17.0626L17.2028 16.2657C17.2965 16.172 17.3434 16.0782 17.3434 15.9845V15.4689C17.859 15.422 18.2809 15.0001 18.2809 14.4845V14.297C18.3747 14.2501 18.5622 14.1095 18.9372 14.4845L19.2653 15.1876C19.359 15.3751 19.5465 15.5157 19.7809 15.4689C20.0153 15.422 20.1559 15.2345 20.1559 15.0001V12.1876C20.1559 12.0939 20.109 11.9532 20.0153 11.9064L18.2809 10.1251V7.35948C18.2809 6.37511 18.1403 5.43761 17.859 4.54698C17.7653 4.31261 17.5309 4.17198 17.2497 4.26573C17.0153 4.35948 16.8747 4.59386 16.9684 4.87511C17.2497 5.67198 17.3434 6.56261 17.3434 7.40636V14.5314H12.6559V7.35948C12.6559 5.20323 13.4997 3.14073 14.9997 1.59386C15.4684 2.06261 15.8434 2.57823 16.1715 3.14073C16.3122 3.37511 16.5934 3.42198 16.8278 3.28136C17.0622 3.14073 17.109 2.85948 16.9684 2.62511C16.5934 1.96886 16.1247 1.40636 15.609 0.843855L15.3278 0.562606C15.234 0.468856 14.9997 0.281356 14.6715 0.562606L14.3903 0.843855C12.6559 2.62511 11.7184 4.92198 11.7184 7.35948V10.1251L9.98404 11.8595C9.89029 11.9532 9.84342 12.047 9.84342 12.1876ZM18.2809 11.4376L19.2184 12.3751V13.5001C18.8903 13.2657 18.4215 13.3126 18.2809 13.3126V11.4376ZM13.5934 15.4689H16.4059V15.7501L15.7497 16.4064H14.2497L13.5934 15.7501V15.4689ZM10.7809 12.3751L11.7184 11.4376V13.3126C11.3903 13.2189 10.9684 13.4064 10.7809 13.5001V12.3751Z" fill="#393737"/>
<path d="M14.5312 10.3125V13.125C14.5312 13.4062 14.7187 13.5938 15 13.5938C15.2812 13.5938 15.4688 13.4062 15.4688 13.125V10.3125C15.4688 10.0312 15.2812 9.84375 15 9.84375C14.7187 9.84375 14.5312 10.0312 14.5312 10.3125Z" fill="#393737"/>
<path d="M16.4062 5.625C16.4062 4.82812 15.7969 4.21875 15 4.21875C14.2031 4.21875 13.5938 4.82812 13.5938 5.625C13.5938 5.90625 13.7812 6.09375 14.0625 6.09375C14.3438 6.09375 14.5312 5.90625 14.5312 5.625C14.5312 5.34375 14.7188 5.15625 15 5.15625C15.2812 5.15625 15.4688 5.34375 15.4688 5.625C15.4688 5.90625 15.2812 6.09375 15 6.09375C14.7188 6.09375 14.5312 6.28125 14.5312 6.5625C14.5312 6.84375 14.7188 7.03125 15 7.03125C15.7969 7.03125 16.4062 6.42188 16.4062 5.625Z" fill="#393737"/>
<path d="M6.5625 15.4688C6.84375 15.4688 7.03125 15.2812 7.03125 15C7.03125 12.3281 8.34375 9.84375 10.5938 8.34375C10.8281 8.20312 10.875 7.92187 10.7344 7.6875C10.5937 7.45312 10.3125 7.40625 10.0781 7.54688C7.59375 9.23438 6.09375 12 6.09375 15C6.09375 15.2812 6.28125 15.4688 6.5625 15.4688Z" fill="#393737"/>
<path d="M6.65567 16.406C6.42129 16.4528 6.23379 16.7341 6.28067 16.9685C6.37442 17.2966 6.46817 17.6247 6.56192 17.906C6.60879 18.0935 6.89004 18.3278 7.17129 18.1872C7.40567 18.0935 7.54629 17.8122 7.45254 17.5778C7.35879 17.2966 7.26504 17.0153 7.21817 16.7341C7.17129 16.4997 6.93692 16.3591 6.65567 16.406Z" fill="#393737"/>
<path d="M23.8604 13.9687C23.5791 11.3906 22.126 9.09375 19.9229 7.59375C19.6885 7.45313 19.4072 7.5 19.2666 7.73437C19.126 7.96875 19.1729 8.25 19.4072 8.39062C21.376 9.70312 22.6416 11.7656 22.9229 14.0625C23.251 17.0156 21.9385 19.9219 19.501 21.6094C18.751 22.125 18.2822 23.0156 18.3291 23.9063H11.7197C11.7197 22.9688 11.2979 22.125 10.5479 21.6094C9.7041 21 8.9541 20.2969 8.3916 19.4531C8.25098 19.2188 7.96973 19.1719 7.73535 19.3125C7.50098 19.4531 7.4541 19.7344 7.59473 19.9688C8.25098 20.9062 9.04785 21.75 9.98535 22.4063C10.4541 22.7344 10.7822 23.25 10.7822 23.8594C10.7354 24.4219 11.2041 24.8438 11.7197 24.8906V27.6563C11.7197 28.2188 12.1416 28.6406 12.7041 28.6406H13.6885C13.876 29.2031 14.3916 29.5781 15.001 29.5781C15.6104 29.5781 16.126 29.2031 16.3135 28.6406H17.2979C17.8604 28.6406 18.2822 28.2188 18.2822 27.6563V26.7188C18.2822 26.4375 18.0947 26.25 17.8135 26.25C17.5322 26.25 17.3447 26.4375 17.3447 26.7188V27.6563H15.9385C15.7041 27.6563 15.4697 27.8438 15.4697 28.125C15.4697 28.4063 15.2822 28.5938 15.001 28.5938C14.7197 28.5938 14.5322 28.3594 14.5322 28.125C14.5322 27.8906 14.2979 27.6563 14.0635 27.6563H12.6572V24.8438H17.3447V25.4063C17.3447 25.6875 17.5322 25.875 17.8135 25.875C18.0947 25.875 18.2822 25.6875 18.2822 25.4063V24.8438C18.8447 24.8438 19.2666 24.375 19.2666 23.8125C19.2666 23.2031 19.5947 22.6875 20.1104 22.3125C22.7822 20.4375 24.2354 17.25 23.8604 13.9687Z" fill="#393737"/>
<path d="M14.0625 25.7812C13.7812 25.7812 13.5938 25.9687 13.5938 26.25C13.5938 26.5312 13.7812 26.7188 14.0625 26.7188H15.9375C16.2188 26.7188 16.4062 26.5312 16.4062 26.25C16.4062 25.9687 16.2188 25.7812 15.9375 25.7812H14.0625Z" fill="#393737"/>
<path d="M6.70312 7.35937C6.79688 7.45312 7.17187 7.59375 7.35937 7.35937C7.54687 7.17187 7.54687 6.89062 7.35937 6.70312L5.39062 4.73438C5.20312 4.54688 4.92188 4.54688 4.73438 4.73438C4.54688 4.92188 4.54688 5.20312 4.73438 5.39062L6.70312 7.35937Z" fill="#393737"/>
<path d="M3.75 14.5312H0.9375C0.65625 14.5312 0.46875 14.7187 0.46875 15C0.46875 15.2812 0.65625 15.4688 0.9375 15.4688H3.75C4.03125 15.4688 4.21875 15.2812 4.21875 15C4.21875 14.7187 4.03125 14.5312 3.75 14.5312Z" fill="#393737"/>
<path d="M6.70312 22.6406L4.73438 24.6094C4.54688 24.7969 4.54688 25.0781 4.73438 25.2656C4.96875 25.5 5.29687 25.3594 5.39062 25.2656L7.35937 23.2969C7.54687 23.1094 7.54687 22.8281 7.35937 22.6406C7.17187 22.4531 6.89062 22.4531 6.70312 22.6406Z" fill="#393737"/>
<path d="M23.2969 22.6406C23.1094 22.4531 22.8281 22.4531 22.6406 22.6406C22.4531 22.8281 22.4531 23.1094 22.6406 23.2969L24.6094 25.2656C24.7031 25.3594 25.0313 25.5 25.2656 25.2656C25.4531 25.0781 25.4531 24.7969 25.2656 24.6094L23.2969 22.6406Z" fill="#393737"/>
<path d="M29.0625 14.5312H26.25C25.9687 14.5312 25.7812 14.7187 25.7812 15C25.7812 15.2812 25.9687 15.4688 26.25 15.4688H29.0625C29.3438 15.4688 29.5312 15.2812 29.5312 15C29.5312 14.7187 29.3438 14.5312 29.0625 14.5312Z" fill="#393737"/>
<path d="M24.608 4.73438L22.6393 6.70312C22.4518 6.89062 22.4987 7.17187 22.6393 7.35937C22.8268 7.64062 23.2018 7.45312 23.2955 7.35937L25.2643 5.39062C25.4518 5.20312 25.4518 4.92188 25.2643 4.73438C25.0768 4.54688 24.7955 4.54688 24.608 4.73438Z" fill="#393737"/>
</g>
<defs>
<clipPath id="clip0_58_1266">
<rect width="30" height="30" fill="white"/>
</clipPath>
</defs>
</svg>
