<svg width="30" height="30" viewBox="0 0 30 30" fill="none" xmlns="http://www.w3.org/2000/svg">
<g clip-path="url(#clip0_58_1246)">
<path d="M27.3971 3.80208L27.1529 3.5578C25.4778 1.88278 23.244 0.970655 20.8632 0.995616C18.6863 1.01653 16.6252 1.81265 14.9996 3.24937C13.3746 1.81821 11.2975 1.03634 9.09041 1.03634C6.69035 1.03634 4.44416 1.96077 2.76563 3.63937L2.60297 3.80196C0.924375 5.48062 0 7.71239 0 10.0863C0 12.4603 0.924434 14.692 2.60291 16.3703L4.41164 18.179L4.07766 18.5474C3.24053 19.4708 3.2751 20.8845 4.15641 21.7659C4.6135 22.223 5.24262 22.4693 5.8882 22.4475C5.83061 23.1122 6.06398 23.7941 6.58383 24.298C7.01725 24.7181 7.58385 24.9474 8.18508 24.9474C8.31967 24.9474 8.4542 24.9359 8.58674 24.9129C8.61352 25.456 8.83348 25.9906 9.24545 26.4059C9.67775 26.8416 10.2501 27.0798 10.8618 27.0798C11.0685 27.0798 11.2751 27.0524 11.4745 26.9975C11.5372 27.4626 11.7432 27.9121 12.0928 28.2802C12.5279 28.7384 13.1155 28.9956 13.7473 29.0044C14.3714 29.0139 14.9793 28.767 15.4213 28.3268L22.461 21.3064C22.6902 21.0772 22.6902 20.7054 22.4609 20.4762C22.2316 20.2469 21.8599 20.247 21.6306 20.4763L14.593 27.4946C14.2457 27.8405 13.6982 27.9289 13.2604 27.7075C12.8497 27.4998 12.5957 27.0538 12.6351 26.5946C12.6568 26.3419 12.7645 26.1018 12.934 25.9138L17.2297 21.2153C17.4485 20.976 17.4318 20.6047 17.1925 20.3859C16.9532 20.167 16.5819 20.1837 16.3631 20.423L11.6791 25.5461C11.473 25.7715 11.1914 25.8991 10.8861 25.9053C10.5788 25.9113 10.2942 25.7955 10.0791 25.5788C9.66346 25.1599 9.64969 24.4905 10.0478 24.0549L14.9251 18.788C15.146 18.5507 15.1328 18.1792 14.8955 17.9582C14.6582 17.7373 14.2867 17.7506 14.0658 17.9878L9.01313 23.4136C8.80471 23.6374 8.52152 23.765 8.21584 23.7728C7.90951 23.7799 7.62076 23.6677 7.40115 23.4548C6.95906 23.0263 6.93873 22.3351 7.35469 21.8812L12.4934 16.2753C12.7125 16.0363 12.6964 15.6649 12.4574 15.4458C12.2183 15.2266 11.847 15.2429 11.6279 15.4819L6.66205 20.8993C6.22189 21.3792 5.4477 21.3962 4.98686 20.9355C4.54887 20.4974 4.53164 19.7948 4.94771 19.3359L14.0902 9.25148L16.1303 10.953C17.1482 11.8019 18.6696 11.7228 19.5939 10.7727C20.0842 10.2688 20.3466 9.57691 20.3139 8.87448C20.2811 8.17212 19.9554 7.50755 19.4204 7.05134L15.8844 4.03675C17.2812 2.84607 19.0682 2.18706 20.9126 2.16937C20.938 2.16913 20.8872 2.16937 20.9126 2.16937C22.947 2.16937 24.8903 2.9554 26.3227 4.38778L26.5669 4.63206C28.0236 6.08882 28.8259 8.02575 28.8259 10.0861C28.8259 12.1464 28.0236 14.0832 26.5669 15.5397L25.3222 16.7845C25.0929 17.0137 25.0929 17.3855 25.3222 17.6147C25.5515 17.844 25.9232 17.844 26.1525 17.6147L27.3971 16.37C29.0756 14.692 30 12.4604 30 10.0863C30 7.71239 29.0756 5.48062 27.3971 3.80208ZM19.1409 8.92939C19.1588 9.31423 19.0208 9.67816 18.7522 9.95425C18.2531 10.4672 17.4318 10.5098 16.8823 10.0515L14.4096 7.98913C14.1679 7.78757 13.8101 7.81241 13.5986 8.04568L5.20125 17.3081L3.43312 15.54C1.97643 14.0835 1.17416 12.1467 1.17416 10.0864C1.17416 8.02611 1.97643 6.08911 3.43312 4.63235L3.59578 4.46976C5.05254 3.01294 7.00389 2.21062 9.09029 2.21062C11.1767 2.21062 13.128 3.01294 14.5848 4.46976C14.5914 4.47638 18.6584 7.94513 18.6584 7.94513C18.9516 8.19503 19.1229 8.5446 19.1409 8.92939Z" fill="#393737"/>
<path d="M23.4574 18.6402C23.236 18.8763 23.2479 19.2471 23.484 19.4685C23.72 19.6898 24.0908 19.6779 24.3122 19.4418C24.5335 19.2057 24.5216 18.8349 24.2856 18.6136C24.0495 18.3923 23.6787 18.4042 23.4574 18.6402Z" fill="#393737"/>
</g>
<defs>
<clipPath id="clip0_58_1246">
<rect width="30" height="30" fill="white"/>
</clipPath>
</defs>
</svg>
