<svg width="50" height="50" viewBox="0 0 50 50" fill="none" xmlns="http://www.w3.org/2000/svg">
<path d="M46.875 18.75C46.875 18.1284 46.6281 17.5323 46.1885 17.0927C45.749 16.6532 45.1529 16.4062 44.5312 16.4062H43.75V13.6406C44.241 13.2025 44.634 12.6657 44.9033 12.0653C45.1726 11.4648 45.312 10.8143 45.3125 10.1562V9.97188L41.1078 1.5625H8.89219L4.6875 9.97188V10.1562C4.688 10.8143 4.82744 11.4648 5.0967 12.0653C5.36595 12.6657 5.75896 13.2025 6.25 13.6406V16.4062H5.46875C4.84715 16.4062 4.25101 16.6532 3.81147 17.0927C3.37193 17.5323 3.125 18.1284 3.125 18.75V43.75H1.5625V46.0938C1.5625 46.7154 1.80943 47.3115 2.24897 47.751C2.68851 48.1906 3.28465 48.4375 3.90625 48.4375H46.0938C46.7154 48.4375 47.3115 48.1906 47.751 47.751C48.1906 47.3115 48.4375 46.7154 48.4375 46.0938V43.75H46.875V18.75ZM35.425 3.125H40.1422L43.7453 10.3313C43.7007 11.1444 43.3405 11.9079 42.7414 12.4594C42.1422 13.0109 41.3515 13.3068 40.5375 13.284C39.7235 13.2612 38.9505 12.9215 38.3832 12.3373C37.8159 11.7531 37.499 10.9706 37.5 10.1562L35.425 3.125ZM33.7938 3.125L35.9375 10.2648C35.9127 11.0936 35.5598 11.8787 34.9562 12.4472C34.3526 13.0158 33.5479 13.3212 32.7191 13.2965C31.8903 13.2717 31.1053 12.9187 30.5368 12.3152C29.9682 11.7116 29.6627 10.9069 29.6875 10.0781L28.9844 3.125H33.7938ZM22.582 3.125H27.4219L28.125 10.193C28.1305 11.0218 27.8065 11.8188 27.2243 12.4087C26.6422 12.9987 25.8495 13.3332 25.0207 13.3387C24.1919 13.3442 23.3949 13.0202 22.8049 12.438C22.215 11.8559 21.8805 11.0632 21.875 10.2344L22.582 3.125ZM21.0156 3.125L20.3125 10.1562C20.3269 10.9851 20.0115 11.7856 19.4356 12.3819C18.8597 12.9781 18.0706 13.3211 17.2418 13.3355C16.413 13.3499 15.6124 13.0345 15.0162 12.4586C14.42 11.8828 14.0769 11.0936 14.0625 10.2648L16.2062 3.125H21.0156ZM9.85781 3.125H14.575L12.5328 9.93203L12.5 10.1562C12.501 10.9706 12.1841 11.7531 11.6168 12.3373C11.0495 12.9215 10.2765 13.2612 9.46253 13.284C8.64853 13.3068 7.85777 13.0109 7.25862 12.4594C6.65947 11.9079 6.29926 11.1444 6.25469 10.3313L9.85781 3.125ZM9.375 14.8438C10.1493 14.8433 10.9114 14.6509 11.5931 14.2838C12.2748 13.9166 12.8548 13.3861 13.2812 12.7398C13.7083 13.3857 14.2885 13.9158 14.9702 14.2829C15.6519 14.6501 16.4138 14.8428 17.1881 14.8438C17.9623 14.8449 18.7248 14.6544 19.4075 14.2892C20.0902 13.9239 20.672 13.3954 21.1008 12.7508C21.5284 13.3948 22.1088 13.9229 22.7902 14.2879C23.4716 14.6529 24.2328 14.8435 25.0058 14.8426C25.7788 14.8418 26.5396 14.6495 27.2202 14.283C27.9008 13.9165 28.4801 13.3871 28.9062 12.7422C29.3328 13.3881 29.913 13.9182 30.5947 14.2849C31.2764 14.6517 32.0384 14.8436 32.8125 14.8436C33.5866 14.8436 34.3486 14.6517 35.0303 14.2849C35.712 13.9182 36.2922 13.3881 36.7188 12.7422C37.2922 13.6172 38.1436 14.2737 39.1357 14.6058C40.1278 14.9378 41.2028 14.9262 42.1875 14.5727V40.625H7.8125V14.5703C8.31392 14.7499 8.84238 14.8424 9.375 14.8438ZM4.6875 18.75C4.6875 18.5428 4.76981 18.3441 4.91632 18.1976C5.06284 18.0511 5.26155 17.9688 5.46875 17.9688H6.25V42.1875H43.75V17.9688H44.5312C44.7384 17.9688 44.9372 18.0511 45.0837 18.1976C45.2302 18.3441 45.3125 18.5428 45.3125 18.75V43.75H4.6875V18.75ZM46.875 46.0938C46.875 46.3009 46.7927 46.4997 46.6462 46.6462C46.4997 46.7927 46.3009 46.875 46.0938 46.875H3.90625C3.69905 46.875 3.50034 46.7927 3.35382 46.6462C3.20731 46.4997 3.125 46.3009 3.125 46.0938V45.3125H46.875V46.0938Z" fill="#B9F8B1"/>
<path d="M17.3281 34.375H36.625L38.3961 21.0938H16.2656L15.4844 17.1875H11.7188V18.75H14.2031L17.3281 34.375ZM36.6078 22.6562L35.2539 32.8125H18.6094L16.5781 22.6562H36.6078Z" fill="#B9F8B1"/>
<path d="M18.75 36.7188C18.75 37.1823 18.8875 37.6354 19.145 38.0209C19.4025 38.4063 19.7686 38.7067 20.1968 38.8841C20.6251 39.0615 21.0964 39.1079 21.551 39.0175C22.0056 38.927 22.4233 38.7038 22.751 38.376C23.0788 38.0483 23.302 37.6306 23.3925 37.176C23.4829 36.7213 23.4365 36.2501 23.2591 35.8218C23.0817 35.3936 22.7813 35.0275 22.3959 34.77C22.0104 34.5125 21.5573 34.375 21.0938 34.375C20.4721 34.375 19.876 34.6219 19.4365 35.0615C18.9969 35.501 18.75 36.0971 18.75 36.7188ZM21.0938 35.9375C21.2483 35.9375 21.3993 35.9833 21.5278 36.0692C21.6563 36.155 21.7564 36.277 21.8155 36.4198C21.8747 36.5625 21.8901 36.7196 21.86 36.8712C21.8298 37.0227 21.7554 37.1619 21.6462 37.2712C21.5369 37.3804 21.3977 37.4548 21.2462 37.485C21.0946 37.5151 20.9375 37.4997 20.7948 37.4405C20.652 37.3814 20.53 37.2813 20.4442 37.1528C20.3583 37.0243 20.3125 36.8733 20.3125 36.7188C20.3125 36.5115 20.3948 36.3128 20.5413 36.1663C20.6878 36.0198 20.8865 35.9375 21.0938 35.9375Z" fill="#B9F8B1"/>
<path d="M30.4688 36.7188C30.4688 37.1823 30.6062 37.6354 30.8637 38.0209C31.1213 38.4063 31.4873 38.7067 31.9156 38.8841C32.3439 39.0615 32.8151 39.1079 33.2697 39.0175C33.7244 38.927 34.142 38.7038 34.4698 38.376C34.7976 38.0483 35.0208 37.6306 35.1112 37.176C35.2017 36.7213 35.1552 36.2501 34.9778 35.8218C34.8004 35.3936 34.5 35.0275 34.1146 34.77C33.7292 34.5125 33.2761 34.375 32.8125 34.375C32.1909 34.375 31.5948 34.6219 31.1552 35.0615C30.7157 35.501 30.4688 36.0971 30.4688 36.7188ZM32.8125 35.9375C32.967 35.9375 33.1181 35.9833 33.2465 36.0692C33.375 36.155 33.4751 36.277 33.5343 36.4198C33.5934 36.5625 33.6089 36.7196 33.5787 36.8712C33.5486 37.0227 33.4742 37.1619 33.3649 37.2712C33.2557 37.3804 33.1165 37.4548 32.9649 37.485C32.8134 37.5151 32.6563 37.4997 32.5135 37.4405C32.3708 37.3814 32.2488 37.2813 32.1629 37.1528C32.0771 37.0243 32.0313 36.8733 32.0313 36.7188C32.0313 36.5115 32.1136 36.3128 32.2601 36.1663C32.4066 36.0198 32.6053 35.9375 32.8125 35.9375Z" fill="#B9F8B1"/>
</svg>
