<svg width="50" height="50" viewBox="0 0 50 50" fill="none" xmlns="http://www.w3.org/2000/svg">
<path d="M19.1747 15.9521C16.3789 17.7592 14.6657 20.8384 14.6035 24.1663C14.6035 24.6268 14.9766 24.9998 15.4366 24.9998C15.8971 24.9998 16.2702 24.6268 16.2702 24.1663C16.3274 21.4217 17.7358 18.8818 20.0337 17.38C20.4205 17.1393 20.5422 16.6327 20.3076 16.2424C20.0726 15.8526 19.568 15.7229 19.1747 15.9521Z" fill="#B9F8B1"/>
<path d="M44.603 20.8332C42.6239 20.8359 40.9187 22.2282 40.5205 24.1665H30.352C30.1594 23.254 29.665 22.4331 28.9486 21.8357L31.7642 16.6668H34.687C35.1151 18.7626 37.0602 20.1939 39.1884 19.9787C41.3166 19.7639 42.9363 17.9722 42.9363 15.8333C42.9363 13.6944 41.3166 11.9026 39.1884 11.6879C37.0602 11.4727 35.1151 12.9044 34.687 15.0002H32.103V9.51157L34.948 6.66656H38.8538C39.2815 8.76236 41.227 10.194 43.3552 9.97887C45.4834 9.7641 47.1031 7.97234 47.1031 5.83344C47.1031 3.69415 45.4834 1.90277 43.3552 1.68762C41.227 1.47285 39.2815 2.90413 38.8538 4.99992H34.948C34.5062 5.00107 34.0828 5.17654 33.7696 5.4882L33.0551 6.20308C32.4696 5.9864 31.8737 5.7991 31.2695 5.64232V1.66664C31.2683 0.746536 30.5229 0.00114441 29.6028 0H22.9362C22.0161 0.00114441 21.2708 0.746536 21.2696 1.66664V5.64156C19.458 6.10352 17.7212 6.82106 16.1118 7.77168L13.3163 4.97589C13.0047 4.65469 12.5755 4.47388 12.1277 4.47502H12.1262C11.6825 4.47311 11.2568 4.65126 10.947 4.96902L6.2458 9.66949C5.92651 9.98077 5.74608 10.4073 5.74455 10.8528C5.74341 11.2988 5.92117 11.7264 6.23856 12.0396L9.04045 14.8418C8.08983 16.4516 7.37267 18.1885 6.90994 20.0001H2.93617C2.01607 20.0012 1.27068 20.7466 1.26953 21.6667V28.3333C1.27068 29.2534 2.01607 29.9988 2.93617 29.9999H6.90994C7.37267 31.8115 8.08983 33.5484 9.04045 35.1582L6.2458 37.9528C5.92651 38.2641 5.74608 38.6906 5.74455 39.1361C5.74341 39.5821 5.92117 40.0097 6.23856 40.3225L10.9398 45.0233C11.2507 45.3449 11.6791 45.5261 12.1265 45.525H12.1281C12.5725 45.5269 12.9982 45.3487 13.3091 45.031L16.1118 42.2287C17.7212 43.1793 19.458 43.8969 21.2696 44.3588V48.3334C21.2708 49.2535 22.0161 49.9989 22.9362 50H29.6028C30.5229 49.9989 31.2683 49.2535 31.2695 48.3334V44.3577C31.8737 44.2009 32.4696 44.0136 33.0551 43.7969L33.7696 44.5118C34.0828 44.8235 34.5062 44.9989 34.948 45.0001H38.8538C39.2815 47.0959 41.227 48.5271 43.3552 48.3124C45.4834 48.0972 47.1031 46.3058 47.1031 44.1666C47.1031 42.0277 45.4834 40.2359 43.3552 40.0211C41.227 39.806 39.2815 41.2376 38.8538 43.3334H34.948L32.103 40.4884V34.9998H34.687C35.1151 37.0956 37.0602 38.5273 39.1884 38.3121C41.3166 38.0974 42.9363 36.3056 42.9363 34.1667C42.9363 32.0278 41.3166 30.2361 39.1884 30.0213C37.0602 29.8061 35.1151 31.2374 34.687 33.3332H31.7642L28.9486 28.1643C29.665 27.5669 30.1594 26.746 30.352 25.8335H40.5205C40.9592 27.9816 42.9874 29.4228 45.1607 29.129C47.3335 28.8357 48.9075 26.9081 48.7602 24.7204C48.613 22.5327 46.7957 20.8332 44.603 20.8332ZM42.9363 3.33328C44.3169 3.33328 45.4361 4.45251 45.4361 5.83344C45.4361 7.21397 44.3169 8.33321 42.9363 8.33321C41.5554 8.33321 40.4362 7.21397 40.4362 5.83344C40.4377 4.45328 41.5562 3.33481 42.9363 3.33328ZM42.9363 41.6668C44.3169 41.6668 45.4361 42.786 45.4361 44.1666C45.4361 45.5475 44.3169 46.6667 42.9363 46.6667C41.5554 46.6667 40.4362 45.5475 40.4362 44.1666C40.4377 42.7864 41.5562 41.6683 42.9363 41.6668ZM26.2695 27.5002C24.889 27.5002 23.7694 26.3805 23.7694 25C23.7694 23.6195 24.889 22.4998 26.2695 22.4998C27.6501 22.4998 28.7697 23.6195 28.7697 25C28.7682 26.3802 27.6497 27.4986 26.2695 27.5002ZM38.7695 13.3335C40.1501 13.3335 41.2697 14.4527 41.2697 15.8333C41.2697 17.2142 40.1501 18.3334 38.7695 18.3334C37.389 18.3334 36.2694 17.2142 36.2694 15.8333C36.2709 14.4531 37.3894 13.335 38.7695 13.3335ZM30.2555 42.8867C29.874 42.971 29.6028 43.3094 29.6028 43.7V48.3334H22.9362V43.7C22.9362 43.3083 22.6635 42.9695 22.2813 42.886C20.2049 42.4309 18.2255 41.6138 16.433 40.4716C16.1034 40.2634 15.6734 40.3107 15.3973 40.5861L12.1258 43.8526L7.4173 39.1392L10.6838 35.8727C10.96 35.5965 11.0073 35.1658 10.7979 34.8366C9.65614 33.0441 8.83865 31.0642 8.38318 28.9886C8.29964 28.606 7.96089 28.3337 7.5695 28.3333H2.93617V21.6667H7.5695C7.96089 21.6667 8.29964 21.394 8.38318 21.0117C8.83865 18.9358 9.65614 16.9559 10.7979 15.1634C11.0073 14.8342 10.96 14.4035 10.6838 14.1277L7.4173 10.8559L12.1307 6.14738L15.3973 9.41391C15.6734 9.69009 16.1041 9.73778 16.4333 9.52835C18.2259 8.38623 20.2053 7.56912 22.2813 7.11441C22.6639 7.03049 22.9362 6.69136 22.9362 6.29997V1.66664H29.6028V6.29997C29.6028 6.6906 29.874 7.02896 30.2555 7.11327C30.7709 7.22809 31.2664 7.36351 31.7455 7.51228L30.9246 8.33321C30.6107 8.64525 30.4352 9.06944 30.4363 9.51157V10.5915C24.3084 8.81767 17.7292 11.1134 14.0354 16.3147C10.3413 21.5157 10.3413 28.4843 14.0354 33.6853C17.7292 38.8866 24.3084 41.1823 30.4363 39.4085V40.4884C30.4352 40.9306 30.611 41.3548 30.9246 41.6668L31.7455 42.4873C31.2664 42.6369 30.7709 42.7719 30.2555 42.8867ZM38.7695 31.6666C40.1501 31.6666 41.2697 32.7858 41.2697 34.1667C41.2697 35.5473 40.1501 36.6665 38.7695 36.6665C37.389 36.6665 36.2694 35.5473 36.2694 34.1667C36.2709 32.7866 37.3894 31.6681 38.7695 31.6666ZM30.4363 34.3788V37.6556C24.9348 39.4798 18.8847 37.5412 15.4686 32.8587C12.0522 28.1765 12.0522 21.8235 15.4686 17.1413C18.8847 12.4588 24.9348 10.5202 30.4363 12.3444V15.6212L27.4868 21.0358C27.0935 20.9076 26.683 20.8393 26.2695 20.8332C23.9685 20.8332 22.1027 22.699 22.1027 25C22.1027 27.301 23.9685 29.1668 26.2695 29.1668C26.683 29.1607 27.0935 29.0924 27.4868 28.9642L30.4363 34.3788ZM44.603 27.5002C43.222 27.5002 42.1028 26.3805 42.1028 25C42.1028 23.6195 43.222 22.4998 44.603 22.4998C45.9835 22.4998 47.1027 23.6195 47.1027 25C47.1012 26.3802 45.9831 27.4986 44.603 27.5002Z" fill="#B9F8B1"/>
</svg>
