<svg width="30" height="30" viewBox="0 0 30 30" fill="none" xmlns="http://www.w3.org/2000/svg">
<path d="M16.6574 9.51889H18.6833C19.0342 9.51889 19.3192 9.23385 19.3192 8.88298C19.3192 8.53211 19.0342 8.24707 18.6833 8.24707H16.6574C16.3065 8.24707 16.0215 8.53211 16.0215 8.88298C16.0215 9.23385 16.3058 9.51889 16.6574 9.51889Z" fill="#393737"/>
<path d="M11.3156 9.51937H13.3415C13.6924 9.51937 13.9774 9.23434 13.9774 8.88347C13.9774 8.53259 13.6924 8.24756 13.3415 8.24756H11.3156C10.9647 8.24756 10.6797 8.53259 10.6797 8.88347C10.6797 9.23434 10.9647 9.51937 11.3156 9.51937Z" fill="#393737"/>
<path d="M16.6574 12.7308H18.6833C19.0342 12.7308 19.3192 12.4458 19.3192 12.0949C19.3192 11.744 19.0342 11.459 18.6833 11.459H16.6574C16.3065 11.459 16.0215 11.744 16.0215 12.0949C16.0215 12.4458 16.3058 12.7308 16.6574 12.7308Z" fill="#393737"/>
<path d="M11.3156 12.7308H13.3415C13.6924 12.7308 13.9774 12.4458 13.9774 12.0949C13.9774 11.744 13.6924 11.459 13.3415 11.459H11.3156C10.9647 11.459 10.6797 11.744 10.6797 12.0949C10.6797 12.4458 10.9647 12.7308 11.3156 12.7308Z" fill="#393737"/>
<path d="M16.6574 15.9417H18.6833C19.0342 15.9417 19.3192 15.6567 19.3192 15.3058C19.3192 14.955 19.0342 14.6699 18.6833 14.6699H16.6574C16.3065 14.6699 16.0215 14.955 16.0215 15.3058C16.0215 15.6567 16.3058 15.9417 16.6574 15.9417Z" fill="#393737"/>
<path d="M11.3156 15.9417H13.3415C13.6924 15.9417 13.9774 15.6567 13.9774 15.3058C13.9774 14.955 13.6924 14.6699 13.3415 14.6699H11.3156C10.9647 14.6699 10.6797 14.955 10.6797 15.3058C10.6797 15.6567 10.9647 15.9417 11.3156 15.9417Z" fill="#393737"/>
<path d="M16.6574 19.1527H18.6833C19.0342 19.1527 19.3192 18.8676 19.3192 18.5168C19.3192 18.1659 19.0342 17.8809 18.6833 17.8809H16.6574C16.3065 17.8809 16.0215 18.1659 16.0215 18.5168C16.0215 18.8676 16.3058 19.1527 16.6574 19.1527Z" fill="#393737"/>
<path d="M11.3156 19.1527H13.3415C13.6924 19.1527 13.9774 18.8676 13.9774 18.5168C13.9774 18.1659 13.6924 17.8809 13.3415 17.8809H11.3156C10.9647 17.8809 10.6797 18.1659 10.6797 18.5168C10.6797 18.8676 10.9647 19.1527 11.3156 19.1527Z" fill="#393737"/>
<path d="M16.6574 22.3636H18.6833C19.0342 22.3636 19.3192 22.0786 19.3192 21.7277C19.3192 21.3768 19.0342 21.0918 18.6833 21.0918H16.6574C16.3065 21.0918 16.0215 21.3768 16.0215 21.7277C16.0215 22.0786 16.3058 22.3636 16.6574 22.3636Z" fill="#393737"/>
<path d="M11.3156 22.3636H13.3415C13.6924 22.3636 13.9774 22.0786 13.9774 21.7277C13.9774 21.3768 13.6924 21.0918 13.3415 21.0918H11.3156C10.9647 21.0918 10.6797 21.3768 10.6797 21.7277C10.6797 22.0786 10.9647 22.3636 11.3156 22.3636Z" fill="#393737"/>
<path d="M16.6574 25.5755H18.6833C19.0342 25.5755 19.3192 25.2905 19.3192 24.9396C19.3192 24.5887 19.0342 24.3037 18.6833 24.3037H16.6574C16.3065 24.3037 16.0215 24.5887 16.0215 24.9396C16.0215 25.2905 16.3058 25.5755 16.6574 25.5755Z" fill="#393737"/>
<path d="M11.3156 25.5755H13.3415C13.6924 25.5755 13.9774 25.2905 13.9774 24.9396C13.9774 24.5887 13.6924 24.3037 13.3415 24.3037H11.3156C10.9647 24.3037 10.6797 24.5887 10.6797 24.9396C10.6797 25.2905 10.9647 25.5755 11.3156 25.5755Z" fill="#393737"/>
<path d="M29.364 14.6701H23.0012V5.57292C23.0012 5.29985 22.8268 5.05671 22.5672 4.96993L7.83663 0.0330425C7.64286 -0.0320445 7.4289 0.000124937 7.26281 0.119825C7.09673 0.239525 6.99797 0.431794 6.99797 0.636033V8.13451H0.635908C0.285036 8.13451 0 8.41954 0 8.77041V29.3641C0 29.715 0.285036 30 0.635908 30H29.364C29.7148 30 29.9999 29.715 29.9999 29.3641V15.306C29.9999 14.9544 29.7148 14.6701 29.364 14.6701ZM8.27054 1.51957L21.7293 6.03003V28.7282H8.27054V1.51957ZM1.27182 9.40632H6.99872V28.7282H1.27182V9.40632ZM28.7281 28.7282H23.0012V15.942H28.7281V28.7282Z" fill="#393737"/>
<path d="M25.2218 19.1527H26.5071C26.858 19.1527 27.143 18.8676 27.143 18.5168C27.143 18.1659 26.858 17.8809 26.5071 17.8809H25.2218C24.871 17.8809 24.5859 18.1659 24.5859 18.5168C24.5859 18.8676 24.871 19.1527 25.2218 19.1527Z" fill="#393737"/>
<path d="M25.2199 22.3636H26.5052C26.856 22.3636 27.1411 22.0786 27.1411 21.7277C27.1411 21.3768 26.856 21.0918 26.5052 21.0918H25.2199C24.869 21.0918 24.584 21.3768 24.584 21.7277C24.584 22.0786 24.869 22.3636 25.2199 22.3636Z" fill="#393737"/>
<path d="M26.5052 24.3037H25.2199C24.869 24.3037 24.584 24.5887 24.584 24.9396C24.584 25.2905 24.869 25.5755 25.2199 25.5755H26.5052C26.856 25.5755 27.1411 25.2905 27.1411 24.9396C27.1411 24.5887 26.856 24.3037 26.5052 24.3037Z" fill="#393737"/>
<path d="M3.49138 19.1527H4.77666C5.12753 19.1527 5.41257 18.8676 5.41257 18.5168C5.41257 18.1659 5.12753 17.8809 4.77666 17.8809H3.49138C3.1405 17.8809 2.85547 18.1659 2.85547 18.5168C2.85547 18.8676 3.1405 19.1527 3.49138 19.1527Z" fill="#393737"/>
<path d="M3.49138 15.9417H4.77666C5.12753 15.9417 5.41257 15.6567 5.41257 15.3058C5.41257 14.955 5.12753 14.6699 4.77666 14.6699H3.49138C3.1405 14.6699 2.85547 14.955 2.85547 15.3058C2.85547 15.6567 3.1405 15.9417 3.49138 15.9417Z" fill="#393737"/>
<path d="M3.49138 12.7308H4.77666C5.12753 12.7308 5.41257 12.4458 5.41257 12.0949C5.41257 11.744 5.12753 11.459 4.77666 11.459H3.49138C3.1405 11.459 2.85547 11.744 2.85547 12.0949C2.85547 12.4458 3.1405 12.7308 3.49138 12.7308Z" fill="#393737"/>
<path d="M4.77861 21.0918H3.49333C3.14246 21.0918 2.85742 21.3768 2.85742 21.7277C2.85742 22.0786 3.14246 22.3636 3.49333 22.3636H4.77861C5.12948 22.3636 5.41452 22.0786 5.41452 21.7277C5.41452 21.3768 5.12948 21.0918 4.77861 21.0918Z" fill="#393737"/>
<path d="M4.77861 24.3037H3.49333C3.14246 24.3037 2.85742 24.5887 2.85742 24.9396C2.85742 25.2905 3.14246 25.5755 3.49333 25.5755H4.77861C5.12948 25.5755 5.41452 25.2905 5.41452 24.9396C5.41452 24.5887 5.12948 24.3037 4.77861 24.3037Z" fill="#393737"/>
</svg>
