<svg width="50" height="50" viewBox="0 0 50 50" fill="none" xmlns="http://www.w3.org/2000/svg">
<g clip-path="url(#clip0_43_1320)">
<path d="M16.406 20.3125V25C16.406 25.3906 16.6404 25.625 17.031 25.7813C17.4216 25.9375 17.8123 25.625 17.8904 25.3125L18.4373 24.2188C18.8279 23.5938 19.4529 23.75 19.531 23.8281V24.1406C19.531 25 20.2341 25.7031 21.0935 25.7813V26.5625C21.0935 26.7188 21.1716 26.9531 21.3279 27.0313L22.656 28.3594V29.6875C22.031 29.2188 21.1716 28.9063 20.3123 28.9063C19.7654 28.9063 19.2966 28.9844 18.906 29.1406C18.2029 28.0469 17.031 27.3438 15.6248 27.3438C14.9998 27.3438 14.2966 27.5 13.7498 27.8125C13.3591 28.0469 13.2029 28.5156 13.4373 28.9063C13.6716 29.2969 14.1404 29.4531 14.531 29.2188C14.8435 28.9844 15.2341 28.9063 15.6248 28.9063C16.9529 28.9063 17.9685 29.9219 17.9685 31.25C17.9685 31.6406 17.8904 32.0313 17.656 32.5C17.4998 32.8906 17.5779 33.4375 17.9685 33.5156C18.5935 33.6719 18.906 33.4375 18.9841 33.2031C19.2966 32.5781 19.4529 31.9531 19.4529 31.3281C19.4529 31.0938 19.4529 30.9375 19.3748 30.7031C19.7654 30.4688 20.0779 30.4688 20.3123 30.4688C21.6404 30.4688 22.656 31.4844 22.656 32.8125C22.656 33.2813 22.9685 33.5938 23.4373 33.5938C23.906 33.5938 24.2185 33.2813 24.2185 32.8125V28.9063H25.781V32.8125C25.781 33.2813 26.0935 33.5938 26.5623 33.5938C27.031 33.5938 27.3435 33.2813 27.3435 32.8125C27.3435 31.4844 28.3591 30.4688 29.6873 30.4688C29.9216 30.4688 30.2341 30.4688 30.5466 30.625C30.5466 30.8594 30.4685 31.0156 30.4685 31.25C30.4685 31.875 30.6248 32.5781 30.9373 33.125C31.0935 33.4375 31.4841 33.6719 31.9529 33.4375C32.3435 33.2813 32.4998 32.8125 32.2654 32.4219C32.1091 32.0313 32.031 31.6406 32.031 31.25C32.031 29.9219 33.0466 28.9063 34.3748 28.9063C34.7654 28.9063 35.156 28.9844 35.4685 29.2188C35.8591 29.4531 36.3279 29.2969 36.5623 28.9063C36.7966 28.5156 36.6404 28.0469 36.2498 27.8125C35.7029 27.5 34.9998 27.3438 34.3748 27.3438C32.9685 27.3438 31.7966 28.0469 31.0935 29.1406C30.7029 28.9844 30.2341 28.9063 29.6873 28.9063C28.8279 28.9063 27.9685 29.2188 27.3435 29.6875V28.4375L28.6716 27.1094C28.8279 26.9531 28.906 26.7969 28.906 26.6406V25.7813C29.7654 25.7031 30.4685 25 30.4685 24.1406V23.8281C30.6248 23.75 30.9373 23.5156 31.5623 24.1406L32.1091 25.3125C32.2654 25.625 32.5779 25.8594 32.9685 25.7813C33.3591 25.7031 33.5935 25.3906 33.5935 25V20.3125C33.5935 20.1563 33.5154 19.9219 33.3591 19.8438L30.4685 16.875V12.2656C30.4685 10.625 30.2341 9.06251 29.7654 7.57814C29.6091 7.18751 29.2185 6.95314 28.7498 7.10939C28.3591 7.26564 28.1248 7.65626 28.281 8.12501C28.7498 9.45314 28.906 10.9375 28.906 12.3438V24.2188H21.0935V12.2656C21.0935 8.67189 22.4998 5.23439 24.9998 2.65626C25.781 3.43751 26.406 4.29689 26.9529 5.23439C27.1873 5.62501 27.656 5.70314 28.0466 5.46876C28.4373 5.23439 28.5154 4.76564 28.281 4.37501C27.656 3.28126 26.8748 2.34376 26.0154 1.40626L25.5466 0.937513C25.3904 0.781263 24.9998 0.468763 24.4529 0.937513L23.9841 1.40626C21.0935 4.37501 19.531 8.20314 19.531 12.2656V16.875L16.6404 19.7656C16.4841 19.9219 16.406 20.0781 16.406 20.3125ZM30.4685 19.0625L32.031 20.625V22.5C31.4841 22.1094 30.7029 22.1875 30.4685 22.1875V19.0625ZM22.656 25.7813H27.3435V26.25L26.2498 27.3438H23.7498L22.656 26.25V25.7813ZM17.9685 20.625L19.531 19.0625V22.1875C18.9841 22.0313 18.281 22.3438 17.9685 22.5V20.625Z" fill="#B9F8B1"/>
<path d="M24.2188 17.1875V21.875C24.2188 22.3438 24.5312 22.6562 25 22.6562C25.4688 22.6562 25.7812 22.3438 25.7812 21.875V17.1875C25.7812 16.7187 25.4688 16.4062 25 16.4062C24.5312 16.4062 24.2188 16.7187 24.2188 17.1875Z" fill="#B9F8B1"/>
<path d="M27.3438 9.375C27.3438 8.04688 26.3281 7.03125 25 7.03125C23.6719 7.03125 22.6562 8.04688 22.6562 9.375C22.6562 9.84375 22.9687 10.1562 23.4375 10.1562C23.9062 10.1562 24.2188 9.84375 24.2188 9.375C24.2188 8.90625 24.5312 8.59375 25 8.59375C25.4688 8.59375 25.7812 8.90625 25.7812 9.375C25.7812 9.84375 25.4688 10.1562 25 10.1562C24.5312 10.1562 24.2188 10.4688 24.2188 10.9375C24.2188 11.4062 24.5312 11.7188 25 11.7188C26.3281 11.7188 27.3438 10.7031 27.3438 9.375Z" fill="#B9F8B1"/>
<path d="M10.9375 25.7812C11.4062 25.7812 11.7188 25.4688 11.7188 25C11.7188 20.5469 13.9063 16.4062 17.6563 13.9062C18.0469 13.6719 18.125 13.2031 17.8906 12.8125C17.6562 12.4219 17.1875 12.3438 16.7969 12.5781C12.6562 15.3906 10.1562 20 10.1562 25C10.1562 25.4688 10.4687 25.7812 10.9375 25.7812Z" fill="#B9F8B1"/>
<path d="M11.0941 27.3436C10.7035 27.4217 10.391 27.8905 10.4691 28.2811C10.6253 28.828 10.7816 29.3748 10.9378 29.8436C11.016 30.1561 11.4847 30.5467 11.9535 30.3123C12.3441 30.1561 12.5785 29.6873 12.4222 29.2967C12.266 28.828 12.1097 28.3592 12.0316 27.8905C11.9535 27.4998 11.5628 27.2655 11.0941 27.3436Z" fill="#B9F8B1"/>
<path d="M39.7656 23.2812C39.2969 18.9844 36.875 15.1563 33.2031 12.6563C32.8125 12.4219 32.3437 12.5 32.1094 12.8906C31.875 13.2812 31.9531 13.75 32.3438 13.9844C35.625 16.1719 37.7344 19.6094 38.2031 23.4375C38.75 28.3594 36.5625 33.2031 32.5 36.0156C31.25 36.875 30.4687 38.3594 30.5469 39.8438H19.5312C19.5312 38.2812 18.8281 36.875 17.5781 36.0156C16.1719 35 14.9219 33.8281 13.9844 32.4219C13.75 32.0312 13.2812 31.9531 12.8906 32.1875C12.5 32.4219 12.4219 32.8906 12.6563 33.2812C13.75 34.8437 15.0781 36.25 16.6406 37.3438C17.4219 37.8906 17.9687 38.75 17.9687 39.7656C17.8906 40.7031 18.6719 41.4062 19.5312 41.4844V46.0938C19.5312 47.0312 20.2344 47.7344 21.1719 47.7344H22.8125C23.125 48.6719 23.9844 49.2969 25 49.2969C26.0156 49.2969 26.875 48.6719 27.1875 47.7344H28.8281C29.7656 47.7344 30.4688 47.0312 30.4688 46.0938V44.5312C30.4688 44.0625 30.1562 43.75 29.6875 43.75C29.2188 43.75 28.9062 44.0625 28.9062 44.5312V46.0938H26.5625C26.1719 46.0938 25.7812 46.4062 25.7812 46.875C25.7812 47.3438 25.4687 47.6562 25 47.6562C24.5312 47.6562 24.2187 47.2656 24.2187 46.875C24.2187 46.4844 23.8281 46.0938 23.4375 46.0938H21.0937V41.4062H28.9062V42.3438C28.9062 42.8125 29.2188 43.125 29.6875 43.125C30.1562 43.125 30.4688 42.8125 30.4688 42.3438V41.4062C31.4062 41.4062 32.1094 40.625 32.1094 39.6875C32.1094 38.6719 32.6563 37.8125 33.5156 37.1875C37.9688 34.0625 40.3906 28.75 39.7656 23.2812Z" fill="#B9F8B1"/>
<path d="M23.4375 42.9688C22.9687 42.9688 22.6562 43.2812 22.6562 43.75C22.6562 44.2188 22.9687 44.5312 23.4375 44.5312H26.5625C27.0312 44.5312 27.3438 44.2188 27.3438 43.75C27.3438 43.2812 27.0312 42.9688 26.5625 42.9688H23.4375Z" fill="#B9F8B1"/>
<path d="M11.1719 12.2656C11.3281 12.4219 11.9531 12.6562 12.2656 12.2656C12.5781 11.9531 12.5781 11.4844 12.2656 11.1719L8.98437 7.89063C8.67187 7.57813 8.20312 7.57813 7.89063 7.89063C7.57813 8.20312 7.57813 8.67187 7.89063 8.98437L11.1719 12.2656Z" fill="#B9F8B1"/>
<path d="M6.25 24.2188H1.5625C1.09375 24.2188 0.78125 24.5312 0.78125 25C0.78125 25.4688 1.09375 25.7812 1.5625 25.7812H6.25C6.71875 25.7812 7.03125 25.4688 7.03125 25C7.03125 24.5312 6.71875 24.2188 6.25 24.2188Z" fill="#B9F8B1"/>
<path d="M11.1719 37.7344L7.89063 41.0156C7.57813 41.3281 7.57813 41.7969 7.89063 42.1094C8.28125 42.5 8.82812 42.2656 8.98437 42.1094L12.2656 38.8281C12.5781 38.5156 12.5781 38.0469 12.2656 37.7344C11.9531 37.4219 11.4844 37.4219 11.1719 37.7344Z" fill="#B9F8B1"/>
<path d="M38.8281 37.7344C38.5156 37.4219 38.0469 37.4219 37.7344 37.7344C37.4219 38.0469 37.4219 38.5156 37.7344 38.8281L41.0156 42.1094C41.1719 42.2656 41.7188 42.5 42.1094 42.1094C42.4219 41.7969 42.4219 41.3281 42.1094 41.0156L38.8281 37.7344Z" fill="#B9F8B1"/>
<path d="M48.4375 24.2188H43.75C43.2812 24.2188 42.9688 24.5312 42.9688 25C42.9688 25.4688 43.2812 25.7812 43.75 25.7812H48.4375C48.9062 25.7812 49.2188 25.4688 49.2188 25C49.2188 24.5312 48.9062 24.2188 48.4375 24.2188Z" fill="#B9F8B1"/>
<path d="M41.0157 7.89063L37.7344 11.1719C37.4219 11.4844 37.5001 11.9531 37.7344 12.2656C38.0469 12.7344 38.6719 12.4219 38.8282 12.2656L42.1094 8.98437C42.4219 8.67187 42.4219 8.20312 42.1094 7.89063C41.7969 7.57813 41.3282 7.57813 41.0157 7.89063Z" fill="#B9F8B1"/>
</g>
<defs>
<clipPath id="clip0_43_1320">
<rect width="50" height="50" fill="white"/>
</clipPath>
</defs>
</svg>
