<svg width="30" height="30" viewBox="0 0 30 30" fill="none" xmlns="http://www.w3.org/2000/svg">
<g clip-path="url(#clip0_58_1196)">
<path d="M18.7913 13.7993H16.5635C16.4163 13.7993 16.2969 13.9187 16.2969 14.066V16.2938C16.2969 16.441 16.4162 16.5604 16.5635 16.5604H18.7913C18.9386 16.5604 19.058 16.4411 19.058 16.2938V14.066C19.058 13.9187 18.9386 13.7993 18.7913 13.7993Z" stroke="#393737" stroke-width="1.2" stroke-miterlimit="10" stroke-linecap="round" stroke-linejoin="round"/>
<path d="M22.2523 0.600098H20.0245C19.8772 0.600098 19.7578 0.719512 19.7578 0.866758V3.09455C19.7578 3.2418 19.8772 3.36121 20.0245 3.36121H22.2523C22.3995 3.36121 22.5189 3.24186 22.5189 3.09455V0.866758C22.5189 0.719512 22.3995 0.600098 22.2523 0.600098Z" stroke="#393737" stroke-width="1.2" stroke-miterlimit="10" stroke-linecap="round" stroke-linejoin="round"/>
<path d="M26.973 11.1553H24.7452C24.5979 11.1553 24.4785 11.2747 24.4785 11.4219V13.6497C24.4785 13.797 24.5979 13.9164 24.7452 13.9164H26.973C27.1202 13.9164 27.2396 13.797 27.2396 13.6497V11.4219C27.2397 11.2746 27.1203 11.1553 26.973 11.1553Z" stroke="#393737" stroke-width="1.2" stroke-miterlimit="10" stroke-linecap="round" stroke-linejoin="round"/>
<path d="M28.2655 4.13916H24.3878C24.2405 4.13916 24.1211 4.25852 24.1211 4.40582V8.28355C24.1211 8.4308 24.2404 8.55021 24.3878 8.55021H28.2655C28.4127 8.55021 28.5321 8.43086 28.5321 8.28355V4.40582C28.5321 4.25852 28.4127 4.13916 28.2655 4.13916Z" stroke="#393737" stroke-width="1.2" stroke-miterlimit="10" stroke-linecap="round" stroke-linejoin="round"/>
<path d="M12.5896 15.9409C11.2683 15.9409 10.1934 17.0159 10.1934 18.3372C10.1934 19.6585 11.2683 20.7334 12.5896 20.7334C13.9109 20.7334 14.9859 19.6585 14.9859 18.3372C14.9859 17.0159 13.9109 15.9409 12.5896 15.9409Z" stroke="#393737" stroke-width="1.2" stroke-miterlimit="10" stroke-linecap="round" stroke-linejoin="round"/>
<path d="M18.7323 6.77393H17.5928C17.4456 6.77393 17.3262 6.89334 17.3262 7.04059V11.3871C17.3262 11.5344 17.4456 11.6538 17.5928 11.6538H21.9394C22.0866 11.6538 22.206 11.5344 22.206 11.3871V7.04059C22.206 6.89334 22.0866 6.77393 21.9394 6.77393H20.7831" stroke="#393737" stroke-width="1.2" stroke-miterlimit="10" stroke-linecap="round" stroke-linejoin="round"/>
<path d="M14.6504 8.80379C14.6504 8.11941 14.6504 7.5985 14.6504 7.55432C14.6504 7.21606 14.3761 6.94189 14.0379 6.94189H11.1397C10.8015 6.94189 10.5273 7.21612 10.5273 7.55432V9.11387C10.5273 9.38657 10.3469 9.6261 10.0849 9.70198C9.44385 9.88772 8.8323 10.143 8.25896 10.4591C8.01972 10.591 7.72247 10.5497 7.52934 10.3565L6.42601 9.25315C6.18683 9.01397 5.79905 9.01397 5.55987 9.25315L3.51053 11.3025C3.27135 11.5417 3.27135 11.9294 3.51053 12.1686L4.61386 13.272C4.80699 13.4651 4.84836 13.7623 4.71652 14.0016C4.40046 14.5749 4.14517 15.1864 3.95942 15.8275C3.88354 16.0895 3.64401 16.2699 3.37131 16.2699H1.81165C1.47338 16.2699 1.19922 16.5442 1.19922 16.8824V19.7806C1.19922 20.1188 1.47344 20.393 1.81171 20.393H3.37119C3.64395 20.393 3.88342 20.5735 3.9593 20.8354C4.14505 21.4765 4.40034 22.088 4.7164 22.6613C4.84824 22.9006 4.80693 23.1978 4.61374 23.391L3.51041 24.4944C3.27123 24.7335 3.27123 25.1213 3.51041 25.3605L5.55975 27.4098C5.79893 27.649 6.18671 27.649 6.42589 27.4098L7.52928 26.3065C7.72241 26.1134 8.01972 26.072 8.2589 26.2039C8.83224 26.52 9.44379 26.7753 10.0849 26.961C10.3468 27.0369 10.5273 27.2764 10.5273 27.5491V29.1087C10.5273 29.4469 10.8015 29.7211 11.1397 29.7211H14.0379C14.3761 29.7211 14.6503 29.4469 14.6503 29.1087V27.5491C14.6503 27.2764 14.8307 27.0369 15.0927 26.961C15.7338 26.7753 16.3453 26.52 16.9187 26.2039C17.1579 26.072 17.4552 26.1134 17.6483 26.3065L18.7516 27.4098C18.9908 27.649 19.3786 27.649 19.6178 27.4098L21.6671 25.3605C21.9063 25.1213 21.9063 24.7335 21.6671 24.4944L20.5638 23.391C20.3706 23.1978 20.3293 22.9006 20.4612 22.6613C20.7772 22.088 21.0325 21.4765 21.2183 20.8354C21.2941 20.5735 21.5337 20.393 21.8064 20.393H23.3659C23.7041 20.393 23.9783 20.1188 23.9783 19.7806V16.8824C23.9783 16.5441 23.7041 16.2699 23.3659 16.2699C23.3016 16.2699 21.0226 16.2699 20.9715 16.2699C20.8101 16.2699 20.6793 16.4008 20.6793 16.5621V18.0392C20.6793 18.2006 20.5484 18.3315 20.387 18.3315H18.7922C18.6349 18.3315 18.5076 18.456 18.5002 18.6132C18.3519 21.7786 15.7168 24.2936 12.5045 24.2489C9.31705 24.2045 6.7157 21.6032 6.67134 18.4157C6.62535 15.1087 9.29227 12.4134 12.5888 12.4134C13.1743 12.4134 13.7398 12.4986 14.2738 12.6571C14.4617 12.7128 14.6504 12.5737 14.6504 12.3777C14.6504 12.3504 14.6504 11.6839 14.6504 10.8546" stroke="#393737" stroke-width="1.2" stroke-miterlimit="10" stroke-linecap="round" stroke-linejoin="round"/>
</g>
<defs>
<clipPath id="clip0_58_1196">
<rect width="30" height="30" fill="white"/>
</clipPath>
</defs>
</svg>
