<svg width="48" height="51" viewBox="0 0 48 51" fill="none" xmlns="http://www.w3.org/2000/svg">
<path d="M30.3205 22.9985H26.6075C26.3621 22.9985 26.1631 23.1976 26.1631 23.443V27.156C26.1631 27.4014 26.362 27.6004 26.6075 27.6004H30.3205C30.5659 27.6004 30.7649 27.4015 30.7649 27.156V23.443C30.7649 23.1976 30.5659 22.9985 30.3205 22.9985Z" stroke="#B9F8B1" stroke-width="1.7" stroke-miterlimit="10" stroke-linecap="round" stroke-linejoin="round"/>
<path d="M36.0881 1H32.3751C32.1297 1 31.9307 1.19902 31.9307 1.44443V5.15742C31.9307 5.40283 32.1296 5.60186 32.3751 5.60186H36.0881C36.3335 5.60186 36.5325 5.40293 36.5325 5.15742V1.44443C36.5325 1.19902 36.3335 1 36.0881 1Z" stroke="#B9F8B1" stroke-width="1.7" stroke-miterlimit="10" stroke-linecap="round" stroke-linejoin="round"/>
<path d="M43.9563 18.5918H40.2433C39.9979 18.5918 39.7988 18.7908 39.7988 19.0362V22.7492C39.7988 22.9946 39.9978 23.1937 40.2433 23.1937H43.9563C44.2017 23.1937 44.4007 22.9947 44.4007 22.7492V19.0362C44.4008 18.7907 44.2018 18.5918 43.9563 18.5918Z" stroke="#B9F8B1" stroke-width="1.7" stroke-miterlimit="10" stroke-linecap="round" stroke-linejoin="round"/>
<path d="M46.1095 6.89844H39.6466C39.4012 6.89844 39.2021 7.09736 39.2021 7.34287V13.8058C39.2021 14.0512 39.4011 14.2502 39.6466 14.2502H46.1095C46.3549 14.2502 46.5539 14.0513 46.5539 13.8058V7.34287C46.5538 7.09736 46.3549 6.89844 46.1095 6.89844Z" stroke="#B9F8B1" stroke-width="1.7" stroke-miterlimit="10" stroke-linecap="round" stroke-linejoin="round"/>
<path d="M19.983 26.5679C17.7808 26.5679 15.9893 28.3595 15.9893 30.5616C15.9893 32.7639 17.7809 34.5554 19.983 34.5554C22.1852 34.5554 23.9768 32.7638 23.9768 30.5616C23.9768 28.3595 22.1852 26.5679 19.983 26.5679Z" stroke="#B9F8B1" stroke-width="1.7" stroke-miterlimit="10" stroke-linecap="round" stroke-linejoin="round"/>
<path d="M30.2215 11.29H28.3224C28.077 11.29 27.8779 11.4891 27.8779 11.7345V18.9787C27.8779 19.2241 28.077 19.4231 28.3224 19.4231H35.5666C35.812 19.4231 36.011 19.2241 36.011 18.9787V11.7345C36.011 11.4891 35.812 11.29 35.5666 11.29H33.6395" stroke="#B9F8B1" stroke-width="1.7" stroke-miterlimit="10" stroke-linecap="round" stroke-linejoin="round"/>
<path d="M23.4186 14.673C23.4186 13.5323 23.4186 12.6642 23.4186 12.5905C23.4186 12.0268 22.9615 11.5698 22.3979 11.5698H17.5675C17.0038 11.5698 16.5468 12.0269 16.5468 12.5905V15.1898C16.5468 15.6443 16.2461 16.0435 15.8095 16.17C14.7411 16.4795 13.7218 16.905 12.7662 17.4319C12.3675 17.6517 11.8721 17.5828 11.5502 17.2608L9.71132 15.4219C9.31268 15.0233 8.66638 15.0233 8.26775 15.4219L4.85219 18.8375C4.45355 19.2361 4.45355 19.8824 4.85219 20.281L6.69107 22.1199C7.01295 22.4418 7.0819 22.9372 6.86217 23.336C6.3354 24.2915 5.90991 25.3107 5.60034 26.3792C5.47387 26.8159 5.07465 27.1166 4.62015 27.1166H2.02071C1.45694 27.1166 1 27.5736 1 28.1373V32.9676C1 33.5314 1.45704 33.9884 2.02081 33.9884H4.61996C5.07455 33.9884 5.47368 34.2891 5.60014 34.7257C5.90972 35.7942 6.33521 36.8133 6.86197 37.7689C7.0817 38.1676 7.01285 38.6631 6.69088 38.9849L4.85199 40.8239C4.45335 41.2226 4.45335 41.8689 4.85199 42.2675L8.26755 45.683C8.66619 46.0817 9.31248 46.0817 9.71112 45.683L11.5501 43.8442C11.872 43.5223 12.3675 43.4533 12.7661 43.6732C13.7217 44.1999 14.741 44.6254 15.8094 44.935C16.246 45.0615 16.5467 45.4607 16.5467 45.9152V48.5144C16.5467 49.0782 17.0038 49.5351 17.5674 49.5351H22.3978C22.9615 49.5351 23.4185 49.0781 23.4185 48.5144V45.9152C23.4185 45.4607 23.7192 45.0615 24.1558 44.935C25.2243 44.6254 26.2435 44.1999 27.1991 43.6732C27.5978 43.4533 28.0932 43.5223 28.4151 43.8442L30.254 45.683C30.6526 46.0817 31.2989 46.0817 31.6976 45.683L35.1131 42.2675C35.5118 41.8689 35.5118 41.2226 35.1131 40.8239L33.2742 38.985C32.9524 38.6631 32.8834 38.1676 33.1032 37.7689C33.63 36.8133 34.0555 35.7942 34.3651 34.7257C34.4915 34.2891 34.8908 33.9884 35.3453 33.9884H37.9444C38.5082 33.9884 38.9651 33.5314 38.9651 32.9676V28.1373C38.9651 27.5735 38.5081 27.1166 37.9444 27.1166C37.8374 27.1166 34.0389 27.1166 33.9537 27.1166C33.6848 27.1166 33.4667 27.3346 33.4667 27.6036V30.0654C33.4667 30.3344 33.2487 30.5524 32.9797 30.5524H30.3216C30.0595 30.5524 29.8473 30.7601 29.835 31.022C29.5879 36.2976 25.196 40.4893 19.8422 40.4148C14.5297 40.3409 10.1941 36.0053 10.1202 30.6929C10.0435 25.1811 14.4884 20.6891 19.9826 20.6891C20.9584 20.6891 21.901 20.831 22.791 21.0951C23.1041 21.188 23.4186 20.9561 23.4186 20.6295C23.4186 20.584 23.4186 19.4732 23.4186 18.091" stroke="#B9F8B1" stroke-width="1.7" stroke-miterlimit="10" stroke-linecap="round" stroke-linejoin="round"/>
</svg>
