<svg width="50" height="40" viewBox="0 0 50 40" fill="none" xmlns="http://www.w3.org/2000/svg">
<path d="M49.2263 8.04376C47.5753 3.56677 43.6231 0.63755 38.9132 0.397803C38.8946 0.397314 38.8771 0.396729 38.859 0.396729H38.1678C32.2217 0.396729 27.1141 4.05809 24.9814 9.24436C22.8487 4.05809 17.7411 0.396729 11.795 0.396729H11.1037C11.0857 0.396729 11.0676 0.397217 11.0496 0.397803C6.3503 0.637062 2.41032 3.56843 0.768415 8.04855C-0.926715 12.6739 0.228762 17.6178 3.78006 20.9494L22.4622 38.6198C23.1912 39.2759 24.1132 39.6035 25.0283 39.6035C25.9524 39.6035 26.869 39.2696 27.5719 38.6034L30.4123 35.923C31.1253 35.21 31.5289 34.2699 31.5481 33.2772C31.5672 32.2621 31.1833 31.3077 30.4655 30.5904C30.0503 30.1752 29.3771 30.1752 28.9618 30.5904C28.5466 31.0057 28.5466 31.6788 28.9618 32.0941C29.5982 32.7312 29.5754 33.7521 28.9309 34.397L26.1113 37.0572C25.5078 37.6277 24.5294 37.6192 23.9041 37.0567L5.23798 19.4006C2.31628 16.6596 1.3693 12.5905 2.7655 8.78019C4.10545 5.12313 7.30948 2.72722 11.1314 2.52301H11.795C18.4796 2.52301 23.9179 7.96134 23.9179 14.646C23.9179 15.233 24.3943 15.7093 24.9813 15.7093C25.5683 15.7093 26.0447 15.233 26.0447 14.646C26.0447 7.96134 31.483 2.52301 38.1676 2.52301H38.8312C42.6653 2.72829 45.8822 5.12362 47.2306 8.77961C48.6306 12.576 47.6895 16.6468 44.7533 19.4244L38.7982 25.3795C38.0831 26.0947 37.689 27.0316 37.689 28.0189C37.689 29.0063 38.083 29.9431 38.7982 30.6583C39.2134 31.0735 39.8866 31.0735 40.3019 30.6583C40.7172 30.2431 40.7172 29.5699 40.3019 29.1546C39.9883 28.8409 39.816 28.4379 39.816 28.0188C39.816 27.5998 39.9883 27.1968 40.3019 26.8831L46.2358 20.9486C49.7804 17.5971 50.9257 12.6521 49.2263 8.04376Z" fill="#91D089"/>
</svg>
