<svg width="50" height="50" viewBox="0 0 50 50" fill="none" xmlns="http://www.w3.org/2000/svg">
<path d="M48.7853 5.39938C47.5545 4.19088 45.7643 3.91988 44.2341 4.70201L11.3795 21.1023C9.69736 21.9613 8.86455 23.7744 9.30684 25.6142C9.74512 27.4376 11.2896 28.662 13.1493 28.662H21.1593L11.7182 38.1037C11.2735 38.5483 11.2735 39.2689 11.7182 39.7135C12.1622 40.1582 12.884 40.1582 13.328 39.7135L24.7132 28.3284C25.0394 28.0022 25.1367 27.5132 24.9603 27.0874C24.7838 26.6622 24.3687 26.3849 23.9083 26.3849H13.1493C12.1799 26.3849 11.6721 25.7115 11.5207 25.0813C11.3658 24.438 11.5189 23.587 12.4054 23.1344L45.2615 6.73434C46.2555 6.22428 46.9893 6.82711 47.1901 7.02408C47.6233 7.44928 47.9416 8.20133 47.5385 9.02555L31.1439 41.8147C30.6868 42.7312 29.8415 42.8946 29.2045 42.7455C28.5703 42.5964 27.893 42.0783 27.893 41.0724V30.3698C27.893 29.7414 27.3829 29.2313 26.7545 29.2313C26.1261 29.2313 25.616 29.7414 25.616 30.3698V41.0723C25.616 42.9657 26.8479 44.5289 28.6814 44.9615C29.0002 45.0372 29.3179 45.0731 29.6298 45.0731C31.1173 45.0731 32.4755 44.2443 33.1808 42.8331L49.5799 10.0348C50.353 8.45172 50.041 6.63238 48.7853 5.39938Z" fill="#91D089"/>
<path d="M13.3285 32.4111C12.8844 31.9665 12.1627 31.9665 11.7186 32.4111L0.333472 43.7963C-0.111157 44.2409 -0.111157 44.9615 0.333472 45.4061C0.555444 45.6287 0.846948 45.7397 1.13835 45.7397C1.42976 45.7397 1.72126 45.6287 1.94324 45.4061L13.3284 34.021C13.7731 33.5764 13.7731 32.8557 13.3285 32.4111Z" fill="#91D089"/>
<path d="M21.8664 38.1035C21.4223 37.6589 20.7006 37.6589 20.2565 38.1035L14.5639 43.7961C14.1193 44.2407 14.1193 44.9613 14.5639 45.4059C14.7859 45.6285 15.0774 45.7395 15.3688 45.7395C15.6602 45.7395 15.9517 45.6285 16.1737 45.4059L21.8663 39.7134C22.3109 39.2688 22.3109 38.5481 21.8664 38.1035Z" fill="#91D089"/>
</svg>
