<svg width="50" height="47" viewBox="0 0 50 47" fill="none" xmlns="http://www.w3.org/2000/svg">
<path d="M45.6618 4.67827L45.2548 4.27114C42.463 1.47945 38.7399 -0.0407698 34.7721 0.000831782C31.1438 0.0356951 27.7087 1.36255 24.9994 3.75708C22.2909 1.37183 18.8292 0.0687029 15.1507 0.0687029C11.1506 0.0687029 7.40693 1.60943 4.60938 4.40708L4.33828 4.67808C1.54062 7.47583 0 11.1955 0 15.152C0 19.1086 1.54072 22.8282 4.33818 25.6252L7.35273 28.6398L6.79609 29.2538C5.40088 30.7927 5.4585 33.149 6.92734 34.6179C7.68916 35.3797 8.7377 35.7904 9.81367 35.7541C9.71768 36.8618 10.1066 37.9983 10.973 38.8381C11.6954 39.5383 12.6397 39.9205 13.6418 39.9205C13.8661 39.9205 14.0903 39.9013 14.3112 39.8629C14.3559 40.7681 14.7225 41.6591 15.4091 42.3512C16.1296 43.0774 17.0835 43.4745 18.1029 43.4745C18.4475 43.4745 18.7919 43.4289 19.1241 43.3374C19.2287 44.1125 19.572 44.8617 20.1547 45.4751C20.8799 46.2387 21.8592 46.6674 22.9122 46.6821C23.9523 46.698 24.9654 46.2865 25.7022 45.5528L37.435 33.8522C37.817 33.4701 37.817 32.8505 37.4349 32.4685C37.0527 32.0863 36.4332 32.0865 36.0511 32.4686L24.3217 44.1659C23.7429 44.7422 22.8303 44.8896 22.1006 44.5206C21.4162 44.1745 20.9928 43.4311 21.0585 42.6658C21.0946 42.2447 21.2741 41.8445 21.5566 41.5311L28.7161 33.7003C29.0808 33.3015 29.053 32.6826 28.6542 32.3179C28.2554 31.9531 27.6364 31.981 27.2718 32.3797L19.4651 40.9183C19.1217 41.2939 18.6523 41.5066 18.1435 41.5169C17.6313 41.527 17.1569 41.3339 16.7984 40.9728C16.1058 40.2746 16.0828 39.1589 16.7463 38.433L24.8751 29.6548C25.2434 29.2593 25.2214 28.6401 24.8259 28.2718C24.4304 27.9036 23.8111 27.9257 23.443 28.3211L15.0219 37.3641C14.6745 37.7372 14.2025 37.9498 13.6931 37.9628C13.1825 37.9747 12.7013 37.7876 12.3353 37.4328C11.5984 36.7186 11.5646 35.5667 12.2578 34.8102L20.8224 25.4669C21.1875 25.0686 21.1606 24.4497 20.7623 24.0844C20.3639 23.7192 19.7449 23.7462 19.3798 24.1446L11.1034 33.1736C10.3698 33.9734 9.07949 34.0018 8.31143 33.2339C7.58145 32.5038 7.55273 31.3328 8.24619 30.5679L23.4837 13.7606L26.8838 16.5965C28.5803 18.0114 31.116 17.8794 32.6564 16.296C33.4736 15.4561 33.911 14.303 33.8564 13.1323C33.8019 11.9617 33.2591 10.8541 32.3673 10.0937L26.474 5.06939C28.802 3.08491 31.7803 1.98657 34.8543 1.95708C34.8967 1.95669 34.812 1.95708 34.8543 1.95708C38.2449 1.95708 41.4838 3.26714 43.8711 5.65445L44.2781 6.06157C46.7061 8.4895 48.0432 11.7177 48.0432 15.1516C48.0432 18.5855 46.7061 21.8134 44.2781 24.241L42.2036 26.3156C41.8215 26.6977 41.8216 27.3172 42.2037 27.6994C42.5858 28.0814 43.2054 28.0814 43.5875 27.6994L45.6619 25.6248C48.4593 22.8282 50 19.1087 50 15.152C50 11.1955 48.4594 7.47583 45.6618 4.67827ZM31.9015 13.2238C31.9313 13.8652 31.7013 14.4717 31.2536 14.9319C30.4219 15.7868 29.053 15.8579 28.1371 15.094L24.016 11.6567C23.6131 11.3208 23.0168 11.3622 22.6644 11.7509L8.66875 27.1882L5.72187 24.2415C3.29404 21.8139 1.95693 18.5859 1.95693 15.1521C1.95693 11.7183 3.29404 8.48999 5.72187 6.06206L5.99297 5.79107C8.4209 3.36304 11.6731 2.02583 15.1505 2.02583C18.6278 2.02583 21.8801 3.36304 24.308 5.79107C24.319 5.8021 31.0974 11.5834 31.0974 11.5834C31.586 11.9999 31.8715 12.5825 31.9015 13.2238Z" fill="#91D089"/>
<path d="M39.0953 29.4087C38.7263 29.8021 38.7462 30.4201 39.1396 30.7891C39.533 31.158 40.151 31.1381 40.52 30.7446C40.8889 30.3512 40.869 29.7332 40.4756 29.3643C40.0822 28.9954 39.4641 29.0152 39.0953 29.4087Z" fill="#91D089"/>
</svg>
