<svg width="75" height="75" viewBox="0 0 75 75" fill="none" xmlns="http://www.w3.org/2000/svg">
<g clip-path="url(#clip0_69_2374)">
<path d="M37.5005 19.9468C27.8215 19.9468 19.9473 27.821 19.9473 37.5C19.9473 47.179 27.8215 55.0532 37.5005 55.0532C47.1794 55.0532 55.0537 47.179 55.0537 37.5C55.0537 27.821 47.1794 19.9468 37.5005 19.9468ZM37.5005 51.8618C29.5815 51.8618 23.1387 45.4189 23.1387 37.5C23.1387 29.5811 29.5815 23.1382 37.5005 23.1382C45.4194 23.1382 51.8623 29.5811 51.8623 37.5C51.8623 45.4189 45.4194 51.8618 37.5005 51.8618Z" fill="#91D089"/>
<path d="M37.5001 0C36.6193 0 35.9043 0.714844 35.9043 1.5958V13.5639C35.9043 14.4447 36.6191 15.1597 37.5001 15.1597C38.3809 15.1597 39.0959 14.4448 39.0959 13.5639V1.5958C39.0959 0.714844 38.3809 0 37.5001 0Z" fill="#91D089"/>
<path d="M37.5001 59.8405C36.6193 59.8405 35.9043 60.5553 35.9043 61.4363V73.4043C35.9043 74.2851 36.6191 75.0001 37.5001 75.0001C38.3809 75.0001 39.0959 74.2853 39.0959 73.4043V61.4363C39.0959 60.5553 38.3809 59.8405 37.5001 59.8405Z" fill="#91D089"/>
<path d="M73.4037 35.9043H61.4356C60.5548 35.9043 59.8398 36.6191 59.8398 37.5001C59.8398 38.3809 60.5547 39.0959 61.4356 39.0959H73.4037C74.2845 39.0959 74.9995 38.3811 74.9995 37.5001C74.9995 36.6193 74.2847 35.9043 73.4037 35.9043Z" fill="#91D089"/>
<path d="M13.5639 35.9042H1.5958C0.714844 35.9042 0 36.6192 0 37.5C0 38.3808 0.714844 39.0958 1.5958 39.0958H13.5639C14.4447 39.0958 15.1597 38.3809 15.1597 37.5C15.1595 36.6192 14.4447 35.9042 13.5639 35.9042Z" fill="#91D089"/>
<path d="M21.7125 19.457L13.2551 10.9996C12.6326 10.3764 11.621 10.3764 10.9986 10.9996C10.3755 11.6227 10.3755 12.6329 10.9986 13.256L19.456 21.7135C19.7672 22.0255 20.1757 22.181 20.5843 22.181C20.9928 22.181 21.4013 22.0246 21.7125 21.7135C22.3356 21.0902 22.3356 20.0802 21.7125 19.457Z" fill="#91D089"/>
<path d="M63.9996 61.7441L55.5422 53.2867C54.919 52.6635 53.9089 52.6635 53.2857 53.2867C52.6626 53.9098 52.6626 54.92 53.2857 55.5431L61.7431 64.0006C62.0552 64.3126 62.4628 64.4681 62.8714 64.4681C63.2799 64.4681 63.6876 64.3117 63.9996 64.0006C64.6227 63.3773 64.6227 62.3673 63.9996 61.7441Z" fill="#91D089"/>
<path d="M61.7433 10.9995L53.285 19.4569C52.6627 20.0808 52.6627 21.091 53.2857 21.7141C53.5977 22.0252 54.0054 22.1808 54.4139 22.1808C54.8225 22.1808 55.2317 22.0244 55.5429 21.7132L63.9996 13.2558L61.7433 10.9995Z" fill="#91D089"/>
<path d="M21.7123 53.2867C21.0901 52.6635 20.0783 52.6635 19.4559 53.2867L10.9986 61.7441C10.3755 62.3673 10.3755 63.3774 10.9986 64.0006C11.3097 64.3126 11.7183 64.4681 12.1268 64.4681C12.5354 64.4681 12.9439 64.3117 13.2551 64.0006L21.7125 55.5431C22.3355 54.9198 22.3355 53.9098 21.7123 53.2867Z" fill="#91D089"/>
</g>
<defs>
<clipPath id="clip0_69_2374">
<rect width="75" height="75" fill="white"/>
</clipPath>
</defs>
</svg>
