<svg width="50" height="50" viewBox="0 0 50 50" fill="none" xmlns="http://www.w3.org/2000/svg">
<g clip-path="url(#clip0_47_854)">
<path d="M49.9741 24.5178C49.8427 17.6652 46.9867 11.3133 41.9338 6.63472C32.4196 -2.21165 17.5149 -2.21165 8.00024 6.6352C2.96802 11.3197 0.128377 17.6726 0.00611119 24.5247C-0.11674 31.3773 2.48628 37.8217 7.3351 42.6705C7.53764 42.8736 7.81362 42.9879 8.10121 42.982C8.38832 42.9777 8.66156 42.8587 8.85883 42.6497C9.1518 42.3408 9.51273 41.9686 9.65521 41.832C9.70463 41.797 9.75141 41.7576 9.79555 41.7135L12.1428 39.3667H19.7833C20.668 39.3667 21.448 38.8334 21.7707 38.0083C22.0876 37.1991 21.8823 36.2984 21.2795 35.7434C19.2177 33.6811 18.0821 30.9461 18.0821 28.0416V18.897C18.0821 17.9676 18.434 17.1249 19.0996 16.4588C19.7467 15.8123 20.6351 15.4412 21.5378 15.4412H28.3963C29.3257 15.4412 30.1688 15.7932 30.8345 16.4594C31.4815 17.1054 31.852 17.9944 31.852 18.8971V28.0417C31.852 30.9467 30.717 33.6821 28.6232 35.7769C28.0575 36.3932 27.9172 37.3023 28.2649 38.0929C28.61 38.8787 29.3532 39.3667 30.2039 39.3667H38.2852C38.8722 39.3667 39.3486 38.8903 39.3486 38.3034C39.3486 37.7165 38.8722 37.24 38.2852 37.24L30.2204 37.2522C30.2119 37.2427 30.2039 37.2192 30.2028 37.2022C32.6384 34.7443 33.9787 31.4933 33.9787 28.0416V18.897C33.9787 17.4344 33.3806 15.9973 32.338 14.9552C31.2805 13.8972 29.8807 13.3145 28.3962 13.3145H21.5377C20.0751 13.3145 18.638 13.9126 17.5954 14.9552C16.5379 16.0132 15.9552 17.4131 15.9552 18.897V28.0416C15.9552 31.5139 17.312 34.7831 19.7832 37.2399H11.7019C11.4202 37.2399 11.1494 37.3521 10.9501 37.5515L8.30727 40.1943C8.24028 40.2502 8.16957 40.3144 8.0935 40.3868C4.13628 36.05 2.02671 30.4729 2.13247 24.5629C2.24468 18.2935 4.84341 12.4792 9.44926 8.19243C18.151 0.101037 31.7834 0.101038 40.4879 8.1935C45.1139 12.4771 47.7281 18.2888 47.8488 24.5581C47.9689 30.828 45.5903 36.7258 41.1493 41.1668C40.7341 41.582 40.7341 42.2551 41.1493 42.6703C41.3572 42.8782 41.6289 42.9818 41.9011 42.9818C42.1732 42.9818 42.445 42.8781 42.6523 42.6708C47.5055 37.8179 50.1059 31.3709 49.9741 24.5178Z" fill="#91D089"/>
<path d="M49.9833 24.0176C49.9625 23.4307 49.4919 22.9696 48.8833 22.992C48.2963 23.0122 47.8375 23.5045 47.8577 24.0915C48.0789 30.4008 45.7954 36.3666 41.4277 40.8894C37.0792 45.3931 31.2426 47.8734 24.995 47.8734C24.4081 47.8734 23.9316 48.3498 23.9316 48.9367C23.9316 49.5236 24.408 50 24.995 50C31.8253 50 38.2043 47.2896 42.9579 42.367C47.7295 37.4256 50.2242 30.909 49.9833 24.0176Z" fill="#91D089"/>
</g>
<defs>
<clipPath id="clip0_47_854">
<rect width="50" height="50" fill="white"/>
</clipPath>
</defs>
</svg>
