<svg width="100" height="100" viewBox="0 0 100 100" fill="none" xmlns="http://www.w3.org/2000/svg">
<path fill-rule="evenodd" clip-rule="evenodd" d="M91.1978 57.3042C82.5162 57.3042 78.1572 67.8244 84.2974 73.9644C85.4274 75.0946 85.4274 76.9331 84.2974 78.0633L78.0635 84.2972C76.9333 85.4272 75.0949 85.4272 73.9647 84.2972C67.8247 78.157 57.3045 82.516 57.3045 91.1976C57.3045 92.8017 56.0078 94.0933 54.409 94.0933H45.5919C43.9929 94.0933 42.6962 92.8017 42.6962 91.1976C42.6962 82.5056 32.1813 78.1517 26.036 84.2972C24.9059 85.4272 23.0727 85.4272 21.9425 84.2972L15.7033 78.0633C14.5733 76.9331 14.5733 75.0946 15.7033 73.9644C21.8435 67.8244 17.4898 57.3042 8.80291 57.3042C7.20409 57.3042 5.90723 56.0076 5.90723 54.4087V45.5915C5.90723 43.9927 7.20409 42.696 8.80291 42.696C17.4898 42.696 21.8435 32.1758 15.7033 26.0358C14.5733 24.9056 14.5733 23.0725 15.7033 21.9423L21.9425 15.7031C23.0727 14.5731 24.9059 14.5731 26.036 15.7031C32.1762 21.8433 42.6962 17.4895 42.6962 8.80267C42.6962 7.20385 43.9929 5.90698 45.5919 5.90698H54.409C56.0078 5.90698 57.3045 7.20385 57.3045 8.80267C57.3045 17.4895 67.8247 21.8433 73.9647 15.7031C75.0949 14.5731 76.9333 14.5731 78.0635 15.7031L84.2974 21.9423C85.4274 23.0725 85.4274 24.9056 84.2974 26.0358C78.1572 32.1758 82.5162 42.696 91.1978 42.696C92.8019 42.696 94.0935 43.9927 94.0935 45.5915V54.4087C94.0935 56.0076 92.8019 57.3042 91.1978 57.3042Z" fill="#A9B0BB"/>
<path fill-rule="evenodd" clip-rule="evenodd" d="M30.4965 62.4082L37.9186 69.1733L28.3225 78.7694C30.3221 83.5633 29.3741 89.2929 25.4743 93.1925C22.4519 96.2186 18.3229 97.4676 14.3855 96.9423C14.0188 96.8919 13.7125 96.6382 13.5947 96.2874C13.4766 95.9368 13.5676 95.5496 13.8294 95.288C15.887 93.2231 19.7159 89.3964 19.7159 89.3964L19.0494 80.9509L10.6041 80.2845C10.6041 80.2845 6.77704 84.1115 4.71645 86.1721C4.45312 86.4355 4.06351 86.527 3.71057 86.4084C3.35782 86.2898 3.10253 85.9813 3.05174 85.6125C2.53272 81.6768 3.78174 77.5478 6.80782 74.5217C10.7074 70.6262 16.437 69.6741 21.231 71.6735L30.4965 62.4082Z" fill="#FFC943"/>
<path fill-rule="evenodd" clip-rule="evenodd" d="M68.7374 38.3579L61.3154 31.5926L71.6778 21.2302C69.6782 16.4404 70.6262 10.7067 74.526 6.80691C77.5523 3.78417 81.679 2.5326 85.616 3.0575C85.9825 3.10789 86.2888 3.36142 86.4068 3.71201C86.5246 4.06279 86.4339 4.44985 86.1725 4.71142C84.1164 6.7775 80.2886 10.6073 80.2886 10.6073L80.9509 19.0485L89.3964 19.7151C89.3964 19.7151 93.2231 15.8883 95.2839 13.8277C95.547 13.5644 95.9366 13.4728 96.2895 13.5914C96.6425 13.71 96.8978 14.0183 96.9484 14.3871C97.4678 18.325 96.2188 22.4516 93.1925 25.4777C89.297 29.3775 83.5633 30.3255 78.7693 28.3259L68.7374 38.3579Z" fill="#FFC943"/>
<path fill-rule="evenodd" clip-rule="evenodd" d="M50.0004 25.4053C63.5839 25.4053 74.5965 36.418 74.5965 50.0014C74.5965 63.5849 63.5839 74.5947 50.0004 74.5947C36.4168 74.5947 25.4072 63.5849 25.4072 50.0014H25.4043C25.4043 36.418 36.4168 25.4053 50.0004 25.4053Z" fill="#F4F6F8"/>
<path fill-rule="evenodd" clip-rule="evenodd" d="M50.0002 55.9014C42.1917 55.9014 35.49 60.6335 32.6055 67.3904C37.0586 71.8408 43.2084 74.5947 50.0002 74.5947C56.7949 74.5947 62.9447 71.8408 67.3949 67.3904C64.5133 60.6335 57.8086 55.9014 50.0002 55.9014Z" fill="#AAB2BD"/>
<path fill-rule="evenodd" clip-rule="evenodd" d="M41.2656 42.1292C41.2656 46.9542 45.1756 50.8644 50.0007 50.8644C54.8288 50.8644 58.7388 46.9542 58.7388 42.1292C58.7388 37.3041 54.8288 33.3911 50.0007 33.3911C45.1756 33.3911 41.2656 37.3041 41.2656 42.1292Z" fill="#B9F8B1"/>
<path fill-rule="evenodd" clip-rule="evenodd" d="M82.8567 68.6558C90.7 68.6558 97.059 75.0148 97.059 82.8581C97.059 90.7016 90.7 97.0589 82.8567 97.0589C75.0131 97.0589 68.6543 90.7016 68.6543 82.8581C68.6543 75.0148 75.0131 68.6558 82.8567 68.6558Z" fill="#FFC943"/>
<path fill-rule="evenodd" clip-rule="evenodd" d="M30.6911 83.0858C30.9021 87.0686 29.4872 91.1201 26.4447 94.1627C22.5831 98.0288 17.0854 99.268 12.1727 97.8833C11.7039 97.7511 11.34 97.3801 11.217 96.9088C11.0941 96.4372 11.2302 95.9358 11.5749 95.5913L18.2972 88.8729L17.7727 82.227L11.1266 81.7023L4.40799 88.4209C4.06348 88.7654 3.56231 88.9015 3.09094 88.7786C2.61956 88.6554 2.24878 88.2919 2.11643 87.8231C0.73172 82.9148 1.97054 77.4172 5.83682 73.5511L5.83721 73.5505C8.87956 70.5115 12.9303 69.0954 16.9127 69.305C18.2872 64.3297 14.707 58.6766 8.80231 58.6766C6.44545 58.6766 4.53407 56.7652 4.53407 54.4086V45.5913C4.53407 43.2346 6.44545 41.3233 8.80231 41.3233C16.2674 41.3233 20.0088 32.2827 14.7323 27.006C13.0662 25.3401 13.0662 22.6376 14.7323 20.9715L20.9713 14.7325C22.6374 13.0664 25.3398 13.0664 27.0058 14.7325C32.2825 20.009 41.3231 16.2676 41.3231 8.80249C41.3231 6.44563 43.2345 4.53425 45.5911 4.53425H54.4082C56.7651 4.53425 58.6764 6.44563 58.6764 8.80249C58.6764 14.7086 64.3319 18.289 69.3082 16.9121C69.0982 12.9305 70.5133 8.87818 73.5551 5.83641L73.5556 5.83582C77.4215 1.97445 82.9143 0.731312 87.8266 2.11602C88.2954 2.24818 88.6592 2.61876 88.7823 3.09014C88.9054 3.56151 88.7696 4.06268 88.4251 4.40719L81.706 11.1303L82.2272 17.7723L88.8729 18.2968L95.5915 11.5784C95.936 11.2339 96.4372 11.0978 96.9086 11.2207C97.3801 11.3439 97.7509 11.7076 97.8831 12.1764C99.2678 17.089 98.029 22.5817 94.1629 26.448C91.1237 29.4903 87.0709 30.9056 83.0872 30.6948C81.7141 35.6703 85.296 41.3233 91.1972 41.3233C93.5617 41.3233 95.4654 43.2346 95.4654 45.5913V54.4086C95.4654 56.7652 93.5617 58.6766 91.1972 58.6766C86.088 58.6766 82.7217 62.9158 82.7982 67.2833C82.8174 67.2831 82.8368 67.2831 82.8562 67.2831C91.4576 67.2831 98.4311 74.2566 98.4311 82.858C98.4311 91.4595 91.4576 98.4313 82.8562 98.4313C74.2547 98.4313 67.2813 91.4595 67.2813 82.858C67.2813 82.8382 67.2813 82.8182 67.2813 82.7984C62.9145 82.7229 58.6764 86.0888 58.6764 91.1974C58.6764 93.5619 56.7651 95.4656 54.4082 95.4656H45.5911C43.2345 95.4656 41.3231 93.5619 41.3231 91.1974C41.3231 85.287 35.669 81.705 30.6911 83.0858ZM19.6425 69.7092C20.0615 69.8125 20.477 69.9346 20.8874 70.0756L27.6815 63.2813C25.3796 59.4205 24.0509 54.9119 24.0341 50.0939C24.0321 50.0633 24.0311 50.0325 24.0311 50.0013C24.0311 35.6599 35.6582 24.0327 49.9998 24.0327C54.8537 24.0327 59.3968 25.3646 63.2833 27.6831C65.2111 25.7552 70.0794 20.887 70.0794 20.8872C69.9382 20.4766 69.816 20.0611 69.7127 19.6417C63.1913 21.2195 55.9313 16.508 55.9313 8.80249C55.9313 7.96151 55.2492 7.27935 54.4082 7.27935H45.5911C44.7502 7.27935 44.0682 7.96151 44.0682 8.80249C44.0682 18.7109 32.0686 23.6772 25.0649 16.6735C24.4705 16.0794 23.5066 16.0794 22.9125 16.6735L16.6733 22.9127C16.079 23.5068 16.079 24.4707 16.6733 25.065C23.677 32.0688 18.7107 44.0684 8.80231 44.0684C7.96133 44.0684 7.27917 44.7503 7.27917 45.5913V54.4086C7.27917 55.2494 7.96133 55.9315 8.80231 55.9315C16.5062 55.9315 21.2176 63.1888 19.6425 69.7092ZM29.2415 65.6035L22.2011 72.6439C21.8078 73.0374 21.2156 73.1543 20.7023 72.9401C16.4064 71.1484 11.2721 72.0017 7.7776 75.4925C5.27584 77.9943 4.12976 81.3378 4.33721 84.6096L9.63309 79.3137C9.91702 79.0297 10.3111 78.8844 10.7115 78.916L19.1568 79.5825C19.8298 79.6356 20.3641 80.1699 20.4172 80.8429L21.0837 89.2882C21.1152 89.6886 20.9698 90.0829 20.6856 90.367C20.6856 90.367 15.3872 95.6623 15.387 95.6623C18.6607 95.8701 22.0039 94.7243 24.5029 92.2225L24.5035 92.2219C27.9978 88.7274 28.8472 83.5933 27.0554 79.2974C26.8411 78.7841 26.9582 78.1919 27.3517 77.7986L34.3931 70.757C33.4182 70.0231 32.4964 69.2223 31.6347 68.3611C31.6164 68.3429 31.5986 68.3241 31.5815 68.3048C30.7415 67.4597 29.9596 66.5572 29.2415 65.6035ZM36.7154 72.3168C34.7878 74.2447 29.92 79.1123 29.92 79.1123C30.0609 79.5223 30.1829 79.9374 30.2862 80.356C36.8096 78.7739 44.0682 83.4862 44.0682 91.1974C44.0682 92.0411 44.7502 92.7205 45.5911 92.7205H54.4082C55.2492 92.7205 55.9313 92.0411 55.9313 91.1974C55.9313 84.3474 61.6739 79.8558 67.5319 80.0597C68.6856 73.7009 73.7005 68.6866 80.0596 67.5335C79.8549 61.675 84.3466 55.9315 91.1972 55.9315C92.0409 55.9315 92.7204 55.2494 92.7204 54.4086V45.5913C92.7204 44.7503 92.0409 44.0684 91.1972 44.0684C83.4976 44.0684 78.7835 36.8107 80.3578 30.2903C79.9384 30.187 79.5227 30.0648 79.1121 29.9237L72.3182 36.7178C74.6364 40.6043 75.9684 45.1474 75.9684 50.0013C75.9684 57.1515 73.0784 63.626 68.4029 68.3215C68.3905 68.3348 68.378 68.348 68.3651 68.3609C63.6664 73.0595 57.1735 75.9672 49.9998 75.9672C45.2754 75.9672 40.8454 74.7054 37.0286 72.5007C36.9239 72.4401 36.8194 72.379 36.7154 72.3168ZM70.7578 34.3958L77.7984 27.3554C78.1917 26.9619 78.7837 26.8448 79.2972 27.0592C83.5929 28.8507 88.7306 28.0019 92.2211 24.5076L92.2217 24.5072C94.7239 22.0048 95.87 18.6631 95.6621 15.3899L90.3664 20.6854C90.0825 20.9695 89.6884 21.1148 89.288 21.0833L80.8427 20.4168C80.1696 20.3637 79.6351 19.829 79.5823 19.1558L78.92 10.7146C78.8884 10.3146 79.0337 9.92092 79.3174 9.637C79.3174 9.637 84.6139 4.33739 84.6141 4.33739C81.3405 4.13033 77.9984 5.27818 75.4958 7.77759C72.0017 11.2721 71.1523 16.4095 72.9439 20.7013C73.1584 21.215 73.0413 21.8072 72.6478 22.2007L65.6053 29.2433C67.5545 30.7109 69.2902 32.4466 70.7578 34.3958ZM67.7435 64.9835C71.1623 60.9397 73.2233 55.7115 73.2233 50.0013C73.2233 37.1758 62.8253 26.7778 49.9998 26.7778C37.1743 26.7778 26.7762 37.1758 26.7762 50.0013L25.4105 51.367C25.4078 51.3715 25.4064 51.3739 25.4064 51.3739L26.779 50.0013C26.779 55.7111 28.8394 60.9392 32.257 64.9827C35.7164 58.7466 42.3649 54.5288 49.9998 54.5288C57.6349 54.5288 64.286 58.7472 67.7435 64.9835ZM38.7162 70.3015C42.057 72.1621 45.9047 73.2221 49.9998 73.2221C56.0729 73.2221 61.6019 70.8911 65.7404 67.075C62.8845 61.2674 56.9078 57.2739 49.9998 57.2739C43.0919 57.2739 37.1182 61.2672 34.26 67.0743C35.6076 68.3174 37.1027 69.4029 38.7162 70.3015ZM82.8562 70.0282C75.7707 70.0282 70.0264 75.7727 70.0264 82.858C70.0264 89.9435 75.7707 95.6862 82.8562 95.6862C89.9415 95.6862 95.686 89.9435 95.686 82.858C95.686 75.7727 89.9415 70.0282 82.8562 70.0282ZM81.4592 75.4933L81.4421 74.7896C81.4239 74.0321 82.0237 73.4025 82.7811 73.3843C83.5384 73.3658 84.168 73.9658 84.1864 74.7231L84.2058 75.5245C84.6568 75.6531 85.1235 75.8344 85.5468 76.0582C86.2274 76.4178 86.789 76.8905 87.1011 77.3654C87.5174 77.9984 87.3413 78.8501 86.7084 79.2664C86.0752 79.6825 85.2235 79.5064 84.8074 78.8735C84.7049 78.7174 84.488 78.6035 84.2643 78.4852C83.796 78.2378 83.2384 78.0511 82.8562 78.0511C81.7249 78.0511 80.7364 78.7864 80.7364 79.7968C80.7364 80.8072 81.7249 81.5425 82.8562 81.5425C85.5841 81.5425 87.7211 83.5972 87.7211 86.0333C87.7211 88.0313 86.2807 89.7754 84.2558 90.3358L84.2703 90.9246C84.2888 91.6819 83.689 92.3117 82.9317 92.3303C82.1743 92.3488 81.5445 91.749 81.526 90.9917L81.5107 90.3715C80.5466 90.1274 79.8262 89.5952 78.9931 88.8105C78.4417 88.2911 78.4156 87.4217 78.9351 86.8703C79.4545 86.3188 80.3239 86.2929 80.8753 86.8123C81.4894 87.3907 81.9521 87.779 82.8562 87.779C83.9876 87.779 84.976 87.0427 84.976 86.0333C84.976 85.0229 83.9876 84.2876 82.8562 84.2876C80.1284 84.2876 77.9913 82.2329 77.9913 79.7968C77.9913 77.7962 79.4327 76.0527 81.4592 75.4933ZM39.8921 42.129C39.8921 36.5458 44.4166 32.0184 49.9998 32.0184C55.586 32.0184 60.1104 36.546 60.1104 42.129C60.1104 47.7121 55.5862 52.2368 49.9998 52.2368C44.4164 52.2368 39.8921 47.7123 39.8921 42.129ZM42.6372 42.129C42.6372 46.196 45.9327 49.4917 49.9998 49.4917C54.0692 49.4917 57.3653 46.196 57.3653 42.129C57.3653 38.0619 54.0694 34.7635 49.9998 34.7635C45.9327 34.7635 42.6372 38.0619 42.6372 42.129Z" fill="#393737"/>
</svg>
