<svg width="100" height="100" viewBox="0 0 100 100" fill="none" xmlns="http://www.w3.org/2000/svg">
<path fill-rule="evenodd" clip-rule="evenodd" d="M94.0248 60.6758C85.4805 60.6758 81.1936 71.027 87.235 77.0684C88.3478 78.1812 88.3478 79.9861 87.235 81.099L81.099 87.235C79.9861 88.3478 78.1812 88.3478 77.0684 87.235C71.027 81.1936 60.6758 85.4807 60.6758 94.0248C60.6758 95.5994 59.3994 96.8748 57.8258 96.8748H49.1486C47.575 96.8748 46.2986 95.5994 46.2986 94.0248C46.2986 85.4699 35.9551 81.1859 29.9061 87.235C28.7932 88.3478 26.9881 88.3478 25.8754 87.235L19.7395 81.099C18.6266 79.9861 18.6266 78.1811 19.7395 77.0684C25.7809 71.027 21.4937 60.6758 12.9496 60.6758C11.375 60.6758 10.0996 59.3994 10.0996 57.8258V49.1486C10.0996 47.575 11.375 46.2986 12.9496 46.2986C21.4939 46.2986 25.7809 35.9475 19.7395 29.9061C18.6266 28.7932 18.6266 26.9881 19.7395 25.8754L25.8754 19.7395C26.9883 18.6266 28.7932 18.6266 29.9061 19.7395C35.9475 25.7809 46.2986 21.4937 46.2986 12.9496C46.2986 11.375 47.575 10.0996 49.1486 10.0996H57.8258C59.3994 10.0996 60.6758 11.375 60.6758 12.9496C60.6758 21.4939 71.027 25.7809 77.0684 19.7395C78.1812 18.6266 79.9863 18.6266 81.099 19.7395L87.235 25.8754C88.3478 26.9883 88.3478 28.7932 87.235 29.9061C81.1936 35.9475 85.4807 46.2986 94.0248 46.2986C95.5994 46.2986 96.8748 47.575 96.8748 49.1486V57.8258C96.8748 59.3994 95.5994 60.6758 94.0248 60.6758Z" fill="#FFC943"/>
<path fill-rule="evenodd" clip-rule="evenodd" d="M53.4869 28.1838C67.4615 28.1838 78.7902 39.5126 78.7902 53.4872C78.7902 67.4618 67.4615 78.7905 53.4869 78.7905C39.5123 78.7905 28.1836 67.4618 28.1836 53.4872C28.1836 39.5126 39.5123 28.1838 53.4869 28.1838Z" fill="#F4F6F8"/>
<path fill-rule="evenodd" clip-rule="evenodd" d="M46.041 44.2152C46.041 48.3275 49.3746 51.6609 53.4869 51.6609C57.5994 51.6609 60.9328 48.3275 60.9328 44.2152C60.9328 40.1041 57.5994 36.7705 53.4869 36.7705C49.3746 36.7705 46.041 40.1041 46.041 44.2152Z" fill="#B9F8B1"/>
<path fill-rule="evenodd" clip-rule="evenodd" d="M52.0359 55.9521H54.9373L57.4537 74.7197H49.5195L52.0359 55.9521Z" fill="#B9F8B1"/>
<path fill-rule="evenodd" clip-rule="evenodd" d="M56.4705 57.5048L55.909 59.2329C55.7475 59.73 55.3033 60.0526 54.7807 60.0526H52.1926C51.6698 60.0526 51.2258 59.73 51.0643 59.2329L50.5028 57.5048C50.3817 57.1319 50.4408 56.7581 50.6713 56.4407C50.9018 56.1235 51.2391 55.9517 51.6313 55.9517H55.3422C55.7342 55.9517 56.0717 56.1235 56.3022 56.4407C56.5324 56.7581 56.5916 57.1319 56.4705 57.5048Z" fill="#91D089"/>
<path fill-rule="evenodd" clip-rule="evenodd" d="M69.425 73.139C65.7242 76.1441 61.1588 78.1248 56.1596 78.6499C54.3926 78.7599 52.5818 78.7597 50.8144 78.6499C45.8148 78.1251 41.2496 76.1437 37.5488 73.1388C37.4389 72.7951 37.377 72.4367 37.377 72.0611C37.377 66.1632 40.5477 61.0064 45.2768 58.1994L48.6438 63.3269L53.4869 70.7021L58.3301 63.3269L61.6973 58.199C66.4264 61.006 69.5969 66.1628 69.5969 72.0611C69.5969 72.4369 69.535 72.7953 69.425 73.139Z" fill="#AAB2BD"/>
<path fill-rule="evenodd" clip-rule="evenodd" d="M38.0279 3.125H5.29629C4.10039 3.125 3.125 4.10039 3.125 5.29629V26.0219C3.125 27.2178 4.10039 28.1932 5.29629 28.1932H18.1609C18.1609 28.1932 18.3377 36.7316 28.8482 38.0453C28.8482 38.0453 25.5637 34.3531 26.9596 28.1932H38.0279C39.2238 28.1932 40.1992 27.2178 40.1992 26.0219V5.29629C40.199 4.10039 39.2238 3.125 38.0279 3.125Z" fill="#B9F8B1"/>
<path fill-rule="evenodd" clip-rule="evenodd" d="M33.2248 23.3969H10.0994C9.34453 23.3969 8.73242 22.7857 8.73242 22.0293C8.73242 21.2758 9.34453 20.6627 10.0994 20.6627H33.2248C33.9799 20.6627 34.5918 21.2758 34.5918 22.0293C34.592 22.7857 33.9799 23.3969 33.2248 23.3969ZM8.73223 15.6584C8.73223 14.9049 9.34434 14.2908 10.0992 14.2908H33.2246C33.9797 14.2908 34.5916 14.9047 34.5916 15.6584C34.5916 16.4139 33.9795 17.026 33.2246 17.026H10.0994C9.34434 17.026 8.73223 16.4139 8.73223 15.6584ZM8.73223 9.28945C8.73223 8.53301 9.34434 7.92188 10.0992 7.92188H33.2246C33.9797 7.92188 34.5916 8.53301 34.5916 9.28945C34.5916 10.043 33.9795 10.657 33.2246 10.657H10.0994C9.34434 10.657 8.73223 10.043 8.73223 9.28945ZM53.4869 50.2928C50.1352 50.2928 47.4086 47.567 47.4086 44.215C47.4086 40.8633 50.1352 38.1393 53.4869 38.1393C56.8389 38.1393 59.566 40.8633 59.566 44.215C59.566 47.5668 56.8391 50.2928 53.4869 50.2928ZM53.4869 35.4041C48.6279 35.4041 44.6742 39.3551 44.6742 44.215C44.6742 49.074 48.6279 53.0277 53.4869 53.0277C58.3467 53.0277 62.3002 49.074 62.3002 44.215C62.3002 39.3551 58.3469 35.4041 53.4869 35.4041ZM70.8359 69.9787C75.0887 65.5103 77.4236 59.6781 77.4232 53.4865C77.4232 40.2898 66.6857 29.5508 53.4871 29.5508C47.0938 29.5508 41.0828 32.0414 36.5619 36.5621C32.0406 41.082 29.5508 47.0936 29.5508 53.4863C29.5508 59.8654 32.0588 65.6684 36.1402 69.9629C36.7934 64.6324 39.9012 59.801 44.5789 57.0236C45.2076 56.6506 46.0186 56.8381 46.4195 57.4492L49.7719 62.5545L50.0748 60.2908C49.9453 60.0979 49.8391 59.8846 49.7643 59.6566L49.2027 57.9279C48.9504 57.1504 49.0854 56.2947 49.5639 55.6367C50.042 54.9787 50.815 54.5834 51.6316 54.5834H55.3424C56.1586 54.5834 56.9316 54.9785 57.4102 55.6367C57.8883 56.2947 58.0232 57.1504 57.7709 57.9279L57.2094 59.6566C57.1348 59.8846 57.0281 60.0979 56.8984 60.2908L57.2021 62.5545L60.5545 57.4492C60.9555 56.8381 61.7662 56.6506 62.3947 57.0236C67.0781 59.8031 70.1871 64.6428 70.8359 69.9787ZM52.6824 61.4205H54.2916L54.9115 66.0434L53.4869 68.2113L52.0627 66.0434L52.6824 61.4205ZM54.6502 58.6853H52.3246L51.8805 57.3187H55.0939L54.6502 58.6853ZM38.7658 72.348C38.7525 72.2525 38.7445 72.1586 38.7445 72.0604C38.7445 67.3209 41.0672 62.8441 44.8834 60.0916L52.3441 71.4527C52.5969 71.8379 53.0266 72.0703 53.4867 72.0703C53.9473 72.0703 54.3771 71.8377 54.6299 71.4527L62.091 60.0896C65.9072 62.8439 68.2297 67.3207 68.2297 72.0602C68.2297 72.1641 68.2213 72.265 68.2059 72.3672C64.0186 75.6445 58.8895 77.4238 53.4871 77.4238C47.9408 77.4238 42.8289 75.5279 38.7658 72.348ZM53.4869 26.8166C46.3633 26.8166 39.6656 29.5922 34.6281 34.6295C29.5906 39.6658 26.8166 46.3631 26.8166 53.4865C26.8166 68.1939 38.7811 80.1582 53.4873 80.1582C60.6111 80.1582 67.309 77.3826 72.3461 72.3463C77.3838 67.309 80.1576 60.6119 80.1576 53.4865C80.1576 38.7816 68.1936 26.8166 53.4869 26.8166ZM95.5078 57.8262V49.1484C95.5078 48.3305 94.8424 47.666 94.0244 47.666C89.5088 47.666 85.6283 45.0705 83.8973 40.8908C82.1662 36.7129 83.0748 32.1332 86.2682 28.9395C86.8465 28.3613 86.8465 27.4203 86.2682 26.8412L80.132 20.7066C79.5541 20.1268 78.6135 20.1268 78.0348 20.7066C74.8418 23.9004 70.2621 24.8084 66.0832 23.076C61.9045 21.3453 59.3084 17.4652 59.3084 12.949C59.3084 12.1311 58.6432 11.4666 57.8258 11.4666H49.1486C48.3309 11.4666 47.6654 12.1311 47.6654 12.949C47.6654 17.2363 45.3518 20.9199 41.566 22.7719V26.0217C41.566 27.9729 39.9785 29.5609 38.0277 29.5609H28.0969C27.4359 34.26 29.7684 37.0199 29.8754 37.143C30.2459 37.5703 30.3174 38.1879 30.0506 38.6861C29.8109 39.1346 29.3463 39.4121 28.8467 39.4121C28.791 39.4121 28.7346 39.4084 28.6787 39.4029C26.7666 39.1621 25.1691 38.6953 23.8328 38.0959C23.532 40.3422 22.5473 42.477 20.985 44.1801C18.9215 46.4281 16.0674 47.666 12.9494 47.666C12.1316 47.666 11.4668 48.3305 11.4668 49.1484V57.8262C11.4668 58.6422 12.1316 59.3086 12.9494 59.3086C17.4654 59.3086 21.3461 61.9049 23.077 66.0838C24.808 70.2617 23.8994 74.8424 20.7062 78.0352C20.4262 78.3145 20.2723 78.6877 20.2723 79.0848C20.2723 79.4809 20.4264 79.8521 20.7062 80.1334L26.8422 86.268C27.1223 86.5492 27.4945 86.7035 27.8908 86.7035C28.2869 86.7035 28.6596 86.5492 28.9395 86.268C32.1363 83.0725 36.7172 82.1598 40.8941 83.8912C45.0711 85.6219 47.6656 89.5039 47.6656 94.0256C47.6656 94.8418 48.3309 95.508 49.1488 95.508H57.826C58.6436 95.508 59.3086 94.8418 59.3086 94.0256C59.3086 89.5104 61.9045 85.6291 66.0834 83.8969C70.2623 82.1662 74.842 83.0742 78.0353 86.268C78.315 86.5492 78.6877 86.7035 79.084 86.7035C79.4799 86.7035 79.8525 86.5492 80.1322 86.268L86.2684 80.1334C86.5484 79.8521 86.7027 79.4809 86.7027 79.0848C86.7027 78.6877 86.5484 78.3147 86.2684 78.0352C83.075 74.8424 82.1664 70.2619 83.8975 66.0838C85.6285 61.9049 89.509 59.3086 94.0246 59.3086C94.8426 59.3086 95.5078 58.6422 95.5078 57.8262ZM19.5277 28.1648C19.5361 28.424 19.792 33.9824 26.1596 36.0668C25.4031 34.1625 24.8359 31.377 25.6262 27.891C25.7672 27.268 26.3209 26.8268 26.9596 26.8268H38.0279C38.4713 26.8268 38.8316 26.4646 38.8316 26.0217V5.29707C38.8316 4.85312 38.4713 4.49297 38.0279 4.49297H5.29629C4.85293 4.49297 4.49219 4.85312 4.49219 5.29707V26.0215C4.49219 26.4645 4.85293 26.8266 5.29629 26.8266H18.1607C18.9051 26.8268 19.5123 27.4205 19.5277 28.1648ZM94.0246 44.9318C90.6359 44.9318 87.7232 42.9826 86.4236 39.8459C85.124 36.7074 85.8051 33.2701 88.2018 30.8732C89.8459 29.2291 89.8459 26.5527 88.2018 24.9086L82.0656 18.7721C80.4215 17.1289 77.7461 17.1289 76.1016 18.7721C73.7047 21.1699 70.267 21.85 67.1297 20.5514C63.992 19.2518 62.043 16.3385 62.043 12.949C62.043 10.6229 60.151 8.73242 57.8258 8.73242H49.1486C46.8229 8.73242 44.9314 10.6229 44.9314 12.949C44.9314 16.0592 43.4014 18.2621 41.5662 19.5863V5.29707C41.5662 3.3459 39.9787 1.75781 38.0279 1.75781H5.29629C3.34512 1.75781 1.75781 3.3459 1.75781 5.29707V26.0215C1.75781 27.9727 3.34492 29.5607 5.29629 29.5607H16.9609C17.1484 30.5238 17.5453 31.8988 18.3859 33.3225C18.9922 34.348 19.8869 35.4904 21.1955 36.5133C21.2254 38.6445 20.4326 40.7363 18.9705 42.3299C17.4311 44.008 15.2924 44.9316 12.9496 44.9316C10.6244 44.9316 8.73242 46.824 8.73242 49.1482V57.826C8.73242 60.1502 10.6244 62.0426 12.9496 62.0426C16.3387 62.0426 19.2512 63.9928 20.5508 67.1285C21.8504 70.268 21.1693 73.7053 18.7727 76.1012C17.9764 76.898 17.5377 77.9568 17.5377 79.0844C17.5377 80.2111 17.9764 81.2699 18.7727 82.0666L24.9086 88.2012C25.7049 88.998 26.7639 89.4373 27.8908 89.4373C29.0174 89.4373 30.0766 88.998 30.8727 88.2012C33.273 85.8006 36.7117 85.1168 39.8477 86.4154C42.9832 87.715 44.9314 90.6301 44.9314 94.0252C44.9314 96.3494 46.8231 98.2418 49.1486 98.2418H57.8258C60.1512 98.2418 62.043 96.3494 62.043 94.0252C62.043 90.6367 63.992 87.7225 67.1297 86.4238C70.2674 85.1225 73.7051 85.8045 76.1016 88.2012C76.8979 88.998 77.9572 89.4373 79.0838 89.4373C80.2104 89.4373 81.2693 88.998 82.0656 88.2012L88.2018 82.0666C88.998 81.2697 89.4367 80.2111 89.4367 79.0844C89.4367 77.9566 88.998 76.898 88.2018 76.1012C85.8051 73.7053 85.124 70.268 86.4236 67.1285C87.7232 63.9928 90.6357 62.0426 94.0246 62.0426C96.3508 62.0426 98.242 60.1502 98.242 57.826V49.1482C98.242 46.8242 96.3508 44.9318 94.0246 44.9318Z" fill="#393737"/>
</svg>
