<svg width="80" height="80" viewBox="0 0 80 80" fill="none" xmlns="http://www.w3.org/2000/svg">
<path d="M9.69784 16.8359C9.83511 16.7487 9.93505 16.6238 10.0099 16.4617L10.8711 14.4025H15.364L16.2251 16.4745C16.3001 16.6238 16.3998 16.7487 16.5371 16.8359C16.6744 16.9236 16.8243 16.9736 16.9989 16.9736C17.2361 16.9736 17.4358 16.8858 17.5854 16.7365C17.7353 16.5738 17.8102 16.3867 17.8102 16.1497C17.8102 16.0497 17.7852 15.9376 17.7229 15.8005L14.1658 7.38835C14.0785 7.20126 13.9537 7.03916 13.804 6.91424C13.6292 6.77712 13.4295 6.71436 13.1799 6.71436H13.0427C12.8055 6.71436 12.6057 6.77712 12.4311 6.91424C12.2812 7.03916 12.1566 7.20126 12.0692 7.40115L8.49976 15.8005C8.44979 15.9376 8.4248 16.0497 8.4248 16.1497C8.4248 16.3867 8.49976 16.5738 8.64952 16.7365C8.91156 16.9986 9.36084 17.0485 9.69784 16.8359ZM11.5076 12.8675L13.1175 9.01118L14.715 12.8675H11.5076Z" fill="#B9F8B1"/>
<path d="M21.3538 16.5994C21.9903 16.8986 22.6643 17.0357 23.3508 17.0357C24.0371 17.0357 24.6986 16.8986 25.3352 16.5994C25.984 16.3118 26.5207 15.8626 26.92 15.2636C27.332 14.6646 27.5441 13.9156 27.5441 13.0545V7.53825C27.5441 7.31338 27.4568 7.11411 27.2945 6.9514C26.9825 6.6272 26.4459 6.6272 26.1339 6.9514C25.984 7.11411 25.8967 7.31338 25.8967 7.53825V13.0917C25.8967 13.6164 25.7844 14.0655 25.5474 14.4153C25.3102 14.7767 24.9982 15.0515 24.6113 15.2264C23.8249 15.6006 22.8764 15.6006 22.0903 15.2264C21.7033 15.0515 21.3913 14.7767 21.1542 14.4153C20.917 14.0655 20.8047 13.6164 20.8047 13.0917V7.53825C20.8047 7.31338 20.7173 7.11411 20.5552 6.9514C20.2307 6.6272 19.7064 6.6272 19.3944 6.9514C19.2322 7.11411 19.1572 7.31338 19.1572 7.53825V13.0545C19.1572 13.9156 19.3694 14.6646 19.7688 15.2636C20.1807 15.8626 20.7173 16.3118 21.3538 16.5994Z" fill="#B9F8B1"/>
<path d="M30.6275 16.8986H33.4356C34.5214 16.8986 35.4699 16.6487 36.2312 16.1624C36.9925 15.6755 37.579 15.0393 37.966 14.2654C38.353 13.5036 38.5525 12.6803 38.5525 11.8436C38.5525 10.9954 38.353 10.1842 37.966 9.41031C37.579 8.63637 36.9925 8.00016 36.2312 7.51325C35.4699 7.02634 34.5214 6.7771 33.4356 6.7771H30.6275C30.3903 6.7771 30.2032 6.86424 30.0408 7.02634C29.8912 7.18905 29.8037 7.38833 29.8037 7.61319V16.0875C29.8037 16.3117 29.8912 16.5116 30.0408 16.6615C30.2032 16.8236 30.4027 16.8986 30.6275 16.8986ZM31.4512 15.3385V8.33716H33.2733C34.0096 8.33716 34.6461 8.48707 35.1954 8.78629C35.7444 9.0855 36.1689 9.49745 36.4684 10.0093C36.7679 10.5334 36.9175 11.1575 36.9175 11.8436C36.9175 12.5304 36.7679 13.1417 36.4684 13.6663C36.1689 14.1904 35.7444 14.6024 35.1954 14.8894C34.6461 15.1886 34.0096 15.3385 33.2733 15.3385H31.4512Z" fill="#B9F8B1"/>
<path d="M41.1111 16.9736C41.3356 16.9736 41.5354 16.8858 41.6976 16.7365C41.8599 16.5738 41.9347 16.3867 41.9347 16.1497V7.53825C41.9347 7.31338 41.8599 7.11411 41.6976 6.9514C41.3731 6.6272 40.849 6.6272 40.5245 6.9514C40.3746 7.11411 40.2998 7.31338 40.2998 7.53825V16.1497C40.2998 16.3867 40.3746 16.5738 40.537 16.7365C40.6866 16.8858 40.8864 16.9736 41.1111 16.9736Z" fill="#B9F8B1"/>
<path d="M43.8687 8.33716H46.5396V16.1496C46.5396 16.3867 46.6144 16.5738 46.7768 16.7365C46.9264 16.8858 47.1261 16.9736 47.3508 16.9736C47.5754 16.9736 47.7751 16.8858 47.9374 16.7365C48.0996 16.5866 48.1744 16.3867 48.1744 16.1496V8.33716H50.8329C51.045 8.33716 51.2322 8.2622 51.382 8.12509C51.5317 7.97518 51.619 7.78748 51.619 7.56322C51.619 7.35115 51.5442 7.16346 51.382 7.01416C51.2322 6.85145 51.045 6.7771 50.8329 6.7771H43.8687C43.6566 6.7771 43.4693 6.86424 43.3196 7.01416C43.1697 7.16346 43.1074 7.35115 43.1074 7.56322C43.1074 7.78748 43.1697 7.97518 43.3196 8.12509C43.4693 8.2622 43.6566 8.33716 43.8687 8.33716Z" fill="#B9F8B1"/>
<path d="M10.1712 35.2823H19.0448C20.6048 35.2823 21.8779 34.0092 21.8779 32.4492V24.6988C21.8779 23.1516 20.6048 21.8779 19.0448 21.8779H10.1712C8.62362 21.8779 7.35059 23.1516 7.35059 24.6988V32.4492C7.35059 34.0092 8.62362 35.2823 10.1712 35.2823ZM13.5159 29.0798C13.6469 28.9488 16.6921 25.9036 16.4989 26.0968C16.8607 25.722 17.4599 25.722 17.8217 26.0968C18.1836 26.4588 18.1836 27.045 17.8217 27.4198L14.1774 31.064C13.8 31.4414 13.1978 31.4194 12.842 31.064L10.97 29.1919C10.608 28.8172 10.608 28.2309 10.97 27.8689C11.3318 27.4941 11.931 27.4941 12.2928 27.8689C12.4176 27.9925 13.6407 29.2034 13.5159 29.0798Z" fill="#B9F8B1"/>
<path d="M45.916 22.6147C45.2297 22.6147 44.668 23.176 44.668 23.8628C44.668 24.549 45.2297 25.1108 45.916 25.1108H51.5322C52.2311 25.1108 52.7803 24.549 52.7803 23.8628C52.7803 23.176 52.2311 22.6147 51.5322 22.6147H45.916Z" fill="#B9F8B1"/>
<path d="M29.2539 25.1108H41.6469C42.3334 25.1108 42.895 24.549 42.895 23.8628C42.895 23.176 42.3334 22.6147 41.6469 22.6147H29.2539C28.5549 22.6147 28.0059 23.176 28.0059 23.8628C28.0059 24.549 28.5549 25.1108 29.2539 25.1108Z" fill="#B9F8B1"/>
<path d="M51.5315 27.332H38.1523C37.4535 27.332 36.9043 27.8939 36.9043 28.5801C36.9043 29.2669 37.4535 29.8281 38.1523 29.8281H51.5315C52.2304 29.8281 52.7796 29.2669 52.7796 28.5801C52.7796 27.8939 52.2304 27.332 51.5315 27.332Z" fill="#B9F8B1"/>
<path d="M29.2539 29.8281H33.8217C34.5081 29.8281 35.0697 29.2669 35.0697 28.5801C35.0697 27.8939 34.5081 27.332 33.8217 27.332H29.2539C28.5549 27.332 28.0059 27.8939 28.0059 28.5801C28.0059 29.2669 28.5549 29.8281 29.2539 29.8281Z" fill="#B9F8B1"/>
<path d="M46.128 33.2981C46.128 32.5991 45.5663 32.05 44.8799 32.05H41.3604C40.6614 32.05 40.1123 32.5991 40.1123 33.2981C40.1123 33.9843 40.6614 34.5461 41.3604 34.5461H44.8799C45.5663 34.5461 46.128 33.9843 46.128 33.2981Z" fill="#B9F8B1"/>
<path d="M29.2539 34.5461H36.867C37.5533 34.5461 38.115 33.9843 38.115 33.2981C38.115 32.5991 37.5533 32.05 36.867 32.05H29.2539C28.5549 32.05 28.0059 32.5991 28.0059 33.2981C28.0059 33.9843 28.5549 34.5461 29.2539 34.5461Z" fill="#B9F8B1"/>
<path d="M10.1712 52.331H19.0448C20.6048 52.331 21.8779 51.0701 21.8779 49.5101V41.7597C21.8779 40.1997 20.6048 38.9395 19.0448 38.9395H10.1712C8.62362 38.9395 7.35059 40.1997 7.35059 41.7597V49.5101C7.35059 51.0701 8.62362 52.331 10.1712 52.331ZM13.5159 46.1407C13.6404 46.0157 16.6936 42.9494 16.4989 43.1449C16.8607 42.7829 17.4599 42.7829 17.8217 43.1449C18.1836 43.5197 18.1836 44.1059 17.8217 44.4679L14.1774 48.1249C13.7717 48.5042 13.2178 48.4759 12.842 48.1249L10.97 46.2407C10.608 45.8787 10.608 45.2918 10.97 44.917C11.3318 44.5557 11.931 44.5557 12.2928 44.917C12.4176 45.0419 13.6407 46.2656 13.5159 46.1407Z" fill="#B9F8B1"/>
<path d="M10.1712 69.3915H19.0448C20.6048 69.3915 21.8779 68.1307 21.8779 66.5706V58.8203C21.8779 57.2602 20.6048 56 19.0448 56H10.1712C8.62362 56 7.35059 57.2602 7.35059 58.8203V66.5706C7.35059 68.1307 8.62362 69.3915 10.1712 69.3915ZM13.5159 63.2013C13.6404 63.0762 16.6936 60.0099 16.4989 60.2055C16.8607 59.8441 17.4599 59.8441 17.8217 60.2055C18.1836 60.5674 18.1836 61.1671 17.8217 61.5291L14.1774 65.1855C13.7725 65.564 13.2202 65.5387 12.842 65.1855L10.97 63.3012C10.608 62.9392 10.608 62.3402 10.97 61.9782C11.3318 61.6162 11.931 61.6162 12.2928 61.9782C12.4177 62.1031 13.6407 63.3261 13.5159 63.2013Z" fill="#B9F8B1"/>
<path d="M51.5322 39.6755H45.916C45.2297 39.6755 44.668 40.2368 44.668 40.9236C44.668 41.6098 45.2297 42.1716 45.916 42.1716H51.5322C52.2311 42.1716 52.7803 41.6098 52.7803 40.9236C52.7803 40.2368 52.2311 39.6755 51.5322 39.6755Z" fill="#B9F8B1"/>
<path d="M29.2539 42.1716H41.6469C42.3334 42.1716 42.895 41.6098 42.895 40.9236C42.895 40.2368 42.3334 39.6755 41.6469 39.6755H29.2539C28.5549 39.6755 28.0059 40.2368 28.0059 40.9236C28.0059 41.6098 28.5549 42.1716 29.2539 42.1716Z" fill="#B9F8B1"/>
<path d="M29.2539 46.8889H33.8217C34.5081 46.8889 35.0697 46.3277 35.0697 45.6409C35.0697 44.9425 34.5081 44.3928 33.8217 44.3928H29.2539C28.5549 44.3928 28.0059 44.9425 28.0059 45.6409C28.0059 46.3277 28.5549 46.8889 29.2539 46.8889Z" fill="#B9F8B1"/>
<path d="M29.2539 51.594H36.867C37.5533 51.594 38.115 51.0327 38.115 50.3459C38.115 49.6598 37.5533 49.0979 36.867 49.0979H29.2539C28.5549 49.0979 28.0059 49.6598 28.0059 50.3459C28.0059 51.0327 28.5549 51.594 29.2539 51.594Z" fill="#B9F8B1"/>
<path d="M29.2539 59.2324H39.3631C40.0494 59.2324 40.6111 58.6712 40.6111 57.9844C40.6111 57.2854 40.0494 56.7363 39.3631 56.7363H29.2539C28.5549 56.7363 28.0059 57.2854 28.0059 57.9844C28.0059 58.6712 28.5549 59.2324 29.2539 59.2324Z" fill="#B9F8B1"/>
<path d="M29.2539 63.9375H33.8217C34.5081 63.9375 35.0697 63.3884 35.0697 62.6895C35.0697 62.0033 34.5081 61.4414 33.8217 61.4414H29.2539C28.5549 61.4414 28.0059 62.0033 28.0059 62.6895C28.0059 63.3884 28.5549 63.9375 29.2539 63.9375Z" fill="#B9F8B1"/>
<path d="M29.2539 68.6555H36.867C37.5533 68.6555 38.115 68.0937 38.115 67.4075C38.115 66.7207 37.5533 66.1594 36.867 66.1594H29.2539C28.5549 66.1594 28.0059 66.7207 28.0059 67.4075C28.0059 68.0937 28.5549 68.6555 29.2539 68.6555Z" fill="#B9F8B1"/>
<path d="M78.3275 56.2493L75.5694 55.2133L76.8049 52.493C77.1294 51.7318 76.9547 50.858 76.3681 50.2711L71.925 45.8158C71.326 45.2289 70.4524 45.0547 69.666 45.3917L66.9953 46.6019L65.9593 43.8688C65.6723 43.0826 64.911 42.5586 64.0622 42.5586H59.507V8.93622C59.507 4.00619 55.5008 0 50.5709 0H8.93607C4.00634 0 0 4.00619 0 8.93622V65.8717C0 70.7896 4.00634 74.8079 8.93607 74.8079H47.975L49.9096 76.7422C50.4961 77.354 51.4197 77.5039 52.156 77.1541L54.8393 75.9438L55.8751 78.7142C56.1871 79.5009 56.9359 80 57.7597 80H64.0622C64.9235 80 65.6848 79.4631 65.9593 78.6898L66.9953 75.9438L69.6411 77.1541C70.4024 77.5039 71.326 77.354 71.925 76.7422L76.3681 72.2868C76.9547 71.6878 77.1294 70.8139 76.7924 70.0156L75.5694 67.3446L78.365 66.2965C79.1263 65.9845 79.6255 65.2477 79.6255 64.4244V58.1214C79.6255 57.2853 79.1013 56.5369 78.3275 56.2493ZM2.4961 8.93622C2.4961 5.39135 5.3915 2.4961 8.93607 2.4961H50.5709C54.1278 2.4961 57.0109 5.39135 57.0109 8.93622V42.7085C56.5116 42.9077 56.0998 43.3197 55.8626 43.8688L54.8393 46.6147L52.131 45.3789C51.3697 45.0547 50.4961 45.2289 49.9096 45.8158L45.454 50.2711C44.8549 50.8708 44.6927 51.7812 45.042 52.518L46.2527 55.2133L43.5194 56.2371C42.7208 56.5113 42.1841 57.2731 42.1841 58.1214V64.4244C42.1841 65.2605 42.6958 65.9966 43.5069 66.3214L46.2527 67.3446L45.0545 70.0028C44.6927 70.7646 44.8549 71.6756 45.454 72.2747L45.4911 72.3118H8.93607C5.3915 72.3118 2.4961 69.4166 2.4961 65.8717V8.93622ZM51.9063 61.2793C51.9063 56.2183 56.0465 52.2681 60.9048 52.2681C65.8845 52.2681 69.9157 56.2993 69.9157 61.2793C69.9157 66.2465 65.8845 70.2898 60.9048 70.2898C56.0034 70.2898 51.9063 66.306 51.9063 61.2793Z" fill="#B9F8B1"/>
</svg>
