<svg width="100" height="100" viewBox="0 0 100 100" fill="none" xmlns="http://www.w3.org/2000/svg">
<path d="M54.6875 81.25V85.9375C54.6875 86.4531 54.6094 86.9531 54.4375 87.4062C53.8281 89.2812 52.0781 90.625 50 90.625H43.75H37.5C35.4219 90.625 33.6719 89.2812 33.0625 87.4062C32.8906 86.9531 32.8125 86.4531 32.8125 85.9375V81.25H54.6875Z" fill="#CCD1D9"/>
<path d="M78.125 95.3125C78.125 96.1719 77.4219 96.875 76.5625 96.875H10.9375C10.0781 96.875 9.375 96.1719 9.375 95.3125C9.375 93.1563 10.5469 91.2031 13.2812 89.7813C16.0156 88.375 20.3125 87.5 26.5625 87.5H32.8125L33.0625 87.4062C33.6719 89.2813 35.4219 90.625 37.5 90.625H43.75H50C52.0781 90.625 53.8281 89.2813 54.4375 87.4062L54.6875 87.5H60.9375C73.4375 87.5 78.125 91 78.125 95.3125Z" fill="#AAB2BD"/>
<path d="M73.2344 16.875C69.3437 18.4531 66.1719 21.4062 64.3125 25.125L64.0625 25H57.8125H43.4844C42.6562 23.0938 42.1875 20.9688 42.1875 18.75C42.1875 10.125 49.1875 3.125 57.8125 3.125C65.375 3.125 71.6719 8.5 73.125 15.625L73.2344 16.875Z" fill="#FFC943"/>
<path d="M84.375 25H9.375C5.92188 25 3.125 27.7969 3.125 31.25V75C3.125 78.4531 5.92188 81.25 9.375 81.25H78.125C81.5781 81.25 84.375 78.4531 84.375 75V25Z" fill="#E6E9ED"/>
<path d="M12.5 34.375H75V68.75H12.5V34.375Z" fill="#B9F8B1"/>
<path d="M73.2344 16.875C75.2187 16.0625 77.4062 15.625 79.6875 15.625C89.1875 15.625 96.875 23.3125 96.875 32.8125C96.875 40.6875 91.5938 47.3125 84.375 49.3438C82.8906 49.7812 81.3125 50 79.6875 50C78.0625 50 76.4844 49.7812 75 49.3438C71.1562 48.2656 67.8594 45.875 65.625 42.6875C63.9375 40.2969 62.8437 37.4531 62.5781 34.375C62.5312 33.8594 62.5 33.3438 62.5 32.8125C62.5 30.0469 63.1562 27.4375 64.3125 25.125C66.1719 21.4062 69.3437 18.4531 73.2344 16.875Z" fill="#FFC943"/>
<path d="M68.75 32.8125C68.75 26.7656 73.6406 21.875 79.6875 21.875C85.7344 21.875 90.625 26.7656 90.625 32.8125C90.625 38.8594 85.7344 43.75 79.6875 43.75C73.6406 43.75 68.75 38.8594 68.75 32.8125Z" fill="#E6E9ED"/>
<path d="M73.8828 36.3999L83.2561 27.0266L85.4655 29.236L76.0922 38.6093L73.8828 36.3999Z" fill="#393737"/>
<path d="M75 31.25C75.8629 31.25 76.5625 30.5504 76.5625 29.6875C76.5625 28.8246 75.8629 28.125 75 28.125C74.1371 28.125 73.4375 28.8246 73.4375 29.6875C73.4375 30.5504 74.1371 31.25 75 31.25Z" fill="#393737"/>
<path d="M84.375 37.5C85.2379 37.5 85.9375 36.8004 85.9375 35.9375C85.9375 35.0746 85.2379 34.375 84.375 34.375C83.5121 34.375 82.8125 35.0746 82.8125 35.9375C82.8125 36.8004 83.5121 37.5 84.375 37.5Z" fill="#393737"/>
<path d="M79.6875 20.3125C72.7953 20.3125 67.1875 25.9203 67.1875 32.8125C67.1875 39.7047 72.7953 45.3125 79.6875 45.3125C86.5797 45.3125 92.1875 39.7047 92.1875 32.8125C92.1875 25.9203 86.5797 20.3125 79.6875 20.3125ZM79.6875 42.1875C74.5172 42.1875 70.3125 37.9828 70.3125 32.8125C70.3125 27.6422 74.5172 23.4375 79.6875 23.4375C84.8578 23.4375 89.0625 27.6422 89.0625 32.8125C89.0625 37.9828 84.8578 42.1875 79.6875 42.1875Z" fill="#393737"/>
<path d="M98.4375 32.8125C98.4375 22.4734 90.0266 14.0625 79.6875 14.0625C77.8969 14.0625 76.1703 14.3297 74.5281 14.8016C72.7156 7.10156 65.7781 1.5625 57.8125 1.5625C48.3359 1.5625 40.625 9.27344 40.625 18.75C40.625 20.3547 40.8609 21.9203 41.2922 23.4375H9.375C5.06719 23.4375 1.5625 26.9422 1.5625 31.25V75C1.5625 79.3078 5.06719 82.8125 9.375 82.8125H31.25V85.9375H26.5625C10.2484 85.9375 7.8125 91.8109 7.8125 95.3125C7.8125 97.0359 9.21406 98.4375 10.9375 98.4375H76.5625C78.2859 98.4375 79.6875 97.0359 79.6875 95.3125C79.6875 91.8109 77.2516 85.9375 60.9375 85.9375H56.25V82.8125H78.125C82.4328 82.8125 85.9375 79.3078 85.9375 75V50.4688C93.2078 47.8859 98.4375 40.9578 98.4375 32.8125ZM43.75 18.75C43.75 10.9953 50.0594 4.6875 57.8125 4.6875C64.4469 4.6875 70.2219 9.37812 71.5766 15.8531L71.5828 15.9297C68.1859 17.5672 65.3578 20.1906 63.4734 23.4375H62.2109C62.3875 22.9469 62.5 22.425 62.5 21.875C62.5 19.2906 60.3969 17.1875 57.8125 17.1875C56.9516 17.1875 56.25 16.4875 56.25 15.625C56.25 14.7625 56.9516 14.0625 57.8125 14.0625C58.6734 14.0625 59.375 14.7625 59.375 15.625H62.5C62.5 13.5906 61.1891 11.8719 59.375 11.225V7.8125H56.25V11.225C54.4359 11.8719 53.125 13.5906 53.125 15.625C53.125 18.2094 55.2281 20.3125 57.8125 20.3125C58.6734 20.3125 59.375 21.0125 59.375 21.875C59.375 22.7375 58.6734 23.4375 57.8125 23.4375C56.9516 23.4375 56.25 22.7375 56.25 21.875H53.125C53.125 22.425 53.2375 22.9469 53.4125 23.4375H44.5656C44.0344 21.9375 43.75 20.3672 43.75 18.75ZM64.0625 43.1547V44.7922L60.9375 48.9594L57.8125 44.7922V42.1875H54.6875V45.8328L58.9844 51.5625L54.6875 57.2922V60.9375H57.8125V58.3328L60.9375 54.1656L64.0625 58.3328V60.9375H67.1875V57.2922L62.8906 51.5625L66.7797 46.3766C68.6687 48.1766 70.9297 49.5781 73.4375 50.4688V67.1875H14.0625V35.9375H61.2203C61.6641 38.5672 62.6422 41.0156 64.0625 43.1547ZM60.9375 89.0625C70.8672 89.0625 76.5625 91.3406 76.5625 95.3125H10.9375C10.9375 91.3406 16.6328 89.0625 26.5625 89.0625H32.1187C33.2031 90.9219 35.1969 92.1875 37.5 92.1875H43.75H50C52.3031 92.1875 54.2969 90.9219 55.3812 89.0625H60.9375ZM53.125 85.9375C53.125 87.6609 51.7234 89.0625 50 89.0625H43.75H37.5C35.7766 89.0625 34.375 87.6609 34.375 85.9375V82.8125H53.125V85.9375ZM82.8125 75C82.8125 77.5844 80.7094 79.6875 78.125 79.6875H9.375C6.79063 79.6875 4.6875 77.5844 4.6875 75V31.25C4.6875 28.6656 6.79063 26.5625 9.375 26.5625H62.0312C61.3359 28.5203 60.9375 30.6187 60.9375 32.8125H10.9375V70.3125H76.5625V51.2797C77.5813 51.4516 78.6203 51.5625 79.6875 51.5625C80.7547 51.5625 81.7937 51.4516 82.8125 51.2797V75ZM79.6875 48.4375C71.0719 48.4375 64.0625 41.4281 64.0625 32.8125C64.0625 24.1969 71.0719 17.1875 79.6875 17.1875C88.3031 17.1875 95.3125 24.1969 95.3125 32.8125C95.3125 41.4281 88.3031 48.4375 79.6875 48.4375Z" fill="#393737"/>
<path d="M40.625 57.8125H46.875V60.9375H50V56.25L46.5328 42.1875H40.9672L37.5469 55.8719L37.5 60.9375H40.625V57.8125ZM44.0922 45.3125L46.4359 54.6875H41.0641L43.4078 45.3125H44.0922Z" fill="#393737"/>
<path d="M26.5625 60.9375H29.6875V45.3125H35.9375V42.1875H20.3125V45.3125H26.5625V60.9375Z" fill="#393737"/>
<path d="M73.4375 73.4375H76.5625V76.5625H73.4375V73.4375Z" fill="#393737"/>
<path d="M67.1875 73.4375H70.3125V76.5625H67.1875V73.4375Z" fill="#393737"/>
<path d="M60.9375 73.4375H64.0625V76.5625H60.9375V73.4375Z" fill="#393737"/>
</svg>
