<svg width="80" height="80" viewBox="0 0 80 80" fill="none" xmlns="http://www.w3.org/2000/svg">
<g clip-path="url(#clip0_29_706)">
<path d="M14.0539 33.0731H7.68606C6.99574 33.0731 6.43606 33.6328 6.43606 34.3231V45.2005C6.43606 45.8908 6.99574 46.4505 7.68606 46.4505H14.0539C14.7442 46.4505 15.3039 45.8908 15.3039 45.2005V34.3231C15.3039 33.6328 14.7442 33.0731 14.0539 33.0731ZM12.8039 43.9505H8.93606V35.5731H12.8039V43.9505ZM38.895 11.2483L11.5993 27.0075C11.4025 27.1213 11.1875 27.1752 10.9756 27.1752C10.5434 27.1752 10.1234 26.9509 9.89184 26.55C9.54652 25.9522 9.75152 25.1877 10.3493 24.8425L37.6451 9.08344L35.3593 8.63094C34.6822 8.49687 34.2418 7.83922 34.3759 7.16203C34.51 6.48484 35.1681 6.04516 35.8448 6.17859L41.3928 7.27687C41.7464 7.34687 42.0525 7.56609 42.2325 7.87812C42.4126 8.19016 42.4495 8.56484 42.3334 8.90594L40.5107 14.26C40.3337 14.78 39.8479 15.1075 39.3276 15.1075C39.194 15.1075 39.0581 15.0859 38.9247 15.0405C38.2711 14.818 37.9217 14.1078 38.1442 13.4544L38.895 11.2483ZM77.7256 49.0933L73.0532 45.2006V29.9019C73.0532 28.658 72.0411 27.6459 70.7973 27.6459H54.3629V3.91969C54.3629 1.84453 52.6747 0.15625 50.5995 0.15625H16.0601C15.0403 0.15625 14.1201 0.537344 13.3989 1.25859L1.8398 12.8178C1.11871 13.5389 0.737305 14.4592 0.737305 15.4791V69.3294C0.737305 71.4045 2.42559 73.0928 4.50074 73.0928H26.9637V75.5756C26.9637 77.9291 28.8784 79.8438 31.2318 79.8438H74.9937C77.3472 79.8438 79.2617 77.9291 79.2617 75.5758V52.3727C79.2618 51.0833 78.7164 49.9186 77.7256 49.0933ZM70.5532 30.1459V53.9658L54.0206 63.8592C53.4353 64.2095 52.7901 64.2095 52.2048 63.8592L35.6725 53.9656V37.0253H40.2253C41.5082 37.0253 42.552 35.9814 42.552 34.6983V30.1458H70.5532V30.1459ZM42.2962 27.6459V18.0855H46.164V27.6459H42.2962ZM27.0576 51.4684H16.9286C16.2382 51.4684 15.6786 52.0281 15.6786 52.7184C15.6786 53.4088 16.2382 53.9684 16.9286 53.9684H26.9639V57.2716H16.9286C16.2382 57.2716 15.6786 57.8312 15.6786 58.5216C15.6786 59.2119 16.2382 59.7716 16.9286 59.7716H26.9639V63.0748H16.9286C16.2382 63.0748 15.6786 63.6345 15.6786 64.3248C15.6786 65.0152 16.2382 65.5748 16.9286 65.5748H26.9639V70.5928H4.5009C3.80418 70.5928 3.23746 70.0261 3.23746 69.3294V15.688H12.7496C14.6901 15.688 16.2689 14.1092 16.2689 12.1687V2.65625H50.5995C51.2962 2.65625 51.8629 3.22297 51.8629 3.91969V27.6459H48.664V16.8355C48.664 16.1452 48.1043 15.5855 47.414 15.5855H41.0462C40.3559 15.5855 39.7962 16.1452 39.7962 16.8355V28.6477L37.544 30.9503V22.6645C37.544 21.9742 36.9843 21.4145 36.294 21.4145H29.9262C29.2359 21.4145 28.6762 21.9742 28.6762 22.6645V45.2005C28.6762 45.8908 29.2359 46.4505 29.9262 46.4505H31.6722L28.5 49.0933C27.7473 49.7206 27.2523 50.5438 27.0576 51.4684ZM35.044 23.9145V33.5064L34.1028 34.4689C33.494 35.0908 33.1725 35.8795 33.1725 36.75V43.9506H31.1762V23.9147H35.044V23.9145ZM29.4637 53.1634L42.6173 61.0352L29.4637 75.3859V53.1634ZM76.7618 75.3955L63.5472 61.0717L76.7618 53.1637V75.3955ZM25.1739 27.2439H18.8061C18.1157 27.2439 17.5561 27.8036 17.5561 28.4939V45.2005C17.5561 45.8908 18.1157 46.4505 18.8061 46.4505H25.1739C25.8642 46.4505 26.4239 45.8908 26.4239 45.2005V28.4939C26.4239 27.8036 25.8642 27.2439 25.1739 27.2439ZM23.9239 43.9505H20.0561V29.7439H23.9239V43.9505ZM12.6536 64.3248C12.6536 65.0152 12.0939 65.5748 11.4036 65.5748H8.50246C7.81215 65.5748 7.25246 65.0152 7.25246 64.3248C7.25246 63.6345 7.81215 63.0748 8.50246 63.0748H11.4036C12.0939 63.0748 12.6536 63.6345 12.6536 64.3248ZM12.6536 52.7184C12.6536 53.4088 12.0939 53.9684 11.4036 53.9684H8.50246C7.81215 53.9684 7.25246 53.4088 7.25246 52.7184C7.25246 52.0281 7.81215 51.4684 8.50246 51.4684H11.4036C12.0939 51.4684 12.6536 52.0281 12.6536 52.7184ZM53.1129 57.6847C59.9187 57.6847 65.4554 52.1478 65.4554 45.3422C65.4554 38.5366 59.9186 32.9997 53.1129 32.9997C46.3073 32.9997 40.7704 38.5366 40.7704 45.3422C40.7704 52.1478 46.3071 57.6847 53.1129 57.6847ZM51.8629 39.2494V38.743C51.8629 38.0527 52.4226 37.493 53.1129 37.493C53.8032 37.493 54.3629 38.0527 54.3629 38.743V39.1972C55.2703 39.3841 56.0912 39.907 56.6454 40.6733C57.05 41.2327 56.9245 42.0141 56.3651 42.4188C55.8056 42.8233 55.0242 42.6978 54.6197 42.1384C54.3854 41.8145 54.0107 41.6209 53.6175 41.6209H52.835C52.1537 41.6209 51.5995 42.1752 51.5995 42.8564C51.5995 43.5377 52.1537 44.0919 52.835 44.0919H53.3906C55.4504 44.0919 57.1261 45.7677 57.1261 47.8273C57.1261 49.5509 55.9528 51.0056 54.3628 51.4345V51.9409C54.3628 52.6312 53.8031 53.1909 53.1128 53.1909C52.4225 53.1909 51.8628 52.6312 51.8628 51.9409V51.4867C50.9554 51.3 50.1343 50.777 49.5801 50.0106C49.1756 49.4512 49.3011 48.6698 49.8604 48.2652C50.4201 47.8605 51.2014 47.9863 51.6059 48.5455C51.8401 48.8694 52.2148 49.063 52.6081 49.063H53.3906C54.0718 49.063 54.6261 48.5088 54.6261 47.8275C54.6261 47.1463 54.0718 46.592 53.3906 46.592H52.835C50.7751 46.592 49.0995 44.9163 49.0995 42.8566C49.0995 41.133 50.2729 39.6783 51.8629 39.2494ZM12.6536 58.5216C12.6536 59.2119 12.0939 59.7716 11.4036 59.7716H8.50246C7.81215 59.7716 7.25246 59.2119 7.25246 58.5216C7.25246 57.8312 7.81215 57.2716 8.50246 57.2716H11.4036C12.0939 57.2716 12.6536 57.8312 12.6536 58.5216Z" fill="#B9F8B1"/>
</g>
<defs>
<clipPath id="clip0_29_706">
<rect width="80" height="80" fill="white"/>
</clipPath>
</defs>
</svg>
