<svg width="80" height="80" viewBox="0 0 80 80" fill="none" xmlns="http://www.w3.org/2000/svg">
<path d="M52.169 46.3247H25.3642C24.9054 46.3247 24.5342 46.696 24.5342 47.1547C24.5342 47.6135 24.9054 47.9847 25.3642 47.9847H52.169C52.6278 47.9847 52.999 47.6135 52.999 47.1547C52.999 46.696 52.6278 46.3247 52.169 46.3247Z" fill="#B9F8B1"/>
<path d="M44.46 52.6963H25.3642C24.9054 52.6963 24.5342 53.0675 24.5342 53.5263C24.5342 53.985 24.9054 54.3563 25.3642 54.3563H44.46C44.9187 54.3563 45.29 53.985 45.29 53.5263C45.29 53.0675 44.9187 52.6963 44.46 52.6963Z" fill="#B9F8B1"/>
<path d="M44.46 59.0681H25.3642C24.9054 59.0681 24.5342 59.4394 24.5342 59.8981C24.5342 60.3569 24.9054 60.7281 25.3642 60.7281H44.46C44.9187 60.7281 45.29 60.3569 45.29 59.8981C45.29 59.4394 44.9187 59.0681 44.46 59.0681Z" fill="#B9F8B1"/>
<path d="M44.46 65.4397H25.3642C24.9054 65.4397 24.5342 65.8109 24.5342 66.2697C24.5342 66.7284 24.9054 67.0997 25.3642 67.0997H44.46C44.9187 67.0997 45.29 66.7284 45.29 66.2697C45.29 65.8109 44.9187 65.4397 44.46 65.4397Z" fill="#B9F8B1"/>
<path d="M12.9837 9.93423L10.9917 6.15782C10.8092 5.81735 10.5186 5.56001 10.1865 5.39407C10.145 4.97079 9.80465 4.63892 9.37309 4.63892C8.94152 4.63892 8.60121 4.97079 8.55965 5.39407C8.22777 5.56001 7.93715 5.81735 7.75449 6.15782L5.76277 9.93423C5.72121 10.0256 5.66309 10.2497 5.66309 10.3245V37.0256C5.66309 38.5361 6.8998 39.773 8.41043 39.773H10.3361C11.8467 39.773 13.0832 38.5361 13.0832 37.0256V10.3245C13.0832 10.2497 13.0253 10.0174 12.9837 9.93423ZM9.22371 6.93798C9.29012 6.82173 9.45621 6.8136 9.52246 6.93798L10.8754 9.49438H7.8709L9.22371 6.93798ZM11.4232 37.0256C11.4232 37.6233 10.9336 38.113 10.3361 38.113H8.41043C7.81277 38.113 7.32309 37.6231 7.32309 37.0256V34.9755H11.4234L11.4232 37.0256Z" fill="#B9F8B1"/>
<path d="M49.3632 28.4765H38.183V17.2963C38.183 16.8397 37.8094 16.4663 37.353 16.4663C30.273 16.4663 24.5127 22.2265 24.5127 29.3065C24.5127 36.3947 30.273 42.1549 37.353 42.1549C44.4329 42.1549 50.1932 36.3947 50.1932 29.3065C50.1932 28.8499 49.8279 28.4765 49.3632 28.4765ZM37.353 40.4949C31.186 40.4949 26.1729 35.4733 26.1729 29.3065C26.1729 23.4216 30.7461 18.5829 36.523 18.1596V29.3065C36.523 29.7713 36.8966 30.1365 37.353 30.1365H48.5083C48.0768 35.9216 43.2377 40.4949 37.353 40.4949Z" fill="#B9F8B1"/>
<path d="M56.777 64.519H56.165C55.7062 64.519 55.335 64.8903 55.335 65.349C55.335 65.8078 55.7062 66.179 56.165 66.179H56.777C57.2357 66.179 57.607 65.8078 57.607 65.349C57.607 64.8903 57.2357 64.519 56.777 64.519Z" fill="#B9F8B1"/>
<path d="M60.8004 64.519H60.1884C59.7296 64.519 59.3584 64.8903 59.3584 65.349C59.3584 65.8078 59.7296 66.179 60.1884 66.179H60.8004C61.2592 66.179 61.6304 65.8078 61.6304 65.349C61.6304 64.8903 61.2592 64.519 60.8004 64.519Z" fill="#B9F8B1"/>
<path d="M64.8229 64.519H64.2109C63.7521 64.519 63.3809 64.8903 63.3809 65.349C63.3809 65.8078 63.7521 66.179 64.2109 66.179H64.8229C65.2816 66.179 65.6529 65.8078 65.6529 65.349C65.6529 64.8903 65.2816 64.519 64.8229 64.519Z" fill="#B9F8B1"/>
<path d="M68.8461 64.519H68.2333C67.7746 64.519 67.4033 64.8903 67.4033 65.349C67.4033 65.8078 67.7746 66.179 68.2333 66.179H68.8461C69.3049 66.179 69.6761 65.8078 69.6761 65.349C69.6761 64.8903 69.3049 64.519 68.8461 64.519Z" fill="#B9F8B1"/>
<path d="M56.777 67.9697H56.165C55.7062 67.9697 55.335 68.341 55.335 68.7997C55.335 69.2585 55.7062 69.6297 56.165 69.6297H56.777C57.2357 69.6297 57.607 69.2585 57.607 68.7997C57.607 68.341 57.2357 67.9697 56.777 67.9697Z" fill="#B9F8B1"/>
<path d="M60.8004 67.9697H60.1884C59.7296 67.9697 59.3584 68.341 59.3584 68.7997C59.3584 69.2585 59.7296 69.6297 60.1884 69.6297H60.8004C61.2592 69.6297 61.6304 69.2585 61.6304 68.7997C61.6304 68.341 61.2592 67.9697 60.8004 67.9697Z" fill="#B9F8B1"/>
<path d="M64.8229 67.9697H64.2109C63.7521 67.9697 63.3809 68.341 63.3809 68.7997C63.3809 69.2585 63.7521 69.6297 64.2109 69.6297H64.8229C65.2816 69.6297 65.6529 69.2585 65.6529 68.7997C65.6529 68.341 65.2816 67.9697 64.8229 67.9697Z" fill="#B9F8B1"/>
<path d="M68.8461 67.9697H68.2333C67.7746 67.9697 67.4033 68.341 67.4033 68.7997C67.4033 69.2585 67.7746 69.6297 68.2333 69.6297H68.8461C69.3049 69.6297 69.6761 69.2585 69.6761 68.7997C69.6761 68.341 69.3049 67.9697 68.8461 67.9697Z" fill="#B9F8B1"/>
<path d="M56.777 71.4202H56.165C55.7062 71.4202 55.335 71.7914 55.335 72.2502C55.335 72.7089 55.7062 73.0802 56.165 73.0802H56.777C57.2357 73.0802 57.607 72.7089 57.607 72.2502C57.607 71.7914 57.2357 71.4202 56.777 71.4202Z" fill="#B9F8B1"/>
<path d="M60.8004 71.4202H60.1884C59.7296 71.4202 59.3584 71.7914 59.3584 72.2502C59.3584 72.7089 59.7296 73.0802 60.1884 73.0802H60.8004C61.2592 73.0802 61.6304 72.7089 61.6304 72.2502C61.6304 71.7914 61.2592 71.4202 60.8004 71.4202Z" fill="#B9F8B1"/>
<path d="M64.8229 71.4202H64.2109C63.7521 71.4202 63.3809 71.7914 63.3809 72.2502C63.3809 72.7089 63.7521 73.0802 64.2109 73.0802H64.8229C65.2816 73.0802 65.6529 72.7089 65.6529 72.2502C65.6529 71.7914 65.2816 71.4202 64.8229 71.4202Z" fill="#B9F8B1"/>
<path d="M56.777 74.8706H56.165C55.7062 74.8706 55.335 75.2419 55.335 75.7006C55.335 76.1594 55.7062 76.5306 56.165 76.5306H56.777C57.2357 76.5306 57.607 76.1594 57.607 75.7006C57.607 75.2419 57.2357 74.8706 56.777 74.8706Z" fill="#B9F8B1"/>
<path d="M60.8004 74.8706H60.1884C59.7296 74.8706 59.3584 75.2419 59.3584 75.7006C59.3584 76.1594 59.7296 76.5306 60.1884 76.5306H60.8004C61.2592 76.5306 61.6304 76.1594 61.6304 75.7006C61.6304 75.2419 61.2592 74.8706 60.8004 74.8706Z" fill="#B9F8B1"/>
<path d="M64.8229 74.8706H64.2109C63.7521 74.8706 63.3809 75.2419 63.3809 75.7006C63.3809 76.1594 63.7521 76.5306 64.2109 76.5306H64.8229C65.2816 76.5306 65.6529 76.1594 65.6529 75.7006C65.6529 75.2419 65.2816 74.8706 64.8229 74.8706Z" fill="#B9F8B1"/>
<path d="M68.54 71.4202C68.0812 71.4202 67.71 71.7914 67.71 72.2502V75.7006C67.71 76.1594 68.0812 76.5306 68.54 76.5306C68.9987 76.5306 69.37 76.1594 69.37 75.7006V72.2502C69.37 71.7914 68.9987 71.4202 68.54 71.4202Z" fill="#B9F8B1"/>
<path d="M69.8558 49.3593H62.809V43.8067L71.1008 18.2095C71.8892 15.7692 70.5778 13.1298 68.1126 12.3414L62.809 10.6232V9.30369C62.809 6.73057 60.7175 4.63901 58.1526 4.63901H44.3498L31.2273 0.389162C28.7789 -0.407557 26.1476 0.937131 25.3508 3.38557L24.944 4.63885H19.3831C16.8101 4.63885 14.7184 6.73041 14.7184 9.30354V36.1956L6.42685 61.7928C5.63825 64.2331 6.98294 66.8642 9.4231 67.6609L14.7186 69.379V70.6985C14.7186 73.2634 16.8101 75.3549 19.3833 75.3549H33.1614L46.3086 79.6129C48.2509 80.2435 50.3342 79.5215 51.5043 77.9364C52.3178 79.0817 53.6458 79.8371 55.1565 79.8371H69.8559C72.3211 79.8371 74.3378 77.8284 74.3378 75.3549V53.8415C74.3376 51.3681 72.3209 49.3593 69.8558 49.3593ZM50.6743 53.8415V73.6951H19.3833C17.7233 73.6951 16.3787 72.3506 16.3787 70.6987V9.30354C16.3787 7.64354 17.7233 6.29885 19.3833 6.29885H58.1526C59.8043 6.29885 61.149 7.64354 61.149 9.30354V49.3593H55.1564C52.6912 49.3593 50.6743 51.3681 50.6743 53.8415ZM72.6776 75.3551C72.6776 76.9156 71.4076 78.1773 69.8558 78.1773H55.1564C53.6042 78.1773 52.3342 76.9157 52.3342 75.3551V53.8415C52.3342 52.281 53.6042 51.0193 55.1564 51.0193H69.8558C71.4078 51.0193 72.6776 52.2809 72.6776 53.8415V75.3551Z" fill="#B9F8B1"/>
<path d="M53.0227 26.4847C53.0227 26.9412 52.6493 27.3147 52.1927 27.3147H40.1825C39.7177 27.3147 39.3525 26.9412 39.3525 26.4847V14.4745C39.3525 14.0097 39.7177 13.6445 40.1825 13.6445C47.2625 13.6445 53.0227 19.4047 53.0227 26.4847Z" fill="#B9F8B1"/>
<path d="M68.4532 52.2148H56.5593C55.2148 52.2148 54.1191 53.3105 54.1191 54.655V60.3655C54.1191 61.7017 55.2148 62.7973 56.5593 62.7973H68.4532C69.7977 62.7973 70.8935 61.7017 70.8935 60.3655V54.655C70.8935 53.3105 69.7979 52.2148 68.4532 52.2148ZM69.2335 60.3655C69.2335 60.7886 68.8849 61.1373 68.4532 61.1373H56.5593C56.1277 61.1373 55.7791 60.7886 55.7791 60.3655V54.655C55.7791 54.2234 56.1277 53.8748 56.5593 53.8748H68.4532C68.8848 53.8748 69.2335 54.2234 69.2335 54.655V60.3655Z" fill="#B9F8B1"/>
</svg>
