<svg width="71" height="81" viewBox="0 0 71 81" fill="none" xmlns="http://www.w3.org/2000/svg">
<path fill-rule="evenodd" clip-rule="evenodd" d="M23.0691 29.7004C22.3787 29.7004 21.8191 29.1408 21.8191 28.4505C21.8191 27.7601 22.3787 27.2005 23.0691 27.2005H42.0606C42.7509 27.2005 43.3105 27.7601 43.3105 28.4505C43.3105 29.1408 42.7509 29.7004 42.0606 29.7004H23.0691ZM33.6929 68.6822C33.7846 68.6822 33.8596 68.6075 33.8596 68.5156V66.3488C33.8596 66.2571 33.7848 66.1821 33.6929 66.1821H3.7164C3.04984 66.1821 2.49993 65.6322 2.49993 64.9657V3.93071C2.49993 3.26415 3.04965 2.71423 3.7164 2.71423H36.8855C36.9772 2.71423 37.0522 2.78901 37.0522 2.88092V9.71548C37.0522 11.7622 38.7221 13.4321 40.7686 13.4321H47.6031C47.6948 13.4321 47.7698 13.5069 47.7698 13.5988V35.5855C47.7698 35.6772 47.8446 35.7522 47.9365 35.7522H50.1032C50.1949 35.7522 50.2699 35.6774 50.2699 35.5855L50.2697 12.1819C50.2697 11.8621 50.1478 11.5422 49.9036 11.2981L39.1938 0.588206C38.967 0.357394 38.6513 0.214111 38.3021 0.214111H3.7164C1.66973 0.214111 0 1.88403 0 3.93071V64.9658C0 67.0125 1.66992 68.6824 3.7164 68.6824H33.6929V68.6822ZM12.6079 32.0961L16.0594 28.5049C16.1635 28.3966 16.3462 28.4703 16.3462 28.6204V32.6519C16.3462 33.402 15.7335 34.0149 14.9832 34.0149H8.14142C7.39114 34.0149 6.77843 33.4022 6.77843 32.6519V25.8101C6.77843 25.0598 7.39114 24.4471 8.14142 24.4471H12.9634C13.0085 24.4471 13.0473 24.4313 13.0796 24.3998L15.8973 21.6525C16.487 21.081 17.5528 20.8599 18.195 21.4778C18.8279 22.0865 18.6716 23.1389 18.1166 23.691L15.9809 25.8021L11.9434 30.0028C11.8723 30.077 11.7516 30.0696 11.69 29.9874L10.7662 28.7555C10.4471 28.33 9.84349 28.2438 9.41783 28.5629C8.99236 28.882 8.90616 29.4856 9.22527 29.9113L10.9473 32.2076C11.3018 32.6803 12.0049 32.7198 12.4121 32.2972L12.607 32.0951L12.6079 32.0961ZM12.6079 59.8374L16.0594 56.2462C16.1635 56.1379 16.3462 56.2115 16.3462 56.3617V60.3932C16.3462 61.1433 15.7335 61.7562 14.9832 61.7562H8.14142C7.39114 61.7562 6.77843 61.1435 6.77843 60.3932V53.5514C6.77843 52.8011 7.39114 52.1884 8.14142 52.1884H12.9634C13.0085 52.1884 13.0473 52.1726 13.0796 52.141L15.8973 49.3937C16.487 48.8223 17.5528 48.6012 18.195 49.219C18.8279 49.8277 18.6716 50.8802 18.1166 51.4322L15.9809 53.5434L11.9434 57.7441C11.8723 57.8183 11.7516 57.8109 11.69 57.7286L10.7662 56.4968C10.4471 56.0713 9.84349 55.9851 9.41783 56.3042C8.99236 56.6233 8.90616 57.2269 9.22527 57.6525L10.9473 59.9489C11.3018 60.4215 12.0049 60.4611 12.4121 60.0385L12.607 59.8364L12.6079 59.8374ZM12.6079 45.9667L16.0594 42.3755C16.1635 42.2673 16.3462 42.3409 16.3462 42.491V46.5225C16.3462 47.2726 15.7335 47.8855 14.9832 47.8855H8.14142C7.39114 47.8855 6.77843 47.2728 6.77843 46.5225V39.6808C6.77843 38.9305 7.39114 38.318 8.14142 38.318H12.9634C13.0085 38.318 13.0473 38.3022 13.0796 38.2706L15.8973 35.5233C16.487 34.9519 17.5528 34.7308 18.195 35.3486C18.8279 35.9573 18.6716 37.0098 18.1166 37.5618L15.9809 39.673L11.9434 43.8736C11.8723 43.9476 11.7516 43.9404 11.69 43.8582L10.7662 42.6263C10.4471 42.2009 9.84349 42.1147 9.41783 42.4338C8.99236 42.7529 8.90616 43.3566 9.22527 43.7821L10.9473 46.0784C11.3018 46.5511 12.0049 46.5907 12.4121 46.168L12.607 45.966L12.6079 45.9667ZM64.7167 58.0548C65.7104 58.0548 66.4902 58.905 66.4902 59.9022V72.9255C66.4902 73.923 65.7104 74.773 64.7167 74.773H62.4151C61.4214 74.773 60.6416 73.9228 60.6416 72.9255V59.9022C60.6416 58.9048 61.4216 58.0548 62.4151 58.0548H64.7167ZM51.9634 68.6594H54.9849C55.7763 68.6594 56.3983 69.3345 56.3983 70.1286V73.3038C56.3983 74.0977 55.7763 74.773 54.9849 74.773H51.9634C51.172 74.773 50.55 74.0977 50.55 73.3038V70.1286C50.5502 69.3345 51.1722 68.6594 51.9634 68.6594ZM41.872 68.6594H44.8935C45.6849 68.6594 46.3069 69.3345 46.3069 70.1286V73.3038C46.3069 74.0977 45.6849 74.773 44.8935 74.773H41.872C41.0806 74.773 40.4586 74.0977 40.4586 73.3038V70.1286C40.4586 69.3345 41.0806 68.6594 41.872 68.6594ZM51.9634 58.0548H54.9849C55.7763 58.0548 56.3983 58.7301 56.3983 59.524V62.699C56.3983 63.4929 55.7763 64.1682 54.9849 64.1682H51.9634C51.172 64.1682 50.55 63.4931 50.55 62.699V59.524C50.5502 58.7301 51.172 58.0548 51.9634 58.0548ZM41.872 58.0548H44.8935C45.6849 58.0548 46.3069 58.7301 46.3069 59.524V62.699C46.3069 63.4929 45.6847 64.1682 44.8935 64.1682H41.872C41.0808 64.1682 40.4586 63.4931 40.4586 62.699V59.524C40.4586 58.7301 41.0804 58.0548 41.872 58.0548ZM40.4586 51.1066V45.8752C40.4586 44.6975 41.3782 43.6929 42.5507 43.6929H64.3978C65.5705 43.6929 66.49 44.6975 66.49 45.8752V51.1066C66.49 52.2843 65.5703 53.289 64.3978 53.289H42.5507C41.378 53.289 40.4586 52.2845 40.4586 51.1066ZM39.1409 38.2519H67.8079C69.3351 38.2519 70.5892 39.5061 70.5892 41.0333V77.4328C70.5892 78.96 69.3351 80.2141 67.8079 80.2141H39.1409C37.6137 80.2141 36.3595 78.9602 36.3595 77.4328V41.0333C36.3595 39.5061 37.6137 38.2519 39.1409 38.2519ZM7.31065 11.1569C6.6203 11.1569 6.06068 10.5972 6.06068 9.9069C6.06068 9.21656 6.6203 8.65694 7.31065 8.65694H13.0899C13.7802 8.65694 14.3399 9.21656 14.3399 9.9069C14.3399 10.5972 13.7802 11.1569 13.0899 11.1569H11.612C11.5203 11.1569 11.4453 11.2316 11.4453 11.3236V17.1169C11.4453 17.8046 10.8878 18.3621 10.2001 18.3621C9.5124 18.3621 8.95487 17.8046 8.95487 17.1169V11.3236C8.95487 11.2318 8.88009 11.1569 8.78819 11.1569H7.31065ZM18.2407 17.5806C17.9845 18.2198 17.2586 18.5301 16.6194 18.274C15.9803 18.0179 15.6699 17.2919 15.9261 16.6528L18.8157 9.44261C19.2347 8.39739 20.7153 8.40767 21.1301 9.44261L24.0197 16.6528C24.2758 17.2919 23.9655 18.0177 23.3263 18.274C22.6872 18.5301 21.9614 18.2198 21.7051 17.5806L20.1275 13.6439C20.0715 13.5042 19.874 13.5042 19.8181 13.6439L18.2407 17.5806ZM31.6639 9.12541C32.0955 8.58882 32.8802 8.50357 33.4168 8.93494C33.9534 9.3665 34.0386 10.1512 33.6073 10.6878L31.4274 13.4073C31.3779 13.469 31.3779 13.5542 31.4274 13.6157L33.6073 16.3352C34.0388 16.8718 33.9534 17.6567 33.4168 18.0881C32.8802 18.5196 32.0953 18.4342 31.6639 17.8976L29.876 15.6671C29.8091 15.5834 29.6831 15.5834 29.6161 15.6671L27.8282 17.8976C27.3967 18.4342 26.6119 18.5195 26.0753 18.0881C25.5387 17.6565 25.4535 16.8718 25.8849 16.3352L28.0647 13.6157C28.114 13.554 28.114 13.4688 28.0647 13.4073L25.8847 10.688C25.4531 10.1514 25.5385 9.3665 26.0751 8.93513C26.6117 8.50357 27.3967 8.58901 27.828 9.1256L29.6159 11.3563C29.6829 11.4398 29.8089 11.4398 29.8758 11.3563L31.6639 9.12541ZM23.0691 58.3889C22.3787 58.3889 21.8191 57.8293 21.8191 57.139C21.8191 56.4486 22.3787 55.889 23.0691 55.889H32.6928C34.2495 55.889 34.2495 58.3891 32.6928 58.3891L23.0691 58.3889ZM23.0691 44.0447C22.3787 44.0447 21.8191 43.4851 21.8191 42.7947C21.8191 42.1044 22.3787 41.5448 23.0691 41.5448H32.6928C34.2495 41.5448 34.2495 44.0449 32.6928 44.0449L23.0691 44.0447Z" fill="#B9F8B1"/>
</svg>
