<svg width="100" height="32" viewBox="0 0 100 32" fill="none" xmlns="http://www.w3.org/2000/svg">
<g clip-path="url(#clip0_29_456)">
<path fill-rule="evenodd" clip-rule="evenodd" d="M33.1959 0.156261H28.1626L23.631 14.9718L18.7237 0.0927734H14.5981L9.68971 14.9718L5.15709 0.156261H0L7.46972 22.1928H11.6589L16.5974 7.87577L21.5359 22.1928H25.7251L33.1959 0.156261Z" fill="#393737"/>
<path fill-rule="evenodd" clip-rule="evenodd" d="M43.6362 12.8776H37.8224L40.7293 5.78365L43.6362 12.8776ZM52.3882 22.0366L43.0107 0H38.5728L29.1953 22.0366H34.1026L36.103 17.1303H45.3556L47.356 22.0366H52.3882Z" fill="#393737"/>
<path fill-rule="evenodd" clip-rule="evenodd" d="M69.3539 22.0367V17.6925H58.4465V0.15625H53.6318V22.0367H69.3539Z" fill="#393737"/>
<path fill-rule="evenodd" clip-rule="evenodd" d="M82.3459 11.0023C81.302 9.44422 80.0853 8.66051 78.6907 8.65114C78.2889 8.64698 77.8716 8.70839 77.4407 8.83536C77.8674 8.70631 78.2942 8.59702 78.7178 8.50751C79.3204 8.37742 79.9199 8.28375 80.5152 8.22858C81.1626 8.16926 81.8047 8.15053 82.4417 8.17863L90.1404 0.15625H84.3265L75.9971 9.13095L75.4486 9.72107C72.7978 10.5818 71.3178 12.5437 71.0097 15.614C71.0087 16.3883 71.0014 17.1544 70.9837 17.9027C70.9181 20.6306 70.7204 23.1274 70.2884 25.0414C69.2466 29.6625 68.7387 29.6459 75.4674 31.4891C77.4053 32.0199 79.1851 32.1365 80.8076 31.8388C85.3933 30.9989 80.0656 30.3328 78.0798 27.4113C73.5763 20.7805 72.0338 4.55461 84.2766 21.3654C85.18 22.708 85.8555 23.7894 86.1677 24.4305C88.242 28.6925 87.8361 28.9964 94.239 26.229C96.0843 25.4317 97.5466 24.4118 98.628 23.1659C101.1 20.3173 98.6748 21.33 96.9679 21.7234C94.1651 22.3677 91.5933 21.8868 89.2505 20.2819C89.1683 20.2257 89.0881 20.1685 89.007 20.1102C87.7965 18.9456 85.078 15.0967 82.3459 11.0023Z" fill="#393737"/>
<path fill-rule="evenodd" clip-rule="evenodd" d="M75.4483 9.72107V8.03812V0.15625H70.6357C70.6357 3.02882 70.8335 6.96715 70.9417 11.0075C72.2958 10.2279 73.8393 9.77519 75.4483 9.72107Z" fill="#393737"/>
</g>
<defs>
<clipPath id="clip0_29_456">
<rect width="99.6813" height="32" fill="white"/>
</clipPath>
</defs>
</svg>
