<svg width="100" height="29" viewBox="0 0 100 29" fill="none" xmlns="http://www.w3.org/2000/svg">
<g clip-path="url(#clip0_29_517)">
<path fill-rule="evenodd" clip-rule="evenodd" d="M26.2812 18.7546L29.9461 13.1409V12.8872H25.0438L23.766 15.1571L26.2812 18.7546ZM23.6572 26.452L23.846 26.7673L25.3422 29.0001H30.2909V28.8147L26.2601 22.9152C25.381 24.0969 24.5153 25.2585 23.6572 26.452Z" fill="#333333"/>
<path fill-rule="evenodd" clip-rule="evenodd" d="M39.7287 24.6492C44.0334 24.6037 46.1971 22.0488 46.1971 18.7581C46.1971 15.604 44.0561 12.8882 39.7287 12.8882H31.9023V29.0011H36.4599V24.65H39.7287V24.6492ZM36.4599 16.7992H39.7287C40.972 16.7992 41.6387 17.7669 41.6387 18.8264C41.6387 19.8843 40.9947 20.8047 39.7287 20.8047H36.4599V16.7992Z" fill="#333333"/>
<path fill-rule="evenodd" clip-rule="evenodd" d="M56.6687 22.5317H52.5486L54.6205 17.3993L56.6687 22.5317ZM59.2699 29.0001H64.1495L56.9452 12.8872H52.3413L45.1143 29.0001H49.9475L51.007 26.3525H58.2104L59.2699 29.0001Z" fill="#333333"/>
<path fill-rule="evenodd" clip-rule="evenodd" d="M69.3057 12.8872H65.4385V29.0001H70.0432V23.8441L69.9741 20.3224L76.6954 29.0001H80.5618V12.8872H75.9815V18.4116C76.0042 19.0328 76.0042 19.7695 76.1189 21.7039L69.3057 12.8872Z" fill="#333333"/>
<path fill-rule="evenodd" clip-rule="evenodd" d="M88.3413 16.6845H90.7351C93.5201 16.6845 94.6479 18.5734 94.6479 20.7827C94.6479 22.9919 93.6347 25.1556 90.7351 25.1556H88.3413V16.6845ZM83.8301 12.8872V29.0001H90.7351C96.5124 29.0001 99.1599 25.2711 99.1599 20.8282C99.1599 16.3852 96.4205 12.8872 90.7351 12.8872H83.8301Z" fill="#333333"/>
<path fill-rule="evenodd" clip-rule="evenodd" d="M22.2633 24.1289L22.0501 23.7749L20.2319 26.8127L19.4961 27.906L22.2633 24.1289Z" fill="#333333"/>
<path fill-rule="evenodd" clip-rule="evenodd" d="M24.6451 20.8779L19.0583 12.8872H14.1552V13.1409L19.2193 20.8973L13.8096 28.8147V29.0001H18.7591C20.6826 26.1452 22.6204 23.6409 24.6451 20.8779Z" fill="#333333"/>
<path fill-rule="evenodd" clip-rule="evenodd" d="M31.7079 1.46328L23.4458 0L20.4619 2.98303L20.6162 3.13728L28.4189 4.77672L29.9454 12.8871L30.0583 12.9992L33.07 9.98753C32.5028 7.07952 32.158 4.37718 31.7079 1.46328Z" fill="#333333"/>
<path fill-rule="evenodd" clip-rule="evenodd" d="M2.38962 16.7081H4.48845H12.5677V12.8872H0V16.7081V29.0001H12.8896V25.1565H4.48845V22.7154H12.1074V19.01H4.48845L2.38962 16.7081Z" fill="#333333"/>
</g>
<defs>
<clipPath id="clip0_29_517">
<rect width="99.1597" height="29" fill="white"/>
</clipPath>
</defs>
</svg>
