<svg width="99" height="36" viewBox="0 0 99 36" fill="none" xmlns="http://www.w3.org/2000/svg">
<g clip-path="url(#clip0_29_505)">
<path fill-rule="evenodd" clip-rule="evenodd" d="M21.993 32.1365L0 22.2466V26.9998L7.79423 31.4996L15.5877 35.9998L23.3815 31.4996L31.1754 26.9998V22.7406L21.993 32.1365Z" fill="#393737"/>
<path fill-rule="evenodd" clip-rule="evenodd" d="M0 17.2328L20.7554 27.3093L31.1754 22.5495V18V15.9715L24.4705 23.8806L7.95645 16.6072V11.5897L23.2321 19.0533L31.1754 15.4243V9.20335L26.9476 15.6234L16.5948 10.9544V5.93687L25.7096 10.796L30.4982 8.60881L23.3815 4.49981L15.5877 0L7.79423 4.49981L0 9V17.2328Z" fill="#393737"/>
<path d="M89.8775 28.3682V14.4325H94.0862V16.5227C94.309 15.8906 94.7273 15.3566 95.3409 14.92C95.9537 14.4834 96.641 14.2645 97.4028 14.2645C97.8863 14.2645 98.3412 14.3208 98.7684 14.4325V18.6972C98.1184 18.474 97.4963 18.3622 96.901 18.3622C96.0096 18.3622 95.3176 18.6739 94.8247 19.2964C94.3327 19.9188 94.0862 20.7412 94.0862 21.7622V28.3678H89.8775V28.3682ZM82.2133 28.3682V14.4325H86.4212V28.3682H82.2133ZM84.3035 12.5368C83.5972 12.5368 82.9844 12.2814 82.4644 11.7707C81.9439 11.26 81.6839 10.6421 81.6839 9.91681C81.6839 9.19188 81.9439 8.57366 82.4644 8.06295C82.9844 7.55223 83.5976 7.29688 84.3035 7.29688C85.0463 7.29688 85.6734 7.55223 86.1849 8.06295C86.6956 8.57366 86.951 9.19149 86.951 9.91681C86.951 10.6421 86.6956 11.26 86.1849 11.7707C85.6734 12.2814 85.0463 12.5368 84.3035 12.5368ZM69.4062 23.8815C69.991 24.5316 70.7575 24.8564 71.7056 24.8564C72.6529 24.8564 73.4193 24.5316 74.005 23.8815C74.5906 23.2303 74.8832 22.4037 74.8832 21.3998C74.8832 20.3973 74.5906 19.5703 74.005 18.9191C73.4197 18.2691 72.6529 17.9443 71.7056 17.9443C70.7579 17.9443 69.991 18.2691 69.4062 18.9191C68.8206 19.5703 68.528 20.397 68.528 21.3998C68.528 22.4033 68.8206 23.2303 69.4062 23.8815ZM70.7579 28.6743C68.9552 28.6743 67.4274 27.9591 66.1731 26.5286C64.9184 25.0982 64.2917 23.3883 64.2917 21.3998C64.2917 19.4124 64.9184 17.7021 66.1731 16.272C67.4274 14.8408 68.9552 14.1256 70.7579 14.1256C72.3556 14.1256 73.6196 14.6925 74.5487 15.8269V14.4325H78.7574V28.3682H74.5487V26.9742C73.6196 28.1081 72.3556 28.6743 70.7579 28.6743ZM60.1664 28.535C58.5314 28.535 57.1886 28.0852 56.1388 27.1833C55.0895 26.2826 54.5644 24.9771 54.5644 23.268V18.0836H51.7772V14.4325H54.5644V10.5583H58.7724V14.4325H62.6745V18.0836H58.7724V22.4033C58.7724 23.2389 58.9586 23.8435 59.33 24.2149C59.7022 24.5863 60.3057 24.7722 61.1424 24.7722C61.7734 24.7722 62.2841 24.6891 62.6745 24.5211V28.256C62.0621 28.4423 61.2254 28.535 60.1664 28.535ZM43.9449 28.7031C42.3841 28.7031 40.9676 28.3914 39.6947 27.769C38.4218 27.1465 37.3957 26.2779 36.6152 25.1626L40.0152 22.292C40.4984 22.9796 41.1162 23.5276 41.8691 23.9366C42.622 24.3457 43.369 24.5502 44.1126 24.5502C44.8371 24.5502 45.4181 24.3965 45.8547 24.0903C46.2913 23.783 46.5098 23.3883 46.5098 22.9055C46.5098 22.4037 46.2963 21.9671 45.8687 21.5957C45.4414 21.2243 44.7351 20.8708 43.7509 20.5367L42.3569 20.0624C39.0307 18.9482 37.3681 17.0435 37.3681 14.3487C37.3681 12.4716 38.0038 10.986 39.2771 9.88965C40.5496 8.79293 42.1896 8.24496 44.196 8.24496C46.7605 8.24496 48.8883 9.15579 50.5784 10.9763L47.6802 14.0425C46.7694 12.9462 45.6269 12.3978 44.2527 12.3978C43.6015 12.3978 43.0399 12.5282 42.5661 12.7878C42.0922 13.0475 41.8551 13.42 41.8551 13.9032C41.8551 14.405 42.0783 14.8086 42.5238 15.1159C42.9705 15.4221 43.7691 15.7803 44.9213 16.1882L46.3149 16.69C49.4735 17.824 51.0437 19.7927 51.0255 22.5993C51.0255 24.4012 50.3611 25.8689 49.0323 27.0021C47.7035 28.1361 46.0076 28.7031 43.9449 28.7031Z" fill="#393737"/>
</g>
<defs>
<clipPath id="clip0_29_505">
<rect width="98.7683" height="36" fill="white"/>
</clipPath>
</defs>
</svg>
