<svg width="101" height="40" viewBox="0 0 101 40" fill="none" xmlns="http://www.w3.org/2000/svg">
<g clip-path="url(#clip0_29_488)">
<path fill-rule="evenodd" clip-rule="evenodd" d="M89.0088 7.22772C92.7231 6.70251 95.0662 8.34949 96.0385 12.1687C95.4992 8.26455 97.0481 5.85596 100.687 4.94096C96.9729 5.46617 94.6284 3.81919 93.6551 0C94.1968 3.90413 92.6479 6.31418 89.0088 7.22772Z" fill="#333333"/>
<path fill-rule="evenodd" clip-rule="evenodd" d="M4.32498 24.7037C4.32498 24.0265 4.6138 23.4503 5.19677 22.9771C5.77683 22.5023 6.58746 22.265 7.63449 22.265C8.5621 22.265 9.48098 22.4441 10.3906 22.8023C11.2988 23.1605 12.2187 23.6785 13.1477 24.3566L15.0636 21.6558C14.02 20.8243 12.9021 20.1903 11.7119 19.7544C10.5207 19.32 9.181 19.1021 7.69274 19.1021C6.68552 19.1021 5.7579 19.2423 4.9099 19.5239C4.05801 19.8044 3.33281 20.2054 2.72896 20.7291C2.12269 21.2509 1.64844 21.8747 1.30089 22.5999C0.957709 23.3261 0.783448 24.1328 0.783448 25.0235C0.783448 25.9706 0.934409 26.7749 1.23391 27.4326C1.53389 28.0908 1.97415 28.6515 2.54596 29.115C3.11534 29.5791 3.82744 29.9669 4.66865 30.2756C5.51423 30.5863 6.47873 30.8669 7.56556 31.1169C8.51502 31.3499 9.28245 31.5717 9.87804 31.7853C10.4693 31.9969 10.9328 32.225 11.2755 32.4668C11.6143 32.7085 11.8473 32.976 11.9726 33.2648C12.0978 33.556 12.1624 33.8837 12.1624 34.2526C12.1624 35.0443 11.8371 35.6743 11.1901 36.1379C10.5426 36.602 9.66446 36.8345 8.56259 36.8345C7.28499 36.8345 6.14429 36.6083 5.13852 36.153C4.1313 35.6981 3.13476 35.0443 2.14938 34.1924L0 36.749C1.21886 37.8514 2.54548 38.6688 3.97597 39.1994C5.40841 39.7348 6.90735 39.9998 8.4757 39.9998C9.53874 39.9998 10.5164 39.8639 11.4071 39.5921C12.2915 39.3227 13.0555 38.9256 13.6856 38.4033C14.32 37.8815 14.8112 37.2432 15.1719 36.4879C15.5233 35.7326 15.7029 34.872 15.7029 33.9036C15.7029 33.0517 15.5622 32.3114 15.2821 31.6838C15.0015 31.0538 14.585 30.5038 14.0438 30.0291C13.5016 29.5543 12.8138 29.1534 11.992 28.8233C11.1702 28.4952 10.2217 28.1957 9.1577 27.9238C8.18543 27.6933 7.38644 27.471 6.75299 27.2569C6.12536 27.0433 5.63073 26.8123 5.26813 26.5599C4.9099 26.3099 4.66428 26.038 4.52885 25.7468C4.39197 25.4585 4.32498 25.1095 4.32498 24.7037Z" fill="#393737"/>
<path fill-rule="evenodd" clip-rule="evenodd" d="M32.0138 26.2849C32.0138 27.3935 31.6216 28.2823 30.8342 28.9512C30.0489 29.6245 28.9742 29.9565 27.6155 29.9565H23.4522V22.6133H27.6155C28.9572 22.6133 30.0246 22.9186 30.8187 23.5321C31.6172 24.1433 32.0138 25.0616 32.0138 26.2849ZM35.6427 26.2116C35.6427 25.1675 35.4631 24.2287 35.1053 23.3977C34.7471 22.5647 34.234 21.8497 33.5681 21.2502C32.8987 20.6493 32.0856 20.1901 31.1284 19.8707C30.1702 19.5518 29.1023 19.3921 27.9223 19.3921H19.9102V39.7093H23.4527V33.1796H27.4956C28.6237 33.1796 29.6785 33.0286 30.6682 32.7287C31.656 32.4292 32.5176 31.9889 33.2569 31.4083C33.9923 30.8278 34.5733 30.1031 35.0044 29.2318C35.4291 28.36 35.6427 27.3552 35.6427 26.2116Z" fill="#393737"/>
<path fill-rule="evenodd" clip-rule="evenodd" d="M73.1717 26.0242C73.1717 27.0746 72.7941 27.9115 72.0349 28.5309C71.2801 29.1546 70.2593 29.4648 68.9778 29.4648H63.7383V22.6133H68.9477C70.2869 22.6133 71.3286 22.8992 72.0645 23.4748C72.8048 24.0457 73.1717 24.8981 73.1717 26.0242ZM77.4385 39.7093L71.9529 32.019C72.6693 31.8248 73.3227 31.5486 73.9115 31.1909C74.5017 30.8327 75.009 30.3968 75.4342 29.8856C75.8614 29.3721 76.1958 28.7813 76.4371 28.1149C76.6788 27.446 76.7997 26.6868 76.7997 25.8364C76.7997 24.8486 76.6249 23.9544 76.2778 23.1506C75.9288 22.3477 75.4298 21.6706 74.7828 21.1182C74.1333 20.5673 73.3397 20.142 72.4033 19.8411C71.4631 19.5421 70.4146 19.3916 69.254 19.3916H60.1982V39.7088H63.7383V32.6267H68.2225L73.2295 39.7088H77.4385V39.7093Z" fill="#393737"/>
<path fill-rule="evenodd" clip-rule="evenodd" d="M90.3243 28.1294L98.7704 19.3916H94.3886L84.7227 29.6089V19.3916H81.1807V39.7093H84.7227V33.8179L87.8866 30.5671L94.8221 39.7093H99.148L90.3243 28.1294Z" fill="#393737"/>
<path fill-rule="evenodd" clip-rule="evenodd" d="M93.6583 7.01894C67.455 6.72381 47.296 12.7681 36.4326 37.6341L35.5264 39.7092H39.1829C39.6834 38.3908 40.2275 37.1098 40.8144 35.8716C50.625 15.1636 71.4436 8.11402 93.6583 7.01894Z" fill="#333333"/>
<path fill-rule="evenodd" clip-rule="evenodd" d="M56.7137 39.7091L50.415 25.2944C50.1238 25.5726 49.8345 25.8575 49.55 26.1444C48.9952 26.7031 48.4583 27.2768 47.9365 27.8637C49.7612 32.1159 50.6267 34.1992 52.9411 39.7091H56.7137Z" fill="#393737"/>
<path fill-rule="evenodd" clip-rule="evenodd" d="M42.5957 35.7874C44.8694 35.9145 46.0688 37.1722 46.194 39.5604C46.3363 37.1747 47.5439 35.9233 49.8176 35.8092C47.5439 35.682 46.3445 34.4243 46.2193 32.0361C46.077 34.4219 44.8694 35.6733 42.5957 35.7874Z" fill="#333333"/>
</g>
<defs>
<clipPath id="clip0_29_488">
<rect width="100.688" height="40" fill="white"/>
</clipPath>
</defs>
</svg>
