<svg width="101" height="43" viewBox="0 0 101 43" fill="none" xmlns="http://www.w3.org/2000/svg">
<g clip-path="url(#clip0_29_509)">
<path fill-rule="evenodd" clip-rule="evenodd" d="M13.452 19.3296L16.1 28.912L19.6714 17.7229L24.1781 32.1203H30.1736L37.4804 8.4891H30.8724L27.0225 22.7558L22.5602 8.40283H16.8278L13.452 19.3296ZM12.3672 29.1571L16.2264 37.7392L9.00337 31.0355L5.74805 21.1943C6.95758 19.6346 8.8966 18.8231 10.8578 19.0555L16.2127 29.123L16.2238 36.1077L13.1582 28.7232C13.2513 28.5788 13.3059 28.4063 13.3059 28.2201C13.3059 27.7016 12.8848 27.2805 12.3663 27.2805C11.8478 27.2805 11.4267 27.7016 11.4267 28.2201C11.4284 28.7377 11.8495 29.1571 12.3672 29.1571Z" fill="#393737"/>
<path fill-rule="evenodd" clip-rule="evenodd" d="M52.8903 15.0096V8.05137C50.9069 7.96424 49.3317 8.40244 48.1649 9.36511C46.9981 10.3278 46.079 11.6116 45.4076 13.2158V8.48957H38.7568V31.9448H45.4076V23.2799C45.4076 20.45 46.0422 18.364 47.3116 17.0221C48.5809 15.6801 50.3243 15.0096 52.5418 15.0096H52.8903Z" fill="#393737"/>
<path fill-rule="evenodd" clip-rule="evenodd" d="M60.8169 31.9451V8.48981H54.1662V31.9451H60.8169ZM60.992 5.90759V0H53.9902V5.90759H60.992Z" fill="#393737"/>
<path fill-rule="evenodd" clip-rule="evenodd" d="M76.9702 30.9816V25.6429C75.9486 26.1964 74.8552 26.4748 73.6884 26.4748C72.2585 26.4748 71.5444 25.7163 71.5444 24.1993V14.1779H77.0574V8.48898H71.5444V2.49512H64.8928V8.48983H62.0928V14.1787H64.8928V25.2926C64.8928 26.6645 65.0611 27.7946 65.3959 28.6846C65.7308 29.5747 66.1989 30.2965 66.7968 30.8517C67.3947 31.4052 68.1088 31.7922 68.9408 32.0109C69.7728 32.2295 70.6979 32.338 71.7195 32.338C72.8283 32.338 73.8054 32.2141 74.6511 31.9664C75.4959 31.7187 76.2698 31.3899 76.9702 30.9816Z" fill="#393737"/>
<path fill-rule="evenodd" clip-rule="evenodd" d="M93.8666 18.3797H83.8461C84.1092 16.8618 84.6704 15.6514 85.5314 14.7468C86.3907 13.8431 87.5225 13.3903 88.9217 13.3903C90.3226 13.3903 91.4458 13.8499 92.2923 14.769C93.138 15.6881 93.6625 16.8917 93.8666 18.3797ZM100.343 20.8739V20.7859C100.343 19.1228 100.117 17.5255 99.6657 15.9939C99.213 14.4623 98.5126 13.1059 97.5644 11.9237C96.6163 10.7432 95.4281 9.80187 93.9982 9.10229C92.5682 8.40185 90.8769 8.05078 88.9217 8.05078C87.2014 8.05078 85.6331 8.37281 84.2177 9.01431C82.8031 9.65581 81.5859 10.5314 80.5643 11.6392C79.5427 12.7488 78.7474 14.0464 78.1785 15.5344C77.6096 17.0224 77.3252 18.5983 77.3252 20.2606V20.3486C77.3252 22.1569 77.6327 23.7987 78.2443 25.2713C78.8576 26.7448 79.711 28.0209 80.8043 29.1006C81.8994 30.1803 83.1978 31.0106 84.6994 31.5949C86.2028 32.1791 87.8283 32.4696 89.5794 32.4696C91.7081 32.4696 93.5617 32.0826 95.1368 31.3104C96.7119 30.5382 98.053 29.4662 99.1617 28.0927L95.3555 24.7246C94.421 25.5694 93.5173 26.1819 92.6426 26.5628C91.7679 26.9404 90.7753 27.1309 89.6666 27.1309C88.1785 27.1309 86.9306 26.7456 85.9243 25.9717C84.9181 25.1978 84.2544 24.0532 83.9332 22.537H100.256C100.285 22.2158 100.306 21.9382 100.322 21.705C100.335 21.4718 100.343 21.1942 100.343 20.8739Z" fill="#393737"/>
<path fill-rule="evenodd" clip-rule="evenodd" d="M22.1747 39.7521C20.9891 42.483 21.5298 43.3816 23.5286 42.858C26.8241 41.9961 32.2106 38.5443 32.3097 38.5443C33.2843 38.5443 28.0746 43.1014 37.399 40.5568C44.0095 38.7519 54.8065 34.7705 60.8166 35.2027C53.5808 34.2964 42.7026 37.8345 37.2913 39.2029C35.5531 39.642 34.0787 40.2826 33.7251 39.8564C33.5619 39.6616 34.1018 39.1004 34.13 38.4444C34.3179 33.8292 25.8734 41.188 23.8865 41.2829C22.9426 41.3273 23.9173 40.0767 24.5784 37.4296C25.2609 34.6987 22.8905 35.6392 21.5221 36.4029C19.3525 37.6115 17.8585 38.6434 17.041 39.495C19.9547 37.9378 24.1445 35.2198 22.1747 39.7521Z" fill="#393737"/>
<path fill-rule="evenodd" clip-rule="evenodd" d="M10.6894 17.5649L7.18546 8.40283H0L4.59042 19.6038C4.62715 19.5534 4.66389 19.5031 4.70062 19.4544C5.26609 18.7189 6.01265 18.1304 6.88307 17.7562C8.09432 17.236 9.44565 17.1728 10.6894 17.5649Z" fill="#393737"/>
</g>
<defs>
<clipPath id="clip0_29_509">
<rect width="100.343" height="43" fill="white"/>
</clipPath>
</defs>
</svg>
