<svg width="100" height="100" viewBox="0 0 100 100" fill="none" xmlns="http://www.w3.org/2000/svg">
<g clip-path="url(#clip0_43_1449)">
<path d="M37.4443 38.993V82.2208C37.4443 85.6277 40.2061 88.3895 43.6131 88.3895H92.0257C95.4326 88.3895 98.1944 85.6277 98.1944 82.2208V24.886C98.1944 21.4791 95.4326 18.7173 92.0257 18.7173H57.7201C55.6751 18.7173 53.7139 19.5296 52.268 20.9755L39.7026 33.5409C38.2567 34.9869 37.4443 36.9481 37.4443 38.993Z" fill="#E6E9ED"/>
<path d="M31.6934 33.2421V76.4698C31.6934 79.8767 34.4552 82.6385 37.8621 82.6385H86.2747C89.6817 82.6385 92.4435 79.8767 92.4435 76.4698V19.135C92.4435 15.7281 89.6817 12.9663 86.2747 12.9663H51.9691C49.9241 12.9663 47.9629 13.7786 46.517 15.2246L33.9516 27.79C32.5059 29.2361 31.6934 31.1971 31.6934 33.2421Z" fill="#AAB2BD"/>
<path d="M25.9424 27.4916V70.7193C25.9424 74.1262 28.7042 76.888 32.1111 76.888H80.5238C83.9307 76.888 86.6925 74.1262 86.6925 70.7193V13.3845C86.6925 9.97761 83.9307 7.21582 80.5238 7.21582H46.2181C44.1732 7.21582 42.212 8.02815 40.766 9.47409L28.2006 22.0395C26.7547 23.4854 25.9424 25.4466 25.9424 27.4916Z" fill="#E6E9ED"/>
<path d="M20.1924 21.7406V64.9683C20.1924 68.3753 22.9542 71.1371 26.3611 71.1371H74.7738C78.1807 71.1371 80.9425 68.3753 80.9425 64.9683V7.63357C80.9425 4.22664 78.1807 1.46484 74.7738 1.46484H40.4681C38.4232 1.46484 36.462 2.27717 35.016 3.72311L22.4506 16.2885C21.0047 17.7344 20.1924 19.6956 20.1924 21.7406Z" fill="#F4FBFF"/>
<path d="M20.1924 21.7416V23.0581C20.1924 20.567 22.2126 18.5468 24.7036 18.5468H31.106C34.5125 18.5468 37.2741 15.7852 37.2741 12.3787V5.97634C37.2741 3.48526 39.2941 1.46509 41.7854 1.46509H40.4691C38.4237 1.46509 36.4626 2.2782 35.0158 3.72355L22.451 16.2883C21.0055 17.7353 20.1924 19.6964 20.1924 21.7416Z" fill="#AAB2BD"/>
<path d="M24.4512 70.7109L29.628 75.8878L17.6348 87.881L12.4579 82.7042L24.4512 70.7109Z" fill="#407093"/>
<path d="M24.4512 70.7109L27.0395 73.2993L15.0463 85.2925L12.4579 82.7042L24.4512 70.7109Z" fill="#365E7D"/>
<path d="M39.5645 82.4793C51.5497 82.4793 61.2656 72.7633 61.2656 60.7781C61.2656 48.7929 51.5497 39.0769 39.5645 39.0769C27.5792 39.0769 17.8633 48.7929 17.8633 60.7781C17.8633 72.7633 27.5792 82.4793 39.5645 82.4793Z" fill="#FFC943"/>
<path d="M25.5686 77.3639C25.1053 76.9733 24.6551 76.5594 24.2191 76.1234C15.7441 67.6484 15.7453 53.9068 24.2191 45.4329C32.6942 36.9579 46.4346 36.9579 54.9096 45.4329C55.3456 45.8689 55.7594 46.3191 56.1501 46.7824C47.6231 39.5683 34.8468 39.9824 26.8077 48.0215C18.7698 56.0594 18.3545 68.8369 25.5686 77.3639Z" fill="#FFD064"/>
<path d="M39.5651 76.1194C48.0379 76.1194 54.9065 69.2508 54.9065 60.778C54.9065 52.3051 48.0379 45.4365 39.5651 45.4365C31.0922 45.4365 24.2236 52.3051 24.2236 60.778C24.2236 69.2508 31.0922 76.1194 39.5651 76.1194Z" fill="#D3EFFB"/>
<path d="M31.0946 73.5717C30.2553 73.0147 29.4581 72.3658 28.7176 71.6256C22.7258 65.6338 22.7258 55.9205 28.7164 49.9299C34.7082 43.9381 44.4215 43.9381 50.4133 49.9299C51.1536 50.6701 51.8024 51.4674 52.3595 52.3069C46.4023 48.3527 38.2909 49.0015 33.0394 54.253C27.7893 59.5034 27.1406 67.6145 31.0946 73.5717Z" fill="#B1E4F9"/>
<path d="M7.04077 97.5455L2.79671 93.3014C1.47401 91.9787 1.47401 89.8341 2.79671 88.5115L13.5632 77.7449C14.8859 76.4223 17.0305 76.4223 18.3532 77.7449L22.5972 81.989C23.9199 83.3117 23.9199 85.4563 22.5972 86.779L11.8307 97.5455C10.508 98.8682 8.36366 98.8682 7.04077 97.5455Z" fill="#A77D73"/>
<path d="M5.90343 96.4079L2.79729 93.3017C1.47382 91.9782 1.47382 89.8348 2.79729 88.5114L13.5636 77.745C14.8871 76.4216 17.0305 76.4216 18.354 77.745L21.4601 80.8512C20.1366 79.5277 17.9932 79.5277 16.6697 80.8512L5.90343 91.6177C4.57996 92.941 4.57996 95.0844 5.90343 96.4079Z" fill="#98695E"/>
<path d="M38.2632 71.1565C37.3081 71.1565 36.4006 70.7158 35.8102 69.9543L30.6198 63.2592C29.5694 61.9043 29.8163 59.9544 31.1712 58.904C32.5263 57.8536 34.476 58.1005 35.5264 59.4554L37.8563 62.4609L42.4031 54.4097C43.2463 52.9169 45.1395 52.3903 46.6325 53.2333C48.1253 54.0763 48.6519 55.9699 47.8089 57.4627L40.9662 69.5789C40.4552 70.4838 39.5251 71.0729 38.4888 71.1485C38.4134 71.1537 38.338 71.1565 38.2632 71.1565Z" fill="#B3E59F"/>
<path d="M93.7174 17.4432C93.0697 14.6031 90.83 12.3417 87.9655 11.6927C87.3174 8.84028 85.0677 6.58983 82.2161 5.94176C81.4425 2.52839 78.3783 0 74.7739 0H40.4663C38.0157 0 35.7119 0.954128 33.9792 2.68699C33.9642 2.70183 33.9497 2.71726 33.9353 2.73269L21.4115 15.2526C19.6794 16.9872 18.7255 19.2923 18.7255 21.743V50.6592C15.2707 57.7901 15.6832 66.3375 19.9638 73.1295L17.5354 75.5579C15.8366 74.977 13.8793 75.3571 12.5275 76.7089L1.76176 87.4762C0.845522 88.3924 0.34082 89.6106 0.34082 90.9066C0.34082 92.2025 0.845522 93.4209 1.76156 94.3369L6.00582 98.5812C6.95174 99.5271 8.19377 99.9998 9.43619 99.9998C10.6782 99.9998 11.9208 99.5269 12.8664 98.5814L17.9388 93.5109C18.5108 92.9391 18.511 92.0115 17.9392 91.4394C17.3671 90.8671 16.4397 90.8671 15.8674 91.439L10.795 96.5097C10.0458 97.2587 8.8266 97.2591 8.07736 96.5097L3.8331 92.2654C3.4704 91.9025 3.27039 91.4201 3.27039 90.9066C3.27039 90.3931 3.4702 89.9107 3.8333 89.5477L14.5992 78.7801C15.3481 78.031 16.5686 78.0312 17.3186 78.7801L21.5623 83.0236C22.3119 83.7744 22.3123 84.9945 21.5629 85.7437L20.0101 87.2965C19.438 87.8686 19.438 88.7962 20.0101 89.3683C20.5822 89.9401 21.5096 89.9403 22.0818 89.3683L23.6344 87.8155C24.9864 86.4637 25.3663 84.5064 24.7852 82.8073L27.2136 80.3789C29.5473 81.8497 32.088 82.8638 34.7076 83.4214C35.181 83.6363 35.6689 83.8035 36.1697 83.9165C36.9451 87.3287 40.0091 89.8558 43.6129 89.8558H92.0263C96.2352 89.8558 99.6594 86.4307 99.6594 82.2208V24.8854C99.6596 21.2814 97.1312 18.2177 93.7174 17.4432ZM82.4069 64.9686V9.07681C83.9755 9.7655 85.1011 11.2866 85.2176 13.0863C85.224 13.1771 85.2273 13.2748 85.2273 13.3851V70.7207C85.2273 73.3141 83.1173 75.4239 80.5241 75.4239H57.5152C58.2508 74.5237 58.9082 73.5805 59.4879 72.6035H74.7739C78.9828 72.6035 82.4069 69.1785 82.4069 64.9686ZM35.9072 4.90404C35.8439 5.2521 35.809 5.61011 35.809 5.97633V12.3787C35.809 14.9721 33.699 17.0819 31.1057 17.0819H24.7034C24.3356 17.0819 23.9762 17.1171 23.6266 17.1809L35.9072 4.90404ZM21.6553 23.092C21.6555 23.0807 21.657 23.0696 21.657 23.0581C21.657 21.3783 23.0237 20.0117 24.7034 20.0117H31.1057C35.3146 20.0117 38.7387 16.5876 38.7387 12.3787V5.97633C38.7387 4.2966 40.1054 2.92996 41.7851 2.92996C41.7871 2.92996 41.7888 2.92977 41.7908 2.92977H74.7739C77.2468 2.92977 79.308 4.85931 79.4674 7.33575C79.4738 7.42598 79.4772 7.52325 79.4772 7.63302V64.9686C79.4772 67.563 77.3671 69.6738 74.7739 69.6738H60.9536C64.4355 61.2706 62.7673 51.219 55.9459 44.3973C46.913 35.3648 32.2163 35.365 23.1838 44.3973C22.6414 44.9397 22.1324 45.503 21.6553 46.0839V23.092ZM25.2558 46.469C29.2012 42.5234 34.3824 40.5515 39.5651 40.5515C44.7465 40.5515 49.9297 42.5246 53.8743 46.469C61.7644 54.3591 61.7644 67.1973 53.8743 75.0874C45.9843 82.9775 33.1458 82.9775 25.256 75.0874C17.3655 67.1973 17.3655 54.3593 25.2558 46.469ZM23.0657 80.3836L19.9589 77.2769L21.7045 75.5315C22.1676 76.0913 22.6598 76.6351 23.1838 77.1591C23.7077 77.683 24.2514 78.1752 24.8112 78.6381L23.0657 80.3836ZM96.7298 82.221C96.7298 84.8154 94.6198 86.9262 92.0265 86.9262H43.6131C41.6984 86.9262 40.031 85.7693 39.3015 84.1039H86.2744C90.4845 84.1039 93.9094 80.6797 93.9094 76.4708V34.1279C93.9094 33.3189 93.2537 32.663 92.4445 32.663C91.6353 32.663 90.9796 33.3189 90.9796 34.1279V76.4708C90.9796 79.0643 88.8688 81.1741 86.2744 81.1741H50.5518C51.9952 80.3975 53.3735 79.4582 54.6579 78.3537H80.5239C84.7328 78.3537 88.1569 74.9296 88.1569 70.7207V14.8252C89.8224 15.5545 90.9794 17.2212 90.9794 19.1353V28.2801C90.9794 29.0891 91.6351 29.7449 92.4443 29.7449C93.2535 29.7449 93.9092 29.0891 93.9092 28.2801V20.5763C95.5735 21.3062 96.7296 22.9723 96.7296 24.8854V82.221H96.7298Z" fill="#393737"/>
<path d="M39.5651 77.5846C44.0542 77.5846 48.2749 75.8365 51.4492 72.6622C58.0019 66.1095 58.0019 55.4473 51.4492 48.8946C48.2749 45.7203 44.0544 43.9722 39.5651 43.9722C35.0761 43.9722 30.8554 45.7203 27.6811 48.8946C21.1284 55.4473 21.1284 66.1095 27.6811 72.6622C30.8556 75.8365 35.0761 77.5846 39.5651 77.5846ZM29.7531 50.9661C32.3738 48.3451 35.8587 46.9017 39.5651 46.9017C43.2718 46.9017 46.7565 48.3451 49.3772 50.9661C54.7877 56.3766 54.7877 65.18 49.3772 70.5905C46.7565 73.2114 43.2716 74.6548 39.5651 74.6548C35.8585 74.6548 32.3738 73.2114 29.7531 70.5905C24.3426 65.18 24.3426 56.3766 29.7531 50.9661Z" fill="#393737"/>
<path d="M27.3706 35.0635C28.1267 35.3514 28.973 34.9721 29.2611 34.216L29.8127 32.7678H33.6675L34.2126 34.2119C34.4339 34.7985 34.9913 35.16 35.5833 35.16C35.7552 35.16 35.93 35.1295 36.1003 35.0653C36.8572 34.7797 37.2392 33.9344 36.9535 33.1775L33.329 23.5734C33.3241 23.5599 33.3186 23.5464 33.3132 23.5329C33.052 22.8985 32.4403 22.4888 31.7545 22.4888C31.7539 22.4888 31.7532 22.4888 31.7526 22.4888C31.0658 22.4896 30.4543 22.9007 30.1941 23.5363C30.1896 23.5472 30.1851 23.5583 30.181 23.5695L26.5231 33.173C26.235 33.9293 26.6147 34.7756 27.3706 35.0635ZM32.5616 29.8378H30.9283L31.7487 27.684L32.5616 29.8378Z" fill="#393737"/>
<path d="M62.6983 35.1597C63.5075 35.1597 64.1632 34.5038 64.1632 33.6948V23.9539C64.1632 23.1449 63.5075 22.489 62.6983 22.489C61.8891 22.489 61.2334 23.1449 61.2334 23.9539V33.6948C61.2334 34.5038 61.8891 35.1597 62.6983 35.1597Z" fill="#393737"/>
<path d="M49.9359 33.6998C49.9373 34.0885 50.0932 34.4604 50.369 34.7342C50.6432 35.0067 51.0143 35.1594 51.4008 35.1594H51.4063C51.4897 35.159 53.4585 35.1516 54.246 35.1377C57.3125 35.0842 59.5384 32.4289 59.5384 28.8241C59.5384 25.0347 57.369 22.4888 54.1398 22.4888H51.3809C50.992 22.4888 50.619 22.6435 50.344 22.9189C50.0693 23.1943 49.9152 23.5675 49.916 23.9564C49.916 23.9566 49.9231 27.703 49.9231 28.8134C49.9231 30.1679 49.9359 33.6998 49.9359 33.6998ZM54.1398 25.4185C56.4306 25.4185 56.6086 28.0252 56.6086 28.8241C56.6086 30.4876 55.8623 32.1793 54.1948 32.2084C53.8831 32.2138 53.3663 32.2183 52.8608 32.2218C52.8571 31.0904 52.853 29.5915 52.853 28.8134C52.853 28.1604 52.8505 26.5975 52.8487 25.4185H54.1398Z" fill="#393737"/>
<path d="M40.4788 34.4157C41.2493 34.9081 42.1183 35.1583 43.0611 35.1597H43.0685C43.8785 35.1597 44.6396 34.9831 45.3309 34.6349C47.0346 33.7768 47.9727 32.3616 47.9727 30.6496V23.9539C47.9727 23.1449 47.317 22.489 46.5078 22.489C45.6986 22.489 45.043 23.1449 45.043 23.9539V30.6496C45.043 31.0699 44.9207 31.5611 44.013 32.0182C43.7304 32.1606 43.4214 32.2297 43.0687 32.2297C43.0673 32.2297 43.0661 32.2297 43.0648 32.2297C42.6835 32.2291 42.3534 32.1365 42.0562 31.9467C41.3466 31.4934 41.2042 31.117 41.2042 30.6566V23.9539C41.2042 23.1449 40.5485 22.489 39.7393 22.489C38.9301 22.489 38.2744 23.1449 38.2744 23.9539V30.6568C38.2744 32.2164 39.016 33.4811 40.4788 34.4157Z" fill="#393737"/>
<path d="M67.8623 25.4188H69.0764V33.6948C69.0764 34.5038 69.7321 35.1597 70.5413 35.1597C71.3505 35.1597 72.0062 34.5038 72.0062 33.6948V25.4188H73.242C74.0512 25.4188 74.7069 24.7629 74.7069 23.9539C74.7069 23.1449 74.0512 22.489 73.242 22.489H67.8623C67.0531 22.489 66.3975 23.1449 66.3975 23.9539C66.3975 24.7629 67.0533 25.4188 67.8623 25.4188Z" fill="#393737"/>
<path d="M38.2629 72.6215C38.3735 72.6215 38.4844 72.6174 38.5952 72.6094C40.1245 72.4981 41.488 71.6344 42.2417 70.2992L49.0843 58.1831C50.3234 55.9894 49.5466 53.1968 47.3528 51.9577C45.1598 50.7194 42.3669 51.4956 41.1277 53.6894L37.6643 59.8222L36.684 58.5579C35.9363 57.5934 34.8576 56.9777 33.6468 56.8244C32.436 56.6709 31.2379 56.9986 30.2734 57.7463C28.2826 59.2899 27.9185 62.1656 29.4621 64.1567L34.6525 70.852C35.5115 71.96 36.8613 72.6215 38.2629 72.6215ZM32.0684 60.0618C32.3589 59.8368 32.7081 59.7179 33.0696 59.7179C33.139 59.7179 33.2089 59.7222 33.2788 59.7311C33.7132 59.786 34.1001 60.0069 34.3683 60.353L36.6984 63.3586C36.999 63.7463 37.4748 63.9576 37.9627 63.9221C38.4518 63.8865 38.8907 63.6084 39.1317 63.1814L43.6785 55.1304C44.123 54.3435 45.1252 54.0646 45.9122 54.5091C46.6991 54.9537 46.9778 55.9555 46.5335 56.7426L39.6909 68.8587C39.4204 69.3377 38.9311 69.6476 38.3825 69.6875C37.8367 69.7273 37.3006 69.4859 36.968 69.057L31.7778 62.3619C31.2237 61.6472 31.3543 60.6155 32.0684 60.0618Z" fill="#393737"/>
</g>
<defs>
<clipPath id="clip0_43_1449">
<rect width="100" height="100" fill="white"/>
</clipPath>
</defs>
</svg>
