<svg width="30" height="30" viewBox="0 0 30 30" fill="none" xmlns="http://www.w3.org/2000/svg">
<path d="M16.1611 11.7227H16.1621L16.2109 11.7295C16.2586 11.7431 16.3007 11.776 16.3262 11.8232L18.6055 16.043L18.8164 16.4336L19.041 16.0508L20.1904 14.0898C20.2254 14.0301 20.2877 13.9951 20.3525 13.9951H24.0146C24.1156 13.9951 24.2041 14.0792 24.2041 14.1914C24.2041 14.3036 24.1156 14.3877 24.0146 14.3877H20.459L20.3867 14.5117L18.9717 16.9248C18.9366 16.9846 18.8743 17.0195 18.8096 17.0195H18.8066C18.7573 17.0186 18.7096 16.9975 18.6748 16.9609L18.6445 16.9189L16.373 12.7139L16.1572 12.3145L15.9346 12.71L14.2432 15.7119C14.2092 15.7719 14.1485 15.8072 14.084 15.8086C14.0177 15.8096 13.9569 15.7769 13.9209 15.7188L12.8701 14.0225L12.6523 13.6719L12.4424 14.0273L11.6494 15.3652C11.6144 15.4243 11.5527 15.4589 11.4883 15.459H8.74219C8.64127 15.459 8.55273 15.3739 8.55273 15.2617C8.55293 15.1497 8.64138 15.0654 8.74219 15.0654H11.3818L11.4551 14.9434L12.4873 13.2002C12.5135 13.1561 12.5548 13.1259 12.6006 13.1133L12.6475 13.1064H12.6494C12.7126 13.1066 12.7731 13.14 12.8086 13.1973L13.8496 14.877L14.0723 15.2373L14.2803 14.8682L15.9971 11.8203C16.0318 11.7588 16.0952 11.7227 16.1611 11.7227Z" fill="#393737" stroke="#393737" stroke-width="0.5"/>
<path d="M24.79 3.56738C24.8909 3.56738 24.9794 3.65153 24.9795 3.76367V5.33105H26.5264C26.6271 5.33125 26.7158 5.41525 26.7158 5.52734C26.7158 5.63938 26.6271 5.72344 26.5264 5.72363H24.9795V7.29102C24.9793 7.40308 24.8909 7.4873 24.79 7.4873C24.6893 7.48713 24.6008 7.40296 24.6006 7.29102V5.72363H23.0547C22.9538 5.72363 22.8653 5.63951 22.8652 5.52734C22.8652 5.41512 22.9538 5.33105 23.0547 5.33105H24.6006V3.76367C24.6007 3.65164 24.6893 3.56756 24.79 3.56738Z" fill="#393737" stroke="#393737" stroke-width="0.5"/>
<path d="M26.3414 18.6136C28.4824 16.2883 29.096 12.7721 27.9191 9.75774C29.182 8.7908 30 7.25437 30 5.52728C30 2.609 27.6632 0.234863 24.7908 0.234863C23.6109 0.234863 22.4555 0.646249 21.5373 1.39324C21.3479 1.54736 21.3173 1.82832 21.469 2.02077C21.6207 2.21316 21.8972 2.24429 22.0867 2.09018C22.8606 1.46051 23.7956 1.12776 24.7907 1.12776C27.1784 1.12776 29.121 3.10141 29.121 5.52728C29.121 7.95416 27.1785 9.92852 24.7907 9.92852C22.5675 9.92852 20.731 8.21786 20.4871 6.02426C20.4867 6.0192 20.4858 6.01408 20.4852 6.00896C20.4681 5.85068 20.4587 5.69008 20.4587 5.52728C20.4587 4.8382 20.6111 4.17925 20.9116 3.56863C21.0201 3.34808 20.9321 3.07992 20.7151 2.96961C20.4978 2.85943 20.234 2.94878 20.1254 3.16927C19.7634 3.90495 19.5798 4.69831 19.5798 5.52722C19.5798 5.60222 19.5817 5.67675 19.5848 5.75103C18.4751 6.15397 17.4394 6.81667 16.5714 7.68391L16.0856 8.16905C16.0833 8.16667 16.0815 8.16488 16.0792 8.1625L15.6016 7.6845C14.0565 6.13682 12.0339 5.27191 10.0516 5.31358C8.40223 5.3481 6.94266 6.00468 5.83113 7.21187C5.66531 7.39223 5.67469 7.67498 5.85223 7.84344C6.02977 8.0113 6.3075 8.00237 6.47332 7.82201C7.41902 6.79459 8.66238 6.23564 10.0698 6.20647C11.8159 6.17016 13.6071 6.94102 14.9846 8.32024L15.4628 8.79883C15.6936 9.0298 15.8905 9.14468 16.0868 9.14468C16.2813 9.14468 16.4753 9.03158 16.702 8.80538L17.1878 8.32024C17.9177 7.59141 18.7786 7.02388 19.7003 6.65988C20.2122 9.03664 22.3 10.8214 24.7907 10.8214C25.6434 10.8214 26.4489 10.6121 27.16 10.2413C28.1338 12.9022 27.5747 15.9633 25.7026 17.9997L19.3939 24.5602L18.8719 24.6638C18.7453 24.6888 18.6334 24.7114 18.5314 24.7323C17.8693 24.8686 17.7111 24.9007 16.9359 24.7793L13.1771 24.081C12.665 23.9013 12.7166 23.487 12.7453 23.3626C12.7904 23.1691 12.9674 22.8566 13.3477 22.9149C13.3512 22.9155 13.3547 22.9161 13.3582 22.9167C13.5275 22.9387 13.7092 22.9626 13.899 22.987C14.6109 23.0804 15.4172 23.1858 16.1332 23.2602C17.598 23.4108 18.4266 22.6298 18.5988 21.7881C18.774 20.9303 18.293 19.7898 16.8223 19.313C16.8047 19.3076 16.7865 19.3029 16.7678 19.2993L14.3473 18.8481C13.0336 18.6035 12.0117 18.7921 10.4648 19.0779C10.0559 19.1535 9.5918 19.2386 9.075 19.3249L7.92773 19.5166L7.57441 19.1493L6.46992 18.0005C4.40566 15.7521 3.94805 12.2306 5.35898 9.43463C5.46973 9.21558 5.38418 8.94652 5.16855 8.83401C4.95234 8.72151 4.6875 8.80782 4.57676 9.02748C2.99941 12.1538 3.51504 16.0956 5.83125 18.6136C5.83359 18.616 5.83594 18.6183 5.8377 18.6207L6.86895 19.6934L4.94836 20.0141V19.9631C4.94836 19.6184 4.649 19.338 4.28104 19.338H0.665625C0.298594 19.338 0 19.6184 0 19.9631V27.8185C0 28.1632 0.298594 28.4437 0.665625 28.4437H4.28109C4.64906 28.4437 4.94842 28.1632 4.94842 27.8185V27.7644L8.90039 28.8568L12.5484 29.864C13.3811 30.1265 14.052 30.2349 14.6643 30.2349C15.6334 30.2349 16.4566 29.9646 17.5441 29.6075C17.6408 29.5759 17.7398 29.5432 17.8418 29.5098L25.0307 27.1681C25.8639 26.8966 26.4568 26.2871 26.6162 25.5377C26.7398 24.9567 26.5676 24.3828 26.1551 24.0025C25.8211 23.6947 25.0359 23.253 23.5225 23.7394L20.9127 24.2578L26.335 18.6207C26.3373 18.6183 26.3391 18.616 26.3414 18.6136ZM0.878906 27.5508V20.2308H4.06945V20.5376C4.06945 20.5385 4.06934 20.5394 4.06934 20.5404V27.1799C4.06934 27.1805 4.06945 27.1809 4.06945 27.1815V27.5508H0.878906ZM23.7656 24.5977C24.5766 24.3334 25.2322 24.3573 25.565 24.6638C25.7443 24.8293 25.8146 25.0793 25.7572 25.3484C25.6646 25.7823 25.2926 26.1448 24.7623 26.3174L17.5729 28.6598C17.4703 28.6931 17.3707 28.7259 17.2734 28.758C15.5537 29.3223 14.6906 29.6063 12.8016 29.0092C12.7969 29.0074 12.7916 29.0062 12.7863 29.0045L4.94836 26.839V20.919L9.21738 20.2065C9.74121 20.119 10.2094 20.0321 10.6225 19.9559C12.1254 19.6785 13.033 19.5112 14.1885 19.7267L16.5809 20.1726C17.5137 20.4839 17.8354 21.1321 17.7381 21.6065C17.6262 22.1548 17.0309 22.4554 16.2223 22.3721C15.518 22.2988 14.7176 22.1941 14.0115 22.1018C13.8229 22.0768 13.6418 22.053 13.4736 22.0316C12.6334 21.9054 12.041 22.5024 11.8898 23.159C11.8576 23.2989 11.8447 23.4477 11.8541 23.5977C11.8863 24.1406 12.2057 24.7037 12.9346 24.94C12.9527 24.946 13.1953 24.9918 13.1953 24.9918L16.7842 25.6585C16.7877 25.6591 16.7918 25.6597 16.7959 25.6603C17.5365 25.7775 17.857 25.7674 18.3111 25.6859C18.4301 25.6644 18.9152 25.5644 19.04 25.54L19.8311 25.3829C19.8311 25.3829 23.7492 24.6031 23.7656 24.5977Z" fill="#393737"/>
</svg>
