<svg width="30" height="30" viewBox="0 0 30 30" fill="none" xmlns="http://www.w3.org/2000/svg">
<g clip-path="url(#clip0_58_1210)">
<path d="M11.5044 9.57138C9.82693 10.6556 8.79903 12.5031 8.76172 14.4999C8.76172 14.7762 8.98557 15 9.2616 15C9.53786 15 9.7617 14.7762 9.7617 14.4999C9.79604 12.8531 10.6411 11.3292 12.0199 10.4281C12.2519 10.2837 12.325 9.97971 12.1842 9.74556C12.0432 9.51164 11.7404 9.43382 11.5044 9.57138Z" fill="#393737"/>
<path d="M26.7618 12.4999C25.5743 12.5015 24.5512 13.3369 24.3123 14.4999H18.2112C18.0956 13.9524 17.799 13.4599 17.3692 13.1014L19.0585 10.0001H20.8122C21.069 11.2576 22.2361 12.1163 23.513 11.9872C24.79 11.8584 25.7618 10.7833 25.7618 9.49997C25.7618 8.21663 24.79 7.14157 23.513 7.01271C22.2361 6.88362 21.069 7.74261 20.8122 9.00009H19.2618V5.70694L20.9688 3.99994H23.3123C23.5689 5.25742 24.7362 6.11641 26.0131 5.98732C27.29 5.85846 28.2619 4.7834 28.2619 3.50006C28.2619 2.21649 27.29 1.14166 26.0131 1.01257C24.7362 0.883713 23.5689 1.74248 23.3123 2.99995H20.9688C20.7037 3.00064 20.4497 3.10593 20.2618 3.29292L19.8331 3.72185C19.4817 3.59184 19.1242 3.47946 18.7617 3.38539V0.999985C18.761 0.447922 18.3138 0.000686648 17.7617 0H13.7617C13.2097 0.000686648 12.7625 0.447922 12.7618 0.999985V3.38493C11.6748 3.66211 10.6327 4.09264 9.66705 4.66301L7.98981 2.98553C7.80281 2.79282 7.54532 2.68433 7.27661 2.68501H7.2757C7.00951 2.68387 6.75407 2.79076 6.56822 2.98141L3.74748 5.8017C3.55591 5.98846 3.44765 6.24435 3.44673 6.51169C3.44604 6.77925 3.5527 7.03583 3.74313 7.22374L5.42427 8.90511C4.8539 9.87099 4.4236 10.9131 4.14597 12H1.7617C1.20964 12.0007 0.762405 12.448 0.761719 13V17C0.762405 17.552 1.20964 17.9993 1.7617 18H4.14597C4.4236 19.0869 4.8539 20.129 5.42427 21.0949L3.74748 22.7717C3.55591 22.9585 3.44765 23.2143 3.44673 23.4817C3.44604 23.7492 3.5527 24.0058 3.74313 24.1935L6.56387 27.014C6.75041 27.207 7.00745 27.3157 7.27592 27.315H7.27684C7.54349 27.3161 7.79892 27.2092 7.98546 27.0186L9.66705 25.3372C10.6327 25.9076 11.6748 26.3381 12.7618 26.6153V29C12.7625 29.5521 13.2097 29.9993 13.7617 30H17.7617C18.3138 29.9993 18.761 29.5521 18.7617 29V26.6146C19.1242 26.5205 19.4817 26.4082 19.8331 26.2782L20.2618 26.7071C20.4497 26.8941 20.7037 26.9994 20.9688 27H23.3123C23.5689 28.2575 24.7362 29.1163 26.0131 28.9874C27.29 28.8583 28.2619 27.7835 28.2619 26.4999C28.2619 25.2166 27.29 24.1415 26.0131 24.0127C24.7362 23.8836 23.5689 24.7426 23.3123 26.0001H20.9688L19.2618 24.2931V20.9999H20.8122C21.069 22.2574 22.2361 23.1164 23.513 22.9873C24.79 22.8584 25.7618 21.7834 25.7618 20.5C25.7618 19.2167 24.79 18.1416 23.513 18.0128C22.2361 17.8837 21.069 18.7424 20.8122 19.9999H19.0585L17.3692 16.8986C17.799 16.5401 18.0956 16.0476 18.2112 15.5001H24.3123C24.5755 16.7889 25.7925 17.6537 27.0964 17.4774C28.4001 17.3014 29.3445 16.1449 29.2561 14.8322C29.1678 13.5196 28.0774 12.4999 26.7618 12.4999ZM25.7618 1.99997C26.5901 1.99997 27.2617 2.67151 27.2617 3.50006C27.2617 4.32838 26.5901 4.99992 25.7618 4.99992C24.9332 4.99992 24.2617 4.32838 24.2617 3.50006C24.2626 2.67197 24.9337 2.00089 25.7618 1.99997ZM25.7618 25.0001C26.5901 25.0001 27.2617 25.6716 27.2617 26.4999C27.2617 27.3285 26.5901 28 25.7618 28C24.9332 28 24.2617 27.3285 24.2617 26.4999C24.2626 25.6718 24.9337 25.001 25.7618 25.0001ZM15.7617 16.5001C14.9334 16.5001 14.2616 15.8283 14.2616 15C14.2616 14.1717 14.9334 13.4999 15.7617 13.4999C16.59 13.4999 17.2618 14.1717 17.2618 15C17.2609 15.8281 16.5898 16.4992 15.7617 16.5001ZM23.2617 8.00011C24.09 8.00011 24.7618 8.67165 24.7618 9.49997C24.7618 10.3285 24.09 11.0001 23.2617 11.0001C22.4334 11.0001 21.7616 10.3285 21.7616 9.49997C21.7625 8.67188 22.4336 8.00102 23.2617 8.00011ZM18.1533 25.732C17.9244 25.7826 17.7617 25.9856 17.7617 26.22V29H13.7617V26.22C13.7617 25.985 13.5981 25.7817 13.3688 25.7316C12.123 25.4585 10.9353 24.9683 9.85977 24.283C9.66202 24.158 9.40407 24.1864 9.23836 24.3517L7.27547 26.3116L4.45038 23.4835L6.41029 21.5236C6.576 21.3579 6.60439 21.0995 6.47873 20.9019C5.79369 19.8264 5.30319 18.6385 5.02991 17.3932C4.97978 17.1636 4.77654 17.0002 4.5417 17H1.7617V13H4.5417C4.77654 13 4.97978 12.8364 5.02991 12.607C5.30319 11.3615 5.79369 10.1736 6.47873 9.09805C6.60439 8.90053 6.576 8.64212 6.41029 8.47664L4.45038 6.51352L7.27844 3.68843L9.23836 5.64835C9.40407 5.81406 9.66248 5.84267 9.86 5.71701C10.9355 5.03174 12.1232 4.54147 13.3688 4.26865C13.5983 4.21829 13.7617 4.01482 13.7617 3.77998V0.999985H17.7617V3.77998C17.7617 4.01436 17.9244 4.21738 18.1533 4.26796C18.4625 4.33685 18.7598 4.41811 19.0473 4.50737L18.5548 4.99992C18.3664 5.18715 18.2611 5.44167 18.2618 5.70694V6.3549C14.585 5.2906 10.6375 6.66801 8.42125 9.78882C6.20476 12.9094 6.20476 17.0906 8.42125 20.2112C10.6375 23.332 14.585 24.7094 18.2618 23.6451V24.2931C18.2611 24.5583 18.3666 24.8129 18.5548 25.0001L19.0473 25.4924C18.7598 25.5821 18.4625 25.6631 18.1533 25.732ZM23.2617 18.9999C24.09 18.9999 24.7618 19.6715 24.7618 20.5C24.7618 21.3284 24.09 21.9999 23.2617 21.9999C22.4334 21.9999 21.7616 21.3284 21.7616 20.5C21.7625 19.6719 22.4336 19.0009 23.2617 18.9999ZM18.2618 20.6273V22.5934C14.9609 23.6879 11.3308 22.5247 9.28116 19.7152C7.23129 16.9059 7.23129 13.0941 9.28116 10.2848C11.3308 7.47528 14.9609 6.3121 18.2618 7.40662V9.37271L16.4921 12.6215C16.2561 12.5446 16.0098 12.5036 15.7617 12.4999C14.3811 12.4999 13.2616 13.6194 13.2616 15C13.2616 16.3806 14.3811 17.5001 15.7617 17.5001C16.0098 17.4964 16.2561 17.4554 16.4921 17.3785L18.2618 20.6273ZM26.7618 16.5001C25.9332 16.5001 25.2617 15.8283 25.2617 15C25.2617 14.1717 25.9332 13.4999 26.7618 13.4999C27.5901 13.4999 28.2616 14.1717 28.2616 15C28.2607 15.8281 27.5899 16.4992 26.7618 16.5001Z" fill="#393737"/>
</g>
<defs>
<clipPath id="clip0_58_1210">
<rect width="30" height="30" fill="white"/>
</clipPath>
</defs>
</svg>
