<svg width="50" height="50" viewBox="0 0 50 50" fill="none" xmlns="http://www.w3.org/2000/svg">
<path d="M27.763 15.8653H31.1395C31.7243 15.8653 32.1994 15.3902 32.1994 14.8055C32.1994 14.2207 31.7243 13.7456 31.1395 13.7456H27.763C27.1782 13.7456 26.7031 14.2207 26.7031 14.8055C26.7031 15.3902 27.1769 15.8653 27.763 15.8653Z" fill="#B9F8B1"/>
<path d="M18.8606 15.8653H22.2372C22.822 15.8653 23.297 15.3902 23.297 14.8055C23.297 14.2207 22.822 13.7456 22.2372 13.7456H18.8606C18.2758 13.7456 17.8008 14.2207 17.8008 14.8055C17.8008 15.3902 18.2758 15.8653 18.8606 15.8653Z" fill="#B9F8B1"/>
<path d="M27.763 21.2181H31.1395C31.7243 21.2181 32.1994 20.743 32.1994 20.1582C32.1994 19.5734 31.7243 19.0984 31.1395 19.0984H27.763C27.1782 19.0984 26.7031 19.5734 26.7031 20.1582C26.7031 20.743 27.1769 21.2181 27.763 21.2181Z" fill="#B9F8B1"/>
<path d="M18.8606 21.2183H22.2372C22.822 21.2183 23.297 20.7433 23.297 20.1585C23.297 19.5737 22.822 19.0986 22.2372 19.0986H18.8606C18.2758 19.0986 17.8008 19.5737 17.8008 20.1585C17.8008 20.7433 18.2758 21.2183 18.8606 21.2183Z" fill="#B9F8B1"/>
<path d="M27.763 26.5696H31.1395C31.7243 26.5696 32.1994 26.0946 32.1994 25.5098C32.1994 24.925 31.7243 24.45 31.1395 24.45H27.763C27.1782 24.45 26.7031 24.925 26.7031 25.5098C26.7031 26.0946 27.1769 26.5696 27.763 26.5696Z" fill="#B9F8B1"/>
<path d="M18.8606 26.5699H22.2372C22.822 26.5699 23.297 26.0948 23.297 25.51C23.297 24.9253 22.822 24.4502 22.2372 24.4502H18.8606C18.2758 24.4502 17.8008 24.9253 17.8008 25.51C17.8008 26.0948 18.2758 26.5699 18.8606 26.5699Z" fill="#B9F8B1"/>
<path d="M27.763 31.9212H31.1395C31.7243 31.9212 32.1994 31.4461 32.1994 30.8614C32.1994 30.2766 31.7243 29.8015 31.1395 29.8015H27.763C27.1782 29.8015 26.7031 30.2766 26.7031 30.8614C26.7031 31.4461 27.1769 31.9212 27.763 31.9212Z" fill="#B9F8B1"/>
<path d="M18.8606 31.9214H22.2372C22.822 31.9214 23.297 31.4464 23.297 30.8616C23.297 30.2768 22.822 29.8018 22.2372 29.8018H18.8606C18.2758 29.8018 17.8008 30.2768 17.8008 30.8616C17.8008 31.4464 18.2758 31.9214 18.8606 31.9214Z" fill="#B9F8B1"/>
<path d="M27.763 37.273H31.1395C31.7243 37.273 32.1994 36.798 32.1994 36.2132C32.1994 35.6284 31.7243 35.1533 31.1395 35.1533H27.763C27.1782 35.1533 26.7031 35.6284 26.7031 36.2132C26.7031 36.798 27.1769 37.273 27.763 37.273Z" fill="#B9F8B1"/>
<path d="M18.8606 37.273H22.2372C22.822 37.273 23.297 36.798 23.297 36.2132C23.297 35.6284 22.822 35.1533 22.2372 35.1533H18.8606C18.2758 35.1533 17.8008 35.6284 17.8008 36.2132C17.8008 36.798 18.2758 37.273 18.8606 37.273Z" fill="#B9F8B1"/>
<path d="M27.763 42.6258H31.1395C31.7243 42.6258 32.1994 42.1507 32.1994 41.5659C32.1994 40.9812 31.7243 40.5061 31.1395 40.5061H27.763C27.1782 40.5061 26.7031 40.9812 26.7031 41.5659C26.7031 42.1507 27.1769 42.6258 27.763 42.6258Z" fill="#B9F8B1"/>
<path d="M18.8606 42.6256H22.2372C22.822 42.6256 23.297 42.1505 23.297 41.5657C23.297 40.9809 22.822 40.5059 22.2372 40.5059H18.8606C18.2758 40.5059 17.8008 40.9809 17.8008 41.5657C17.8008 42.1505 18.2758 42.6256 18.8606 42.6256Z" fill="#B9F8B1"/>
<path d="M48.9399 24.4502H38.3353V9.2882C38.3353 8.83309 38.0447 8.42785 37.6121 8.28322L13.061 0.0550709C12.7381 -0.0534075 12.3815 0.000208229 12.1047 0.199709C11.8279 0.399209 11.6633 0.719657 11.6633 1.06005V13.5575H1.05985C0.47506 13.5575 0 14.0326 0 14.6174V48.9402C0 49.5249 0.47506 50 1.05985 50H48.9399C49.5247 50 49.9998 49.5249 49.9998 48.9402V25.5101C49.9998 24.924 49.5247 24.4502 48.9399 24.4502ZM13.7842 2.53262L36.2156 10.05V47.8803H13.7842V2.53262ZM2.11969 15.6772H11.6645V47.8803H2.11969V15.6772ZM47.8801 47.8803H38.3353V26.5699H47.8801V47.8803Z" fill="#B9F8B1"/>
<path d="M42.0384 31.9212H44.1805C44.7653 31.9212 45.2403 31.4461 45.2403 30.8614C45.2403 30.2766 44.7653 29.8015 44.1805 29.8015H42.0384C41.4536 29.8015 40.9785 30.2766 40.9785 30.8614C40.9785 31.4461 41.4536 31.9212 42.0384 31.9212Z" fill="#B9F8B1"/>
<path d="M42.0345 37.273H44.1766C44.7614 37.273 45.2364 36.798 45.2364 36.2132C45.2364 35.6284 44.7614 35.1533 44.1766 35.1533H42.0345C41.4497 35.1533 40.9746 35.6284 40.9746 36.2132C40.9746 36.798 41.4497 37.273 42.0345 37.273Z" fill="#B9F8B1"/>
<path d="M44.1766 40.5059H42.0345C41.4497 40.5059 40.9746 40.9809 40.9746 41.5657C40.9746 42.1505 41.4497 42.6256 42.0345 42.6256H44.1766C44.7614 42.6256 45.2364 42.1505 45.2364 41.5657C45.2364 40.9809 44.7614 40.5059 44.1766 40.5059Z" fill="#B9F8B1"/>
<path d="M5.81961 31.9214H7.96175C8.54653 31.9214 9.02159 31.4464 9.02159 30.8616C9.02159 30.2768 8.54653 29.8018 7.96175 29.8018H5.81961C5.23483 29.8018 4.75977 30.2768 4.75977 30.8616C4.75977 31.4464 5.23483 31.9214 5.81961 31.9214Z" fill="#B9F8B1"/>
<path d="M5.81961 26.5699H7.96175C8.54653 26.5699 9.02159 26.0948 9.02159 25.51C9.02159 24.9253 8.54653 24.4502 7.96175 24.4502H5.81961C5.23483 24.4502 4.75977 24.9253 4.75977 25.51C4.75977 26.0948 5.23483 26.5699 5.81961 26.5699Z" fill="#B9F8B1"/>
<path d="M5.81961 21.2183H7.96175C8.54653 21.2183 9.02159 20.7433 9.02159 20.1585C9.02159 19.5737 8.54653 19.0986 7.96175 19.0986H5.81961C5.23483 19.0986 4.75977 19.5737 4.75977 20.1585C4.75977 20.7433 5.23483 21.2183 5.81961 21.2183Z" fill="#B9F8B1"/>
<path d="M7.96468 35.1533H5.82254C5.23776 35.1533 4.7627 35.6284 4.7627 36.2132C4.7627 36.798 5.23776 37.273 5.82254 37.273H7.96468C8.54946 37.273 9.02452 36.798 9.02452 36.2132C9.02452 35.6284 8.54946 35.1533 7.96468 35.1533Z" fill="#B9F8B1"/>
<path d="M7.96468 40.5059H5.82254C5.23776 40.5059 4.7627 40.9809 4.7627 41.5657C4.7627 42.1505 5.23776 42.6256 5.82254 42.6256H7.96468C8.54946 42.6256 9.02452 42.1505 9.02452 41.5657C9.02452 40.9809 8.54946 40.5059 7.96468 40.5059Z" fill="#B9F8B1"/>
</svg>
