<svg width="75" height="75" viewBox="0 0 75 75" fill="none" xmlns="http://www.w3.org/2000/svg">
<g clip-path="url(#clip0_69_2366)">
<path d="M69.4148 0H21.5426C18.4109 0 15.9574 2.45347 15.9574 5.58516V13.6436C15.9574 16.7752 18.4109 19.2287 21.5426 19.2287C25.374 19.2287 31.4394 19.2088 37.5056 19.1889C43.5669 19.1689 49.6292 19.149 53.4574 19.149C54.7771 19.149 55.851 20.2229 55.851 21.5426V69.4148C55.851 70.7577 54.8002 71.8084 53.4574 71.8084H5.58516C4.24307 71.8084 3.1916 70.7577 3.1916 69.4148V21.5426C3.1916 20.2005 4.24321 19.149 5.58516 19.149H9.57451C10.4553 19.149 11.1703 18.4342 11.1703 17.5532C11.1703 16.6724 10.4555 15.9574 9.57451 15.9574H5.58516C2.45347 15.9574 0 18.4109 0 21.5426V69.4148C0 72.5465 2.45347 75 5.58516 75H53.4574C56.5891 75 59.0426 72.5465 59.0426 69.4148V21.5426C59.0426 18.4627 56.5365 15.9574 53.4574 15.9574C49.626 15.9574 43.5614 15.9773 37.4952 15.9973C31.4329 16.0172 25.3707 16.0371 21.5424 16.0371C20.2003 16.0371 19.1489 14.9855 19.1489 13.6436V5.58516C19.1489 4.24307 20.2005 3.1916 21.5424 3.1916H69.4147C70.7575 3.1916 71.8083 4.24321 71.8083 5.58516V53.4574C71.8083 54.8002 70.7575 55.851 69.4147 55.851H65.4253C64.5445 55.851 63.8295 56.5658 63.8295 57.4468C63.8295 58.3277 64.5444 59.0426 65.4253 59.0426H69.4147C72.5464 59.0426 74.9999 56.5891 74.9999 53.4574V5.58516C75 2.45347 72.5465 0 69.4148 0Z" fill="#91D089"/>
</g>
<defs>
<clipPath id="clip0_69_2366">
<rect width="75" height="75" fill="white"/>
</clipPath>
</defs>
</svg>
