<svg width="75" height="73" viewBox="0 0 75 73" fill="none" xmlns="http://www.w3.org/2000/svg">
<path d="M60.8599 45.8227L73.1374 33.8627C74.8231 32.2264 75.4211 29.8135 74.6986 27.5664C73.9699 25.3011 72.0585 23.6759 69.7061 23.3258L52.7376 20.846C51.8046 20.7487 51.0009 20.1634 50.5855 19.2815C50.2107 18.485 49.2609 18.1429 48.4636 18.5176C47.667 18.8923 47.3241 19.8421 47.6997 20.6395C48.5935 22.5397 50.3527 23.8035 52.3405 24.0108L69.2412 26.4827C70.3974 26.655 71.3024 27.4261 71.662 28.5448C72.0161 29.6452 71.737 30.7783 70.914 31.5773L58.6629 43.5119C57.132 44.9321 56.4772 47.0125 56.8991 49.0164L59.7705 65.8406C59.969 67.0056 59.5185 68.106 58.5664 68.7854C57.643 69.4433 56.4923 69.5063 55.4669 68.9457L40.3199 60.9732C38.4755 59.9948 36.3234 60.002 34.605 60.9716L19.457 68.9439C18.4355 69.4781 17.2657 69.3888 16.3272 68.7054C15.3958 68.026 14.9556 66.9567 15.1502 65.8396L18.0239 48.9963C18.3413 46.9838 17.6969 44.9495 16.2895 43.5421L4.08395 31.5749C3.26261 30.7774 2.98428 29.6443 3.33834 28.5439C3.69796 27.4252 4.60294 26.6541 5.75519 26.4827L22.6783 24.0085C24.7651 23.6799 26.45 22.4519 27.2913 20.6626L34.7875 5.35112C35.3002 4.30097 36.2994 3.67416 37.4604 3.67416C38.6222 3.67343 39.6213 4.30097 40.1349 5.35112C40.5216 6.14214 41.4754 6.47143 42.2679 6.08398C43.0589 5.69726 43.3875 4.74277 43.0008 3.95101C41.9569 1.81321 39.8335 0.484741 37.4604 0.484741C35.0882 0.484741 32.9662 1.81321 31.9225 3.95014L24.4159 19.2823C24.0204 20.1227 23.2062 20.6969 22.1992 20.8555L5.28966 23.3282C2.9421 23.6783 1.03076 25.3025 0.301998 27.5679C-0.421198 29.8157 0.176754 32.2279 1.85694 33.8586L14.0458 45.8075C14.7229 46.4853 15.0322 47.4916 14.8767 48.4795L12.0069 65.2991C11.6065 67.6003 12.542 69.8928 14.4469 71.2827C16.3591 72.6765 18.8452 72.8638 20.9392 71.7675L36.1296 63.7737C36.9373 63.3184 37.946 63.3272 38.8312 63.7945L53.9586 71.7557C54.8867 72.2644 55.8963 72.5156 56.901 72.5156C58.1354 72.5156 59.3618 72.1345 60.4166 71.3826C62.3599 69.9992 63.3167 67.6699 62.9141 65.304L60.0315 48.42C59.8273 47.4478 60.1191 46.5109 60.8599 45.8227Z" fill="#91D089"/>
</svg>
