<svg width="75" height="59" viewBox="0 0 75 59" fill="none" xmlns="http://www.w3.org/2000/svg">
<path d="M73.8395 11.5655C71.363 4.85004 65.4347 0.456204 58.3699 0.0965817C58.3419 0.0958493 58.3157 0.0949707 58.2886 0.0949707H57.2517C48.3325 0.0949707 40.6712 5.58701 37.4721 13.3664C34.273 5.58701 26.6117 0.0949707 17.6924 0.0949707H16.6556C16.6285 0.0949707 16.6014 0.0957028 16.5743 0.0965817C9.52544 0.455471 3.61548 4.85253 1.15262 11.5727C-1.39007 18.5107 0.343143 25.9265 5.67009 30.924L33.6934 57.4296C34.7869 58.4138 36.1698 58.9051 37.5424 58.9051C38.9286 58.9051 40.3035 58.4043 41.3579 57.4049L45.6185 53.3844C46.6879 52.3149 47.2934 50.9048 47.3221 49.4156C47.3508 47.893 46.775 46.4614 45.6983 45.3855C45.0754 44.7626 44.0657 44.7626 43.4427 45.3855C42.8198 46.0084 42.8198 47.0181 43.4427 47.6411C44.3974 48.5966 44.3631 50.128 43.3964 51.0954L39.1669 55.0856C38.2617 55.9414 36.7942 55.9287 35.8562 55.0849L7.85697 28.6008C3.47442 24.4893 2.05395 18.3856 4.14825 12.6702C6.15818 7.18458 10.9642 3.5907 16.6971 3.2844H17.6924C27.7194 3.2844 35.8769 11.4419 35.8769 21.4688C35.8769 22.3493 36.5914 23.0639 37.472 23.0639C38.3525 23.0639 39.067 22.3493 39.067 21.4688C39.067 11.4419 47.2245 3.2844 57.2515 3.2844H58.2468C63.998 3.59231 68.8234 7.18531 70.8459 12.6693C72.9459 18.3639 71.5342 24.47 67.13 28.6365L58.1973 37.5692C57.1246 38.6419 56.5335 40.0473 56.5335 41.5283C56.5335 43.0094 57.1245 44.4146 58.1973 45.4873C58.8202 46.1102 59.8299 46.1102 60.4529 45.4873C61.0757 44.8645 61.0757 43.8547 60.4529 43.2317C59.9824 42.7612 59.724 42.1567 59.724 41.5281C59.724 40.8995 59.9824 40.2951 60.4529 39.8245L69.3536 30.9228C74.6706 25.8955 76.3886 18.478 73.8395 11.5655Z" fill="#91D089"/>
</svg>
