<svg width="75" height="75" viewBox="0 0 75 75" fill="none" xmlns="http://www.w3.org/2000/svg">
<g clip-path="url(#clip0_69_2352)">
<path d="M73.1789 8.09931C71.3327 6.28657 68.6474 5.88007 66.3521 7.05326L17.0702 31.6537C14.547 32.9422 13.2978 35.6618 13.9612 38.4216C14.6187 41.1566 16.9353 42.9932 19.725 42.9932H31.7399L17.5782 57.1558C16.9113 57.8227 16.9113 58.9036 17.5782 59.5705C18.2443 60.2375 19.327 60.2375 19.993 59.5705L37.0708 42.4928C37.56 42.0036 37.7061 41.2701 37.4414 40.6313C37.1767 39.9935 36.5541 39.5776 35.8634 39.5776H19.725C18.2708 39.5776 17.5091 38.5675 17.282 37.6222C17.0497 36.6573 17.2794 35.3807 18.609 34.7019L67.8933 10.1018C69.3842 9.33666 70.4849 10.2409 70.7862 10.5364C71.436 11.1742 71.9134 12.3022 71.3087 13.5386L46.7169 62.7223C46.0312 64.0971 44.7632 64.3421 43.8077 64.1185C42.8564 63.8948 41.8404 63.1177 41.8404 61.6089V45.5549C41.8404 44.6123 41.0753 43.8472 40.1327 43.8472C39.1901 43.8472 38.425 44.6123 38.425 45.5549V61.6087C38.425 64.4488 40.2728 66.7936 43.0231 67.4425C43.5013 67.556 43.9778 67.6099 44.4457 67.6099C46.6769 67.6099 48.7142 66.3667 49.7721 64.2498L74.3708 15.0525C75.5305 12.6778 75.0625 9.94882 73.1789 8.09931Z" fill="#91D089"/>
<path d="M19.9927 48.6167C19.3267 47.9498 18.244 47.9498 17.5779 48.6167L0.500208 65.6945C-0.166736 66.3614 -0.166736 67.4423 0.500208 68.1093C0.833167 68.4431 1.27042 68.6096 1.70753 68.6096C2.14464 68.6096 2.5819 68.4431 2.91486 68.1093L19.9926 51.0315C20.6597 50.3647 20.6597 49.2837 19.9927 48.6167Z" fill="#91D089"/>
<path d="M32.8015 57.1555C32.1355 56.4885 31.0528 56.4885 30.3867 57.1555L21.8479 65.6943C21.1809 66.3613 21.1809 67.4422 21.8479 68.1091C22.1808 68.443 22.6181 68.6095 23.0552 68.6095C23.4923 68.6095 23.9296 68.443 24.2625 68.1091L32.8014 59.5703C33.4683 58.9035 33.4683 57.8224 32.8015 57.1555Z" fill="#91D089"/>
</g>
<defs>
<clipPath id="clip0_69_2352">
<rect width="75" height="75" fill="white"/>
</clipPath>
</defs>
</svg>
