<svg width="50" height="50" viewBox="0 0 50 50" fill="none" xmlns="http://www.w3.org/2000/svg">
<g clip-path="url(#clip0_47_839)">
<path d="M25 0C24.4128 0 23.9361 0.476562 23.9361 1.06387C23.9361 1.65107 24.4127 2.12773 25 2.12773C37.6117 2.12773 47.8724 12.3884 47.8724 25.0001C47.8724 37.6118 37.6117 47.8724 25 47.8724C12.3883 47.8724 2.12764 37.6117 2.12764 25C2.12764 24.4128 1.65107 23.9361 1.06377 23.9361C0.476562 23.9361 0 24.4128 0 25C0 38.7851 11.2149 50 25 50C38.7851 50 50 38.7851 50 25C50 11.2149 38.7851 0 25 0Z" fill="#91D089"/>
<path d="M24.9998 7.97852C15.6142 7.97852 7.97852 15.6142 7.97852 24.9998C7.97852 34.3855 15.6142 42.0211 24.9998 42.0211C25.587 42.0211 26.0637 41.5445 26.0637 40.9572C26.0637 40.37 25.5871 39.8934 24.9998 39.8934C16.7876 39.8934 10.1062 33.212 10.1062 24.9997C10.1062 16.7874 16.7876 10.1062 24.9998 10.1062C33.212 10.1062 39.8935 16.7876 39.8935 24.9998C39.8935 25.587 40.37 26.0637 40.9573 26.0637C41.5445 26.0637 42.0212 25.5871 42.0212 24.9998C42.0211 15.6142 34.3855 7.97852 24.9998 7.97852Z" fill="#91D089"/>
<path d="M24.9996 15.9575C24.4124 15.9575 23.9357 16.4341 23.9357 17.0214C23.9357 17.6086 24.4123 18.0853 24.9996 18.0853C28.8124 18.0853 31.9145 21.1874 31.9145 25.0001C31.9145 28.8128 28.8124 31.915 24.9996 31.915C21.1868 31.915 18.0848 28.8129 18.0848 25.0001C18.0848 24.4129 17.6082 23.9362 17.0209 23.9362C16.4337 23.9362 15.957 24.4128 15.957 25.0001C15.957 29.9862 20.0134 34.0427 24.9996 34.0427C29.9857 34.0427 34.0422 29.9863 34.0422 25.0001C34.0422 20.014 29.9857 15.9575 24.9996 15.9575Z" fill="#91D089"/>
</g>
<defs>
<clipPath id="clip0_47_839">
<rect width="50" height="50" fill="white"/>
</clipPath>
</defs>
</svg>
