<svg width="12" height="12" viewBox="0 0 12 12" fill="none" xmlns="http://www.w3.org/2000/svg">
<path d="M4.24371 5.1214C4.868 6.2192 5.7808 7.132 6.8786 7.75627L7.46827 6.93073C7.66433 6.65633 8.0344 6.57153 8.3304 6.7332C9.26827 7.24553 10.3047 7.55687 11.3859 7.64247C11.7327 7.66993 12 7.95927 12 8.30707V11.2823C12 11.6241 11.7415 11.9105 11.4015 11.9454C11.0482 11.9817 10.6918 12 10.3333 12C4.62639 12 0 7.3736 0 1.66667C0 1.30818 0.0182801 0.951807 0.0545934 0.598507C0.0895334 0.2585 0.37596 0 0.717767 0H3.69295C4.04073 0 4.33009 0.26736 4.35753 0.61406C4.44311 1.69525 4.75447 2.73176 5.2668 3.66963C5.42847 3.9656 5.34367 4.33569 5.06927 4.53171L4.24371 5.1214ZM2.56283 4.68347L3.82947 3.77873C3.47031 3.00343 3.22419 2.18122 3.09818 1.33333H1.33938C1.33535 1.44421 1.33333 1.55533 1.33333 1.66667C1.33333 6.6372 5.3628 10.6667 10.3333 10.6667C10.4447 10.6667 10.5558 10.6647 10.6667 10.6606V8.9018C9.8188 8.7758 8.9966 8.52967 8.22127 8.17053L7.31653 9.4372C6.95053 9.295 6.59707 9.12767 6.25827 8.9374L6.21953 8.91533C4.91313 8.17247 3.82756 7.08687 3.08467 5.78047L3.06263 5.74173C2.87233 5.40293 2.70503 5.04947 2.56283 4.68347Z" fill="#393737"/>
</svg>
