<svg width="92" height="92" viewBox="0 0 92 92" fill="none" xmlns="http://www.w3.org/2000/svg">
<path d="M38.0016 15.5484C39.1172 15.5484 40.1891 15.0906 41.0203 14.2594C42.5234 12.7531 42.5656 10.2094 41.1156 8.46718C41.0563 8.3953 40.9891 8.32811 40.9188 8.26874C39.2469 6.8703 36.5734 6.90624 35.1172 8.36249C34.2484 9.23124 33.7813 10.3953 33.8344 11.5594C33.8813 12.6109 34.3359 13.5672 35.1172 14.2641C35.8531 15.0828 36.8969 15.5484 38.0016 15.5484ZM37.325 10.575C37.4766 10.4234 37.7234 10.3375 38.0031 10.3375C38.2844 10.3375 38.5672 10.425 38.8016 10.5828C39.1469 11.0969 39.1047 11.7609 38.8125 12.0531C38.3703 12.4937 37.7516 12.5484 37.4203 12.1531C37.3609 12.0828 37.2953 12.0172 37.225 11.9578C37.0578 11.8187 36.9672 11.6375 36.9578 11.4219C36.9422 11.1312 37.0781 10.8219 37.325 10.575ZM18.8938 35.6578L9.85625 44.5125C9.23906 45.1172 9.22969 46.1062 9.83281 46.7219C10.1391 47.0344 10.5438 47.1906 10.9484 47.1906C11.3422 47.1906 11.7375 47.0422 12.0422 46.7437L21.0797 37.889C21.6969 37.2844 21.7062 36.2953 21.1031 35.6797C20.5 35.0641 19.5094 35.0547 18.8938 35.6578ZM21.1453 23.9062L23.3125 25.8875L34.7469 37.3219C35.0516 37.6265 35.4516 37.7797 35.8516 37.7797C36.25 37.7797 36.65 37.6281 36.9547 37.3234L39.3609 34.925C41.5266 32.7594 42.2719 29.9031 41.4203 27.1281L39.8078 21.3187L44.3859 16.7969C46.8547 14.1234 48.0984 11.1765 48.2984 7.54843L48.6672 2.38593C48.7 1.93436 48.5344 1.49061 48.2141 1.1703C47.8937 0.848426 47.4516 0.685925 46.9969 0.715613L41.8547 1.08436C38.2078 1.28593 35.2609 2.52968 32.5281 5.04843L28.0594 9.57655L22.2922 7.97655C19.4875 7.1078 16.6312 7.85311 14.4609 10.0219L12.0578 12.4187C11.45 13.025 11.4453 14.0062 12.0453 14.6187L21.1453 23.9062ZM37.1531 32.7141L35.8531 34.0094L31.4313 29.5891L37.2609 23.8312L38.4203 28.0031C39.0891 30.1797 38.0984 31.7672 37.1531 32.7141ZM29.4125 12.6547C29.6688 12.5094 29.875 12.3016 30.0156 12.0422L34.7016 7.29374C36.8469 5.31718 39.1063 4.36405 42.0547 4.20155L45.4234 3.96093L45.1813 7.34843C45.0187 10.2766 44.0672 12.5359 42.1406 14.6234L37.3422 19.3609C37.0812 19.5016 36.8734 19.7094 36.7281 19.9656L29.2219 27.3765L25.4719 23.6266L23.3156 21.6578L21.9266 20.239L29.4125 12.6547ZM16.6703 12.2328C17.6203 11.2828 19.2062 10.2906 21.4141 10.9734L25.55 12.1219L19.7406 18.0078L15.3625 13.5375L16.6703 12.2328ZM89.725 88.1594H86.1281V23.3062C86.1281 22.4437 85.4297 21.7437 84.5656 21.7437H63.7156C62.8516 21.7437 62.1531 22.4437 62.1531 23.3062V88.1594H58.0781V50.9812C58.0781 50.1187 57.3797 49.4187 56.5156 49.4187H35.675C34.8125 49.4187 34.1125 50.1187 34.1125 50.9812V88.1578H30.0438V65.5562C30.0438 64.6937 29.3438 63.9937 28.4813 63.9937H7.63125C6.76875 63.9937 6.06875 64.6937 6.06875 65.5562V88.1594H2.27969C1.41719 88.1594 0.717188 88.8594 0.717188 89.7219C0.717188 90.5844 1.41719 91.2844 2.27969 91.2844H89.725C90.5891 91.2844 91.2875 90.5844 91.2875 89.7219C91.2875 88.8594 90.5891 88.1594 89.725 88.1594ZM26.9172 88.1594H9.19375V67.1187H26.9172V88.1594ZM54.9531 88.1594H37.2375V52.5437H54.9531V88.1594ZM83.0047 88.1594H65.2781V24.8687H83.0047V88.1594ZM2.27969 48.6672C2.67969 48.6672 3.07969 48.5141 3.38437 48.2094L22.3906 29.2031C23.0016 28.5922 23.0016 27.6047 22.3906 26.9937C21.7797 26.3828 20.7922 26.3828 20.1812 26.9937L1.175 46C0.564062 46.6109 0.564062 47.5984 1.175 48.2094C1.47969 48.5141 1.87969 48.6672 2.27969 48.6672ZM3.57031 39.9969C3.97031 39.9969 4.37031 39.8437 4.67656 39.5391L13.7156 30.4937C14.325 29.8828 14.325 28.8937 13.7156 28.2828C13.1047 27.6734 12.1156 27.6734 11.5047 28.2828L2.46562 37.3281C1.85625 37.9391 1.85625 38.9281 2.46562 39.5391C2.77031 39.8437 3.17031 39.9969 3.57031 39.9969Z" fill="#91D089"/>
</svg>
